<?xml version="1.0" encoding="UTF-8" standalone="yes"?>
<svg xmlns="http://www.w3.org/2000/svg" xmlns:xlink="http://www.w3.org/1999/xlink" width="134.934mm" height="85.656mm" version="1.1" viewBox="294.770 85.122 701.233 445.141">
  <!--
	Exported with Concepts: Smarter Sketching
	Version: 916 on iOS 14.4
	https://concepts.app/
	-->
  <title>Right-endpoint</title>
  <desc>Drawing exported from Concepts: Smarter Sketching</desc>
  <defs></defs>
  <rect x="294.770" y="85.122" width="701.233" height="445.141" stroke="none" fill="white"></rect>
  <g id="Wire" opacity="1.000">
    <path id="STROKE_7e68bb59-b6b8-46f3-a16c-3691301fc1b8" opacity="1.000" fill="none" stroke="#000000" stroke-width="1.200" stroke-opacity="1.000" stroke-linecap="round" stroke-linejoin="round" d="M 362.908 96.837 Q 363.033 96.686 363.478 96.279 Q 363.922 95.872 365.347 93.053 Q 365.362 93.163 351.309 116.884 Q 351.034 116.371 352.028 113.506 Q 353.022 110.641 354.572 106.905 Q 356.122 103.170 357.116 101.389 Q 358.110 99.607 359.831 97.500 Q 361.552 95.392 363.053 95.899 Q 364.554 96.405 366.776 102.157 Q 368.997 107.910 370.845 111.951 Q 372.692 115.992 376.109 118.223 Q 376.637 118.910 375.450 115.292 Q 374.263 111.674 371.095 107.156 Q 367.927 102.638 365.559 99.873 Q 363.190 97.107 361.121 94.754 Q 361.403 96.216 361.424 96.330 Q 361.446 96.444 361.419 96.210 Q 361.764 97.573 361.660 97.241 Q 362.019 98.440 362.306 102.844 Q 362.593 107.249 362.866 109.819 Q 363.139 112.390 363.460 122.290 Q 363.781 132.190 363.533 137.405 Q 363.286 142.621 364.485 155.191 Q 365.684 167.761 366.508 180.771 Q 367.332 193.781 367.338 200.571 Q 367.344 207.361 367.341 214.218 Q 367.338 221.075 367.488 243.990 Q 367.637 266.906 367.068 286.854 Q 366.499 306.803 365.522 323.325 Q 364.545 339.847 364.094 349.235 Q 363.643 358.622 363.397 362.755 Q 363.152 366.888 362.263 380.106 Q 361.374 393.323 361.116 405.603 Q 360.859 417.883 360.894 423.851 Q 360.930 429.818 360.826 433.003 Q 360.722 436.188 361.119 446.492 Q 361.516 456.796 361.520 467.408 Q 361.523 478.021 361.304 482.878 Q 361.086 487.736 360.784 490.061 Q 360.482 492.386 358.852 500.540 Q 358.821 500.151 358.886 499.846 Q 358.952 499.541 359.051 499.180 "></path>
    <path id="STROKE_bf284d1c-3e05-458e-8517-5293d04f9941" opacity="1.000" fill="none" stroke="#000000" stroke-width="1.200" stroke-opacity="1.000" stroke-linecap="round" stroke-linejoin="round" d="M 306.786 456.853 Q 307.759 457.266 307.932 457.408 Q 308.105 457.549 308.104 457.534 Q 309.169 457.741 309.040 457.704 Q 307.933 458.179 313.206 457.418 Q 318.480 456.658 324.145 457.424 Q 329.810 458.190 333.306 459.254 Q 336.802 460.319 343.557 460.556 Q 350.311 460.792 354.832 460.462 Q 359.352 460.131 364.167 458.682 Q 368.983 457.232 374.973 456.008 Q 380.963 454.785 384.834 454.555 Q 388.705 454.326 397.772 454.386 Q 406.838 454.445 413.150 453.478 Q 419.462 452.511 427.326 452.647 Q 435.190 452.782 439.897 453.459 Q 444.605 454.136 448.797 454.768 Q 452.989 455.401 463.073 456.289 Q 473.158 457.178 480.933 456.826 Q 488.709 456.474 496.249 455.493 Q 503.789 454.511 511.289 454.087 Q 518.789 453.662 527.204 454.243 Q 535.619 454.825 542.060 455.368 Q 548.501 455.910 553.548 455.952 Q 558.596 455.994 565.231 455.866 Q 571.866 455.739 575.602 455.026 Q 579.339 454.313 582.862 453.633 Q 586.384 452.953 598.038 452.856 Q 609.692 452.759 619.052 452.914 Q 628.411 453.069 633.408 453.242 Q 638.405 453.415 640.235 453.386 Q 642.064 453.357 648.564 453.218 Q 655.063 453.079 659.366 453.204 Q 663.670 453.329 671.164 453.602 Q 678.658 453.875 682.658 454.057 Q 686.657 454.240 689.575 454.411 Q 692.493 454.582 698.369 454.652 Q 704.245 454.722 709.055 454.753 Q 713.865 454.783 716.835 454.780 Q 719.804 454.776 721.234 454.773 Q 722.665 454.770 723.807 454.746 Q 724.949 454.722 726.524 454.858 Q 728.099 454.994 728.738 455.058 Q 729.377 455.122 731.739 455.222 Q 734.102 455.323 737.154 455.366 Q 740.206 455.410 742.083 455.408 Q 743.961 455.406 745.912 455.407 Q 747.863 455.408 749.800 455.470 Q 751.737 455.532 751.911 455.510 Q 752.085 455.489 760.904 455.455 Q 769.724 455.422 774.517 455.559 Q 779.310 455.697 781.822 455.816 Q 784.333 455.936 787.079 455.875 Q 789.825 455.814 798.868 455.856 Q 807.911 455.898 812.240 456.019 Q 816.569 456.141 818.716 456.078 Q 820.864 456.015 822.461 456.556 Q 824.058 457.097 829.985 457.413 Q 835.911 457.730 840.717 457.384 Q 845.523 457.038 848.694 456.824 Q 851.864 456.609 853.128 456.643 Q 854.391 456.678 855.408 456.667 Q 856.425 456.656 857.135 456.677 Q 857.845 456.697 858.937 456.587 Q 860.030 456.476 865.108 456.964 Q 870.187 457.451 873.056 457.704 Q 875.926 457.956 877.709 458.005 Q 879.492 458.053 880.775 458.086 Q 882.057 458.119 882.454 458.120 Q 882.851 458.121 887.837 458.085 Q 892.824 458.048 901.646 458.046 Q 910.469 458.044 919.253 457.986 Q 928.037 457.928 932.244 457.878 Q 936.450 457.828 938.336 457.845 Q 940.222 457.862 940.774 457.839 Q 941.325 457.817 942.748 457.852 Q 944.172 457.887 947.431 457.877 Q 950.690 457.868 953.529 457.652 Q 956.368 457.436 957.228 457.362 Q 958.089 457.289 962.817 457.295 Q 967.544 457.302 969.857 457.301 Q 972.170 457.299 974.004 457.300 Q 975.837 457.300 977.132 457.300 Q 978.427 457.300 979.317 457.300 Q 980.207 457.300 980.776 457.316 Q 981.346 457.332 981.237 457.352 Q 981.129 457.373 981.914 457.254 Q 982.698 457.135 984.345 457.652 Q 985.992 458.168 988.049 458.830 Q 986.264 458.711 986.787 458.703 Q 985.083 457.841 982.630 455.655 Q 980.177 453.469 979.031 452.438 Q 977.886 451.407 976.940 450.608 Q 975.995 449.809 975.387 449.384 Q 974.779 448.960 974.055 448.260 Q 973.330 447.561 970.892 446.147 Q 968.454 444.734 965.532 444.204 Q 966.416 446.936 966.241 445.980 Q 966.615 446.634 971.760 448.924 Q 976.905 451.213 979.763 453.503 Q 982.622 455.792 983.040 456.252 Q 983.458 456.713 984.566 457.928 Q 985.674 459.143 986.234 460.871 Q 985.197 461.073 985.298 461.041 Q 983.948 459.333 966.950 474.456 Q 967.267 474.308 967.988 472.644 Q 968.708 470.980 968.935 470.480 "></path>
    <path id="STROKE_b1a4c1c5-cb91-4221-933f-d61d2f7e145a" opacity="1.000" fill="none" stroke="#009ef1" stroke-width="1.200" stroke-opacity="1.000" stroke-linecap="round" stroke-linejoin="round" d="M 302.730 351.495 Q 303.188 350.589 308.838 354.466 Q 314.487 358.342 321.538 361.733 Q 328.589 365.124 333.926 366.874 Q 339.262 368.624 344.449 370.132 Q 349.635 371.640 352.537 372.709 Q 355.439 373.778 365.864 376.085 Q 376.288 378.392 386.549 379.349 Q 396.811 380.307 404.281 380.229 Q 411.751 380.150 415.986 379.840 Q 420.220 379.531 430.583 377.919 Q 440.946 376.308 460.543 370.972 Q 480.140 365.635 490.867 362.171 Q 501.594 358.708 508.731 356.256 Q 515.868 353.804 521.644 351.724 Q 527.421 349.644 530.182 348.604 Q 532.944 347.564 545.098 342.985 Q 557.251 338.406 574.160 331.454 Q 591.069 324.502 600.211 320.388 Q 609.352 316.275 615.482 313.493 Q 621.612 310.711 636.777 303.492 Q 651.943 296.273 660.378 291.912 Q 668.814 287.551 673.196 285.046 Q 677.579 282.542 680.006 281.280 Q 682.433 280.018 692.789 274.021 Q 703.145 268.023 711.084 262.989 Q 719.024 257.955 729.008 251.144 Q 738.992 244.333 744.309 240.597 Q 749.626 236.862 760.273 229.196 Q 770.921 221.530 783.496 210.539 Q 796.072 199.549 802.147 194.063 Q 808.221 188.577 817.636 178.990 Q 827.051 169.404 832.453 163.665 Q 837.855 157.927 840.768 154.400 Q 843.680 150.872 844.984 149.158 Q 846.288 147.445 849.400 142.832 Q 852.512 138.220 854.578 133.657 Q 856.644 129.094 855.869 124.197 Q 855.925 124.240 856.322 124.367 Q 856.430 124.186 856.409 124.232 Q 856.387 124.279 856.387 124.259 Q 856.388 124.240 856.622 124.468 Q 856.855 124.696 850.513 128.220 Q 844.171 131.743 831.026 140.800 Q 832.896 140.884 835.580 139.245 Q 838.265 137.606 843.443 132.648 Q 848.620 127.690 852.109 124.136 Q 855.599 120.582 858.392 118.585 Q 858.852 117.756 857.985 123.101 Q 857.117 128.445 858.482 134.862 Q 859.846 141.279 864.887 148.560 Q 864.887 148.517 864.433 147.390 Q 864.390 147.390 864.305 147.220 L 864.263 147.220 Q 864.263 147.167 864.171 146.785 Q 864.078 146.402 863.894 146.136 "></path>
    <path id="STROKE_43df0b2c-3f73-4472-8156-76650a363e72" opacity="1.000" fill="none" stroke="#000000" stroke-width="1.200" stroke-opacity="1.000" stroke-linecap="round" stroke-linejoin="round" d="M 517.674 280.512 Q 518.236 281.826 518.014 281.554 Q 518.683 281.164 517.476 291.675 Q 516.270 302.186 516.057 302.813 "></path>
    <path id="STROKE_6a30f69f-8c89-47f4-84de-2d1b8fa614ac" opacity="1.000" fill="none" stroke="#000000" stroke-width="1.200" stroke-opacity="1.000" stroke-linecap="round" stroke-linejoin="round" d="M 517.475 314.824 Q 517.504 313.117 517.426 318.865 Q 517.348 324.614 517.305 324.837 "></path>
    <path id="STROKE_ef6224b2-a901-4bc3-9407-2391be99febe" opacity="1.000" fill="none" stroke="#000000" stroke-width="1.200" stroke-opacity="1.000" stroke-linecap="round" stroke-linejoin="round" d="M 517.475 339.378 Q 517.631 339.126 517.369 344.936 Q 517.106 350.745 516.327 354.405 Q 515.547 358.064 515.320 358.426 "></path>
    <path id="STROKE_f8010858-00a9-4199-9e5a-ea643b963da9" opacity="1.000" fill="none" stroke="#000000" stroke-width="1.200" stroke-opacity="1.000" stroke-linecap="round" stroke-linejoin="round" d="M 516.681 375.029 Q 516.973 375.188 516.281 381.497 Q 515.589 387.805 515.405 388.124 "></path>
    <path id="STROKE_fdcd02f6-739d-4625-94ad-549d8acc8544" opacity="1.000" fill="none" stroke="#000000" stroke-width="1.200" stroke-opacity="1.000" stroke-linecap="round" stroke-linejoin="round" d="M 517.674 405.556 Q 517.640 404.450 517.472 413.645 Q 517.305 422.839 517.305 423.243 "></path>
    <path id="STROKE_674bb878-74ae-4520-aa30-cce78435b7ed" opacity="1.000" fill="none" stroke="#000000" stroke-width="1.200" stroke-opacity="1.000" stroke-linecap="round" stroke-linejoin="round" d="M 518.836 436.509 Q 518.884 434.097 518.818 441.106 Q 518.751 448.116 518.666 448.520 "></path>
    <path id="STROKE_8ec86739-e888-4be8-ac49-6761b5ea5729" opacity="1.000" fill="none" stroke="#000000" stroke-width="1.200" stroke-opacity="1.000" stroke-linecap="round" stroke-linejoin="round" d="M 519.744 464.400 Q 519.989 464.294 519.420 470.783 Q 518.851 477.272 518.581 477.496 "></path>
    <path id="STROKE_8a4fb441-eadb-49f9-b8a3-ed2202421f3c" opacity="1.000" fill="none" stroke="#000000" stroke-width="1.200" stroke-opacity="1.000" stroke-linecap="round" stroke-linejoin="round" d="M 779.369 202.599 Q 779.328 202.980 779.381 202.557 Q 779.433 202.135 779.299 203.350 Q 779.165 204.566 779.072 205.288 Q 778.978 206.010 778.991 206.451 Q 779.004 206.891 778.999 206.829 Q 778.995 206.767 779.091 206.829 Q 779.186 206.891 778.810 211.383 Q 778.433 215.875 778.206 216.417 "></path>
    <path id="STROKE_d6e4b592-c4f3-441b-ad04-43b5cc5e1889" opacity="1.000" fill="none" stroke="#000000" stroke-width="1.200" stroke-opacity="1.000" stroke-linecap="round" stroke-linejoin="round" d="M 777.384 234.657 Q 777.082 232.679 777.843 240.460 Q 778.603 248.242 778.745 248.646 "></path>
    <path id="STROKE_0438dcd2-4ab2-4f27-8625-7a94e84674fc" opacity="1.000" fill="none" stroke="#000000" stroke-width="1.200" stroke-opacity="1.000" stroke-linecap="round" stroke-linejoin="round" d="M 779.284 275.283 Q 779.284 276.639 779.284 276.590 Q 779.234 278.334 779.344 277.036 Q 779.454 275.738 779.050 281.378 Q 778.646 287.018 778.461 287.294 "></path>
    <path id="STROKE_bfb729ce-97cd-40a2-9589-64750084251e" opacity="1.000" fill="none" stroke="#000000" stroke-width="1.200" stroke-opacity="1.000" stroke-linecap="round" stroke-linejoin="round" d="M 779.284 309.127 Q 779.284 310.506 779.284 310.434 Q 779.284 312.222 779.284 311.975 Q 779.183 311.372 778.914 316.685 Q 778.646 321.999 778.461 322.222 "></path>
    <path id="STROKE_6e2653b3-b5fd-4585-993c-4701a82066b8" opacity="1.000" fill="none" stroke="#000000" stroke-width="1.200" stroke-opacity="1.000" stroke-linecap="round" stroke-linejoin="round" d="M 779.652 344.884 Q 779.670 346.303 779.643 347.460 Q 779.616 348.617 779.762 353.883 Q 779.907 359.148 779.907 359.510 "></path>
    <path id="STROKE_0931f504-2834-43fe-b4b3-9905fde8f331" opacity="1.000" fill="none" stroke="#000000" stroke-width="1.200" stroke-opacity="1.000" stroke-linecap="round" stroke-linejoin="round" d="M 779.822 370.607 Q 780.032 371.028 779.658 378.672 Q 779.284 386.317 779.113 386.678 "></path>
    <path id="STROKE_113ff67d-1ba9-47c8-b4d2-97418eeecfac" opacity="1.000" fill="none" stroke="#000000" stroke-width="1.200" stroke-opacity="1.000" stroke-linecap="round" stroke-linejoin="round" d="M 780.191 405.195 Q 780.076 403.544 780.176 413.032 Q 780.276 422.521 780.106 422.882 "></path>
    <path id="STROKE_f924ba28-4e2c-4ad7-9e4a-deb128af837b" opacity="1.000" fill="none" stroke="#000000" stroke-width="1.200" stroke-opacity="1.000" stroke-linecap="round" stroke-linejoin="round" d="M 779.907 443.907 Q 780.050 445.305 779.993 445.087 Q 779.993 446.727 779.993 446.298 Q 779.993 447.926 779.993 447.574 Q 779.993 448.979 779.993 448.924 Q 780.165 450.477 780.157 450.399 Q 780.149 450.322 780.149 450.316 Q 780.214 450.972 780.255 451.551 Q 780.296 452.129 780.278 452.030 Q 780.261 451.931 780.300 452.270 Q 780.340 452.610 780.353 453.036 Q 780.365 453.463 780.403 454.074 Q 780.441 454.684 780.449 454.289 Q 780.457 453.894 780.431 456.282 Q 780.404 458.671 780.361 459.086 "></path>
    <path id="STROKE_585ac0b4-fe67-43a3-a4cc-5166b3038073" opacity="1.000" fill="none" stroke="#000000" stroke-width="1.200" stroke-opacity="1.000" stroke-linecap="round" stroke-linejoin="round" d="M 780.446 469.736 Q 780.840 470.016 780.989 470.499 Q 781.139 470.983 781.099 470.863 Q 781.382 472.050 781.311 471.809 Q 781.272 470.870 781.355 472.195 Q 781.439 473.520 781.524 473.797 "></path>
    <path id="STROKE_b5f8241a-831f-47f0-bd1e-fee98cd25a38" opacity="1.000" fill="none" stroke="#000000" stroke-width="1.200" stroke-opacity="1.000" stroke-linecap="round" stroke-linejoin="round" d="M 523.714 507.279 Q 523.535 506.991 523.064 506.482 Q 522.593 505.973 522.482 505.947 Q 522.371 505.922 522.526 506.004 Q 522.681 506.085 522.580 505.951 Q 522.479 505.816 520.956 505.505 Q 519.432 505.193 519.010 505.690 Q 518.589 506.186 517.975 506.877 Q 517.361 507.567 516.908 508.409 Q 516.455 509.251 515.902 510.114 Q 515.350 510.977 514.245 513.387 Q 513.140 515.797 513.888 520.513 Q 514.846 520.370 514.545 520.512 Q 514.245 520.653 515.302 520.564 Q 516.358 520.475 517.900 517.630 Q 519.442 514.784 520.629 512.490 Q 521.815 510.196 523.714 507.109 Q 523.952 505.841 523.761 510.006 Q 523.570 514.171 523.577 516.464 Q 523.585 518.758 524.236 520.090 Q 524.886 521.423 526.524 521.984 Q 528.162 522.546 529.469 522.114 Q 530.776 521.682 531.371 521.182 "></path>
    <path id="STROKE_5e4e1be0-2d63-40bf-b739-b892a2d5b3e3" opacity="1.000" fill="none" stroke="#000000" stroke-width="1.200" stroke-opacity="1.000" stroke-linecap="round" stroke-linejoin="round" d="M 778.376 498.350 Q 778.357 498.507 780.191 497.713 Q 780.209 496.824 777.384 518.652 Q 777.361 518.514 778.990 514.975 Q 780.618 511.437 781.858 509.963 Q 783.098 508.490 784.303 507.781 Q 785.507 507.072 786.457 507.522 Q 787.407 507.972 788.219 510.850 Q 789.031 513.728 789.150 515.827 Q 789.268 517.926 788.508 519.128 Q 787.748 520.331 784.808 521.048 Q 781.869 521.765 779.151 519.491 Q 776.434 517.218 775.937 516.675 "></path>
    <path id="STROKE_e9ce1aef-3423-436c-b2e1-c708ba2b3b69" opacity="1.000" fill="none" stroke="#009ef1" stroke-width="1.200" stroke-opacity="1.000" stroke-linecap="round" stroke-linejoin="round" d="M 907.295 114.312 Q 907.093 114.173 906.506 113.023 Q 905.919 111.873 904.996 110.546 Q 904.072 109.218 902.389 108.901 Q 901.739 108.734 900.637 115.850 Q 899.535 122.966 899.129 126.722 Q 898.724 130.479 898.261 131.907 Q 897.799 133.336 897.373 133.905 Q 896.947 134.474 896.323 134.743 Q 895.698 135.013 895.550 134.987 Q 895.402 134.962 894.820 134.085 Q 894.239 133.207 893.744 132.042 Q 893.249 130.878 892.708 129.865 Q 892.166 128.853 891.726 128.130 "></path>
    <path id="STROKE_a6d4fbae-ff4c-46f8-9d53-4da447f78318" opacity="1.000" fill="none" stroke="#009ef1" stroke-width="1.200" stroke-opacity="1.000" stroke-linecap="round" stroke-linejoin="round" d="M 892.151 121.093 Q 892.840 120.909 898.388 120.592 Q 903.935 120.275 904.431 120.179 "></path>
    <path id="STROKE_cd49754d-0b14-49d6-ab8b-65bb33d9606f" opacity="1.000" fill="none" stroke="#009ef1" stroke-width="1.200" stroke-opacity="1.000" stroke-linecap="round" stroke-linejoin="round" d="M 918.553 113.057 Q 916.550 114.372 916.788 114.266 Q 917.026 114.159 916.615 114.815 Q 916.203 115.472 916.154 115.245 Q 916.104 115.017 913.615 119.614 Q 911.126 124.210 911.435 135.485 Q 911.847 135.624 912.173 135.719 "></path>
    <path id="STROKE_13a9e41b-5b82-49ad-8d20-ea590ca627c5" opacity="1.000" fill="none" stroke="#009ef1" stroke-width="1.200" stroke-opacity="1.000" stroke-linecap="round" stroke-linejoin="round" d="M 916.937 122.263 Q 917.173 122.227 918.185 121.902 Q 919.197 121.578 918.937 121.681 Q 918.678 121.784 918.771 121.749 Q 918.864 121.714 919.651 121.756 Q 920.438 121.797 920.492 121.985 Q 920.546 122.173 920.541 121.938 Q 920.536 121.703 920.656 121.977 Q 920.776 122.251 921.043 124.139 Q 921.309 126.027 921.181 127.009 Q 921.052 127.991 919.745 131.383 Q 921.163 129.177 927.203 119.818 Q 926.840 121.206 926.721 121.178 Q 926.257 121.367 925.765 123.701 Q 925.274 126.036 925.186 127.589 Q 925.099 129.141 925.709 129.893 Q 926.319 130.646 927.792 130.611 Q 929.265 130.577 930.189 130.001 Q 931.112 129.425 931.660 128.730 Q 932.208 128.034 932.705 127.492 "></path>
    <path id="STROKE_f52589e3-ed63-4df0-9d66-1d179737083f" opacity="1.000" fill="none" stroke="#009ef1" stroke-width="1.200" stroke-opacity="1.000" stroke-linecap="round" stroke-linejoin="round" d="M 934.321 115.226 Q 933.622 116.058 933.354 116.392 Q 933.086 116.726 933.306 117.925 Q 933.526 119.124 934.023 120.065 Q 934.520 121.006 934.618 121.322 Q 934.715 121.638 935.445 122.871 Q 936.176 124.103 937.148 127.505 Q 938.120 130.907 936.540 134.461 Q 934.959 138.015 934.520 138.419 "></path>
    <path id="STROKE_e8659659-4c1d-425d-b6e1-dbd4db81b322" opacity="1.000" fill="none" stroke="#71c047" stroke-width="1.200" stroke-opacity="1.000" stroke-linecap="round" stroke-linejoin="round" d="M 571.340 333.939 Q 571.340 333.838 571.340 332.951 Q 571.340 333.867 571.340 333.711 Q 571.325 335.178 571.315 334.859 Q 571.090 335.397 570.312 345.106 Q 569.535 354.815 569.264 359.970 Q 568.993 365.125 568.946 370.484 Q 568.898 375.843 569.028 379.450 Q 569.158 383.056 569.260 384.304 Q 569.362 385.552 569.540 388.203 Q 569.719 390.854 570.043 394.835 Q 570.367 398.817 570.497 401.099 Q 570.627 403.381 570.843 406.106 Q 571.059 408.832 571.268 410.685 Q 571.476 412.538 571.548 413.589 Q 571.619 414.639 571.632 418.557 Q 571.644 422.474 571.650 425.277 Q 571.657 428.079 571.745 430.774 Q 571.833 433.469 572.005 435.531 Q 572.178 437.593 572.300 439.482 Q 572.421 441.371 572.482 445.546 Q 572.542 449.720 572.230 455.211 Q 572.205 455.211 572.180 455.211 Q 572.180 454.147 572.180 454.371 Q 572.141 453.323 572.168 448.641 Q 572.195 443.959 572.222 435.990 Q 572.249 428.020 572.113 424.011 Q 571.976 420.002 571.735 413.748 Q 571.494 407.494 571.562 399.913 Q 571.630 392.332 571.700 388.625 Q 571.770 384.918 571.422 382.502 Q 571.073 380.087 570.877 376.683 Q 570.681 373.278 570.774 371.395 Q 570.867 369.512 570.674 362.003 Q 570.482 354.495 570.226 350.035 Q 569.969 345.574 570.118 343.400 Q 570.267 341.227 570.391 339.172 Q 570.515 337.117 571.315 334.730 L 571.340 334.730 Q 571.340 335.343 571.340 335.279 Q 571.340 336.176 571.340 336.014 Q 571.279 336.046 570.672 351.265 Q 570.066 366.483 569.828 374.588 Q 569.590 382.694 569.359 386.527 Q 569.127 390.361 569.040 392.253 Q 568.953 394.145 568.838 402.589 Q 568.723 411.032 568.817 417.806 Q 568.910 424.579 569.359 428.189 Q 569.809 431.799 570.052 434.783 Q 570.294 437.766 570.671 440.396 Q 571.047 443.026 571.467 446.426 Q 571.888 449.827 572.028 451.311 Q 572.168 452.796 572.493 459.250 L 572.518 459.250 Q 572.519 458.709 572.572 458.297 Q 572.625 457.886 572.707 457.521 "></path>
    <path id="STROKE_dd50378a-ce76-441e-a44f-943f35c8a550" opacity="1.000" fill="none" stroke="#71c047" stroke-width="1.200" stroke-opacity="1.000" stroke-linecap="round" stroke-linejoin="round" d="M 570.450 333.161 Q 570.450 333.161 570.450 333.173 Q 570.450 333.186 570.565 333.235 L 570.565 333.260 Q 570.060 333.199 563.637 332.868 Q 557.215 332.537 551.367 332.889 Q 545.519 333.242 542.656 333.530 Q 539.793 333.818 538.989 333.727 Q 538.185 333.637 535.935 333.559 Q 533.686 333.482 530.851 333.894 Q 528.015 334.306 526.542 334.512 Q 525.069 334.719 524.506 334.647 Q 523.944 334.574 523.034 334.070 Q 522.123 333.565 521.566 333.305 Q 521.010 333.045 520.761 332.863 Q 520.513 332.680 520.575 332.724 Q 520.636 332.767 520.462 332.652 Q 520.289 332.538 520.021 332.460 Q 519.753 332.382 519.373 332.357 Q 518.994 332.333 518.522 332.324 Q 518.051 332.315 518.136 332.319 Q 518.220 332.323 518.061 332.322 Q 517.902 332.320 517.327 332.321 Q 517.171 332.361 523.664 332.358 Q 530.156 332.355 536.758 332.178 Q 543.359 332.001 547.623 332.122 Q 551.887 332.242 554.274 332.274 Q 556.661 332.306 559.242 332.213 Q 561.823 332.120 563.443 332.209 Q 565.062 332.297 566.772 332.494 Q 568.483 332.691 569.435 332.654 Q 570.386 332.618 570.473 332.622 Q 570.559 332.627 570.793 332.603 Q 571.027 332.579 570.951 332.596 Q 570.875 332.613 571.206 332.500 Q 571.536 332.387 573.284 332.710 Q 573.284 332.766 573.177 332.895 Q 573.070 333.025 572.856 333.161 "></path>
    <path id="STROKE_463c4d55-6b1e-4b4d-a54d-bfe7fa36f660" opacity="1.000" fill="none" stroke="#71c047" stroke-width="1.200" stroke-opacity="1.000" stroke-linecap="round" stroke-linejoin="round" d="M 517.739 332.630 Q 517.764 332.630 518.241 332.710 Q 517.797 332.678 519.140 336.923 Q 520.483 341.168 520.739 356.616 Q 520.995 372.064 521.012 380.928 Q 521.029 389.791 520.990 393.650 Q 520.952 397.508 521.101 399.084 Q 521.250 400.660 521.108 408.832 Q 520.966 417.003 520.521 421.656 Q 520.076 426.308 519.917 429.207 Q 519.758 432.106 519.697 433.946 Q 519.635 435.786 519.573 438.361 Q 519.510 440.935 519.477 445.241 Q 519.445 449.547 518.991 453.272 Q 518.799 452.912 519.414 442.758 Q 520.029 432.604 519.828 422.304 Q 519.628 412.005 519.261 407.020 Q 518.894 402.034 518.882 396.127 Q 518.871 390.221 519.001 386.383 Q 519.132 382.546 519.695 374.772 Q 520.258 366.999 520.067 360.408 Q 519.877 353.817 519.578 350.725 Q 519.280 347.634 519.648 343.871 Q 520.016 340.109 520.057 337.687 Q 520.099 335.265 520.154 333.909 Q 520.209 332.554 520.426 331.906 Q 520.644 331.257 520.721 331.271 Q 520.782 330.963 520.112 337.515 Q 519.442 344.068 519.240 347.893 Q 519.038 351.718 518.996 356.331 Q 518.953 360.943 518.976 363.426 Q 519.000 365.908 519.017 381.818 Q 519.034 397.729 518.914 406.268 Q 518.794 414.807 518.649 422.841 Q 518.503 430.876 518.521 435.579 Q 518.539 440.281 518.530 455.372 Q 518.602 455.552 518.698 454.557 Q 518.793 453.562 518.843 453.013 "></path>
    <path id="STROKE_7cbd1acf-41d1-4542-a69e-849697d3d24d" opacity="1.000" fill="none" stroke="#71c047" stroke-width="1.200" stroke-opacity="1.000" stroke-linecap="round" stroke-linejoin="round" d="M 623.161 310.705 Q 623.161 310.680 623.161 310.495 Q 623.137 310.495 623.112 310.495 Q 623.047 311.589 622.750 316.963 Q 622.452 322.337 622.096 326.378 Q 621.741 330.419 621.667 331.681 Q 621.594 332.943 621.575 335.542 Q 621.557 338.142 621.516 339.992 Q 621.475 341.842 621.573 350.571 Q 621.670 359.299 621.767 367.524 Q 621.863 375.749 621.941 379.876 Q 622.019 384.003 621.874 386.059 Q 621.729 388.115 621.695 391.128 Q 621.660 394.140 621.610 395.681 Q 621.559 397.221 621.535 399.474 Q 621.510 401.727 621.512 403.772 Q 621.513 405.817 621.491 409.010 Q 621.469 412.203 621.471 417.981 Q 621.473 423.758 621.592 426.666 Q 621.712 429.574 621.719 433.059 Q 621.725 436.543 621.683 440.372 Q 621.640 444.201 621.719 446.437 Q 621.798 448.673 621.968 449.736 Q 622.138 450.799 622.239 451.326 Q 622.339 451.852 622.385 452.196 Q 622.430 452.540 622.412 452.449 Q 622.395 452.359 622.440 452.572 Q 622.485 452.785 622.585 453.643 Q 622.585 452.624 622.585 452.827 Q 622.585 451.832 622.585 452.012 Q 622.708 451.569 622.404 437.625 Q 622.099 423.682 622.007 415.102 Q 621.915 406.522 622.114 401.998 Q 622.312 397.474 622.507 395.489 Q 622.702 393.503 622.944 391.783 Q 623.187 390.062 623.255 383.015 Q 623.323 375.968 623.358 372.158 Q 623.394 368.348 623.000 366.389 Q 622.606 364.430 622.367 358.119 Q 622.128 351.809 622.304 347.273 Q 622.480 342.737 622.542 340.512 Q 622.604 338.287 622.567 335.625 Q 622.529 332.964 622.663 329.468 Q 622.796 325.972 622.814 323.639 Q 622.832 321.306 622.800 319.830 Q 622.768 318.354 622.636 316.709 Q 622.503 315.065 622.659 312.457 Q 622.814 309.850 623.639 307.456 Q 623.668 306.449 623.625 308.144 Q 623.582 309.840 623.524 309.976 "></path>
    <path id="STROKE_20485d5a-5c19-4510-86fb-3fa7624923ba" opacity="1.000" fill="none" stroke="#71c047" stroke-width="1.200" stroke-opacity="1.000" stroke-linecap="round" stroke-linejoin="round" d="M 623.474 307.765 Q 623.415 307.884 623.389 307.797 Q 623.364 307.710 623.334 307.677 Q 623.305 307.645 622.947 306.925 Q 622.254 306.947 622.641 306.705 Q 623.029 306.463 620.258 307.629 Q 617.488 308.796 615.854 309.442 Q 614.220 310.089 613.273 310.206 Q 612.327 310.323 611.775 310.304 Q 611.224 310.284 609.959 310.405 Q 608.694 310.526 605.590 310.030 Q 602.485 309.535 600.377 308.807 Q 598.269 308.079 594.839 308.319 Q 591.409 308.559 590.021 308.860 Q 588.632 309.161 586.480 309.217 Q 584.328 309.273 582.520 309.399 Q 580.712 309.526 579.153 308.945 Q 577.593 308.364 576.507 308.090 Q 575.420 307.817 574.691 308.043 Q 573.962 308.269 573.621 308.353 Q 573.281 308.438 572.444 308.766 Q 572.444 308.790 572.444 308.815 Q 572.299 308.870 578.369 308.636 Q 584.438 308.402 591.433 307.816 Q 598.429 307.229 601.764 307.080 Q 605.100 306.930 606.728 306.894 Q 608.355 306.859 609.728 307.237 Q 611.101 307.616 612.626 308.215 Q 614.151 308.814 615.834 308.705 Q 617.517 308.596 618.795 308.325 Q 620.073 308.055 620.546 307.988 Q 621.019 307.920 621.428 307.732 Q 621.837 307.544 623.450 307.530 Q 623.560 307.700 623.903 308.272 Q 622.929 308.314 623.268 308.296 Q 622.206 308.607 622.510 308.531 Q 622.255 308.605 622.045 308.710 Q 621.835 308.815 621.547 308.976 "></path>
    <path id="STROKE_a8110000-ba2c-4483-9f5b-52c598dd8f66" opacity="1.000" fill="none" stroke="#71c047" stroke-width="1.200" stroke-opacity="1.000" stroke-linecap="round" stroke-linejoin="round" d="M 570.763 309.704 Q 570.763 308.813 570.763 309.081 Q 570.763 308.976 570.763 308.556 Q 570.763 309.602 570.763 309.525 Q 570.761 309.959 571.143 314.626 Q 571.525 319.293 571.666 322.242 Q 571.808 325.191 571.768 333.840 Q 571.062 333.590 571.290 333.575 Q 571.207 332.582 571.241 332.815 Q 571.241 331.669 571.241 331.870 Q 571.183 331.347 571.389 311.384 Q 572.310 311.492 572.123 311.471 Q 572.337 311.495 572.493 311.548 Q 572.650 311.600 572.856 311.705 "></path>
    <path id="STROKE_d93ded18-bc66-4750-87cc-bea4a3584c7d" opacity="1.000" fill="none" stroke="#71c047" stroke-width="1.200" stroke-opacity="1.000" stroke-linecap="round" stroke-linejoin="round" d="M 676.136 285.371 Q 675.883 284.985 675.668 284.754 Q 675.454 284.523 675.560 284.611 Q 675.535 284.556 675.461 284.531 Q 675.355 284.325 675.592 290.485 Q 675.828 296.646 675.861 302.040 Q 675.894 307.434 675.954 310.480 Q 676.014 313.527 676.153 315.552 Q 676.291 317.577 676.529 323.089 Q 676.767 328.602 676.219 339.188 Q 675.672 349.773 675.580 355.263 Q 675.489 360.753 675.481 363.178 Q 675.472 365.603 675.485 367.927 Q 675.499 370.252 675.549 378.742 Q 675.600 387.232 675.436 392.774 Q 675.272 398.316 675.080 401.412 Q 674.888 404.509 674.917 406.024 Q 674.946 407.540 674.939 415.072 Q 674.931 422.605 674.928 426.632 Q 674.925 430.658 674.949 432.909 Q 674.974 435.160 674.998 434.783 Q 675.022 434.406 675.411 454.791 Q 675.402 454.678 675.339 454.142 Q 675.276 453.605 675.290 453.694 Q 675.303 453.783 675.296 453.706 Q 675.290 453.629 675.317 452.823 Q 675.344 452.016 675.239 443.464 Q 675.133 434.912 675.145 429.903 Q 675.157 424.894 675.081 421.714 Q 675.006 418.533 675.083 412.198 Q 675.160 405.863 675.625 400.180 Q 676.090 394.498 676.095 391.845 Q 676.100 389.193 676.123 388.340 Q 676.147 387.487 676.220 385.149 Q 676.294 382.812 676.572 378.256 Q 676.849 373.701 676.899 371.136 Q 676.949 368.572 676.952 366.866 Q 676.955 365.161 676.886 359.308 Q 676.817 353.454 676.823 345.104 Q 676.829 336.753 676.808 332.581 Q 676.787 328.409 677.119 325.414 Q 677.450 322.419 677.551 319.790 Q 677.653 317.160 677.109 314.522 Q 676.565 311.885 676.331 308.955 Q 676.098 306.026 676.170 303.632 Q 676.243 301.237 676.195 298.483 Q 676.147 295.729 676.175 294.361 Q 676.202 292.993 676.422 291.971 Q 676.642 290.948 676.918 289.786 Q 677.195 288.624 677.176 288.724 Q 677.158 288.825 677.198 288.223 Q 677.237 287.621 677.285 286.857 Q 677.332 286.093 676.977 283.691 Q 676.977 283.771 677.162 284.151 Q 677.347 284.531 677.504 284.741 "></path>
    <path id="STROKE_c0c94821-b328-41f2-9804-91117a547ff3" opacity="1.000" fill="none" stroke="#71c047" stroke-width="1.200" stroke-opacity="1.000" stroke-linecap="round" stroke-linejoin="round" d="M 674.258 285.272 Q 673.917 284.125 674.019 284.531 Q 673.163 283.672 673.151 283.712 Q 673.140 283.752 673.154 283.747 Q 671.886 283.402 672.395 283.496 Q 672.904 283.590 671.008 283.323 Q 669.112 283.056 667.025 282.731 Q 664.938 282.406 660.863 282.703 Q 656.788 283.000 653.134 283.376 Q 649.481 283.752 646.682 283.846 Q 643.882 283.939 640.736 284.314 Q 637.589 284.688 635.687 284.713 Q 633.785 284.737 632.755 284.651 Q 631.724 284.564 631.232 284.364 Q 630.741 284.165 630.384 284.066 Q 630.027 283.968 629.707 283.897 Q 629.387 283.826 629.736 283.867 Q 630.084 283.908 628.924 283.749 Q 627.764 283.591 626.771 283.432 Q 625.777 283.274 625.308 283.099 Q 624.838 282.924 624.423 282.825 Q 624.007 282.725 624.004 282.759 Q 624.001 282.793 624.165 282.703 Q 624.329 282.612 622.898 283.086 Q 623.325 283.492 623.326 283.382 Q 623.721 283.519 630.123 283.456 Q 636.525 283.394 639.814 283.167 Q 643.104 282.941 646.245 282.925 Q 649.386 282.910 652.040 283.030 Q 654.693 283.151 656.345 283.206 Q 657.996 283.261 657.846 283.304 Q 657.697 283.348 660.336 283.411 Q 662.974 283.474 664.741 282.993 Q 666.507 282.512 668.522 282.133 Q 670.538 281.755 671.580 281.830 Q 672.622 281.905 673.753 281.889 Q 674.884 281.874 675.540 281.787 Q 676.196 281.699 676.609 281.713 Q 677.021 281.726 677.471 281.881 Q 677.922 282.036 678.006 282.147 Q 678.090 282.258 677.887 282.114 Q 677.684 281.970 678.970 282.851 Q 678.756 282.876 678.542 282.901 "></path>
    <path id="STROKE_bbc91038-c3db-4d7c-ab22-2f1edb6c7fc1" opacity="1.000" fill="none" stroke="#71c047" stroke-width="1.200" stroke-opacity="1.000" stroke-linecap="round" stroke-linejoin="round" d="M 623.376 284.642 Q 623.376 285.678 623.376 285.451 Q 623.376 286.544 623.376 286.211 Q 623.391 286.798 623.451 292.725 Q 623.511 298.651 623.521 302.143 Q 623.532 305.635 623.526 307.084 Q 623.521 308.533 623.523 309.746 Q 623.525 310.960 623.522 311.885 Q 623.519 312.811 623.531 312.849 Q 623.543 312.887 623.474 313.534 Q 623.450 313.534 623.425 313.534 Q 623.352 312.437 623.306 309.241 Q 623.261 306.045 623.734 297.558 Q 624.208 289.070 624.315 288.990 "></path>
    <path id="STROKE_ab4956e1-5b67-4f54-9521-60ad356b0055" opacity="1.000" fill="none" stroke="#71c047" stroke-width="1.200" stroke-opacity="1.000" stroke-linecap="round" stroke-linejoin="round" d="M 727.546 252.490 Q 726.931 252.803 726.840 252.860 Q 726.749 252.917 726.780 252.897 Q 726.637 254.387 726.649 254.078 Q 726.661 253.769 726.642 254.008 Q 726.623 254.246 727.103 255.066 Q 727.583 255.885 728.353 259.210 Q 729.124 262.534 729.058 268.053 Q 728.992 273.572 728.592 276.367 Q 728.193 279.163 728.031 289.462 Q 727.869 299.762 727.785 305.064 Q 727.702 310.365 727.558 313.889 Q 727.415 317.413 727.432 319.492 Q 727.450 321.571 727.407 322.971 Q 727.364 324.371 727.387 335.056 Q 727.409 345.740 727.380 353.231 Q 727.350 360.722 727.356 366.831 Q 727.362 372.940 727.500 376.833 Q 727.638 380.726 727.664 388.258 Q 727.691 395.791 727.602 405.168 Q 727.513 414.544 727.536 419.505 Q 727.558 424.467 727.550 428.338 Q 727.541 432.210 727.544 434.586 Q 727.548 436.962 727.558 441.023 Q 727.569 445.084 727.563 446.963 Q 727.557 448.842 727.512 451.695 Q 727.467 454.548 727.793 457.731 Q 727.793 456.649 727.793 456.860 Q 727.788 455.961 727.814 451.058 Q 727.839 446.155 727.718 440.911 Q 727.597 435.666 727.512 431.109 Q 727.427 426.551 727.435 423.355 Q 727.443 420.159 727.519 416.804 Q 727.595 413.449 727.914 407.750 Q 728.232 402.051 728.508 395.293 Q 728.784 388.535 728.680 384.168 Q 728.575 379.801 728.188 376.112 Q 727.800 372.423 727.613 370.920 Q 727.426 369.416 727.252 365.892 Q 727.077 362.368 727.044 355.616 Q 727.010 348.864 727.101 345.437 Q 727.191 342.010 727.084 339.926 Q 726.977 337.843 726.949 336.544 Q 726.920 335.246 726.867 331.284 Q 726.814 327.323 727.133 318.731 Q 727.452 310.140 727.709 305.938 Q 727.966 301.736 727.919 299.843 Q 727.872 297.950 727.608 295.804 Q 727.344 293.659 727.335 291.955 Q 727.326 290.252 727.198 285.548 Q 727.070 280.844 727.034 275.917 Q 726.999 270.990 727.006 267.642 Q 727.013 264.295 727.014 261.927 Q 727.015 259.559 727.025 258.285 Q 727.036 257.011 727.083 256.516 Q 727.130 256.022 727.091 256.182 Q 727.053 256.343 727.282 254.009 Q 727.307 254.009 727.431 254.034 Q 727.455 254.108 727.509 254.201 Q 727.562 254.293 727.645 254.429 "></path>
    <path id="STROKE_b0567f69-cd07-46a0-af93-74f5427a210b" opacity="1.000" fill="none" stroke="#71c047" stroke-width="1.200" stroke-opacity="1.000" stroke-linecap="round" stroke-linejoin="round" d="M 725.865 252.959 Q 725.129 253.465 725.338 253.293 Q 725.468 253.298 721.352 253.764 Q 717.236 254.230 713.276 254.497 Q 709.316 254.764 705.625 254.563 Q 701.934 254.361 699.530 254.053 Q 697.125 253.744 691.925 253.780 Q 686.725 253.816 683.907 253.818 Q 681.089 253.820 679.991 253.808 Q 678.893 253.796 678.289 254.072 Q 677.684 254.349 676.186 254.503 L 676.186 254.478 Q 676.161 254.478 676.136 254.429 Q 676.025 254.372 675.823 254.157 Q 675.978 253.780 681.073 254.608 Q 686.169 255.436 691.300 255.227 Q 696.432 255.017 698.968 254.628 Q 701.503 254.239 703.089 254.058 Q 704.674 253.877 706.146 253.930 Q 707.618 253.983 708.428 254.105 Q 709.238 254.227 709.752 254.356 Q 710.266 254.486 713.173 254.597 Q 716.079 254.709 717.696 254.601 Q 719.313 254.493 720.480 253.935 Q 721.648 253.376 722.265 253.142 Q 722.882 252.908 723.858 252.693 Q 724.834 252.478 725.337 252.416 Q 725.840 252.354 726.055 252.403 Q 726.269 252.452 726.163 252.406 Q 726.057 252.361 726.539 252.357 Q 727.021 252.353 727.396 252.317 Q 727.770 252.281 728.097 252.452 Q 728.424 252.624 728.306 252.493 Q 728.187 252.363 728.244 252.433 Q 728.300 252.503 728.299 252.501 Q 728.299 252.499 728.274 252.441 Q 728.250 252.382 728.308 252.500 Q 728.366 252.618 728.307 252.445 Q 728.249 252.271 729.062 253.453 Q 728.170 253.691 728.329 253.614 Q 727.908 253.744 727.645 253.849 "></path>
    <path id="STROKE_71866574-85df-488c-9879-9d0e747b0665" opacity="1.000" fill="none" stroke="#71c047" stroke-width="1.200" stroke-opacity="1.000" stroke-linecap="round" stroke-linejoin="round" d="M 674.143 255.627 Q 674.143 256.569 674.143 256.263 Q 674.141 256.242 674.212 256.721 Q 674.283 257.200 674.240 257.110 Q 674.197 257.019 674.234 257.041 Q 674.271 257.063 674.817 262.329 Q 675.362 267.596 675.656 273.352 Q 675.951 279.109 675.924 282.431 Q 675.898 285.754 675.658 288.101 Q 675.556 288.793 675.577 284.402 Q 675.598 280.010 675.276 274.989 Q 674.953 269.969 674.399 266.565 Q 673.845 263.161 673.731 257.356 Q 673.755 257.492 673.780 257.628 "></path>
    <path id="STROKE_d4932575-46b7-4386-a32f-055513c4839c" opacity="1.000" fill="none" stroke="#71c047" stroke-width="1.200" stroke-opacity="1.000" stroke-linecap="round" stroke-linejoin="round" d="M 778.099 215.458 Q 777.379 215.520 777.497 215.508 Q 776.163 215.320 776.616 215.397 Q 775.345 215.397 775.751 215.397 Q 774.828 215.397 774.960 215.397 Q 773.665 215.620 771.137 216.007 Q 768.608 216.394 764.221 216.613 Q 759.833 216.833 757.583 217.006 Q 755.334 217.179 754.373 217.237 Q 753.412 217.294 751.994 217.538 Q 750.576 217.782 748.244 218.130 Q 745.911 218.477 744.695 218.385 Q 743.479 218.293 741.633 217.944 Q 739.788 217.594 736.772 217.657 Q 733.755 217.719 732.085 217.817 Q 730.415 217.914 729.742 218.016 Q 729.070 218.119 728.773 218.106 Q 728.477 218.094 728.081 217.718 Q 727.685 217.342 727.694 217.311 Q 727.669 217.286 727.431 217.286 Q 727.436 216.983 732.305 217.738 Q 737.175 218.494 743.931 218.348 Q 750.687 218.201 754.258 217.950 Q 757.830 217.698 760.110 217.261 Q 762.391 216.823 764.522 216.481 Q 766.654 216.138 768.871 216.084 Q 771.089 216.030 772.076 215.976 Q 773.064 215.923 773.687 216.227 Q 774.311 216.532 774.762 216.575 Q 775.212 216.618 775.287 216.603 Q 775.362 216.588 775.244 216.655 Q 775.126 216.722 777.088 216.759 Q 779.050 216.796 780.135 216.672 Q 781.220 216.548 782.185 216.558 Q 782.339 216.366 782.106 216.789 Q 781.872 217.212 781.658 217.398 "></path>
    <path id="STROKE_a91d72d3-ad5e-4e07-a2aa-18899299397a" opacity="1.000" fill="none" stroke="#71c047" stroke-width="1.200" stroke-opacity="1.000" stroke-linecap="round" stroke-linejoin="round" d="M 726.129 220.955 Q 726.104 220.930 725.915 220.535 Q 726.851 221.641 727.113 228.222 Q 727.375 234.803 727.304 238.940 Q 727.234 243.078 727.310 245.128 Q 727.386 247.178 726.442 254.948 Q 727.054 253.976 727.118 244.996 Q 727.183 236.015 726.867 231.224 Q 726.552 226.433 726.577 224.418 Q 726.602 222.404 726.593 221.506 Q 726.585 220.609 726.590 218.336 Q 726.516 218.312 726.442 218.287 "></path>
    <path id="STROKE_b7760b26-fa73-4972-aa0b-ff4b94bf000f" opacity="1.000" fill="none" stroke="#71c047" stroke-width="1.200" stroke-opacity="1.000" stroke-linecap="round" stroke-linejoin="round" d="M 777.061 216.237 Q 777.061 216.877 777.061 216.681 Q 777.134 217.598 777.135 217.286 Q 777.638 217.427 777.987 221.440 Q 778.335 225.454 778.525 232.817 Q 778.715 240.180 778.905 244.113 Q 779.095 248.047 779.124 249.908 Q 779.153 251.769 779.174 254.817 Q 779.194 257.865 779.215 263.082 Q 779.236 268.299 779.247 271.342 Q 779.259 274.386 779.254 275.940 Q 779.249 277.493 779.263 280.522 Q 779.277 283.550 779.262 289.635 Q 779.247 295.720 779.173 306.589 Q 779.099 317.457 779.138 322.863 Q 779.177 328.270 779.313 333.101 Q 779.449 337.932 779.444 343.713 Q 779.438 349.493 779.460 353.457 Q 779.481 357.422 779.430 359.452 Q 779.379 361.482 779.563 364.886 Q 779.747 368.290 779.861 378.387 Q 779.976 388.484 779.910 394.033 Q 779.844 399.583 779.868 402.027 Q 779.891 404.471 779.888 405.909 Q 779.885 407.347 779.865 409.257 Q 779.846 411.167 779.867 415.590 Q 779.889 420.013 779.969 424.469 Q 780.049 428.924 780.052 431.124 Q 780.055 433.323 779.573 435.927 Q 779.091 438.531 778.901 441.635 Q 778.710 444.738 778.602 446.732 Q 778.494 448.725 778.516 449.669 Q 778.538 450.613 778.530 451.025 Q 778.523 451.437 778.526 451.843 Q 778.529 452.249 778.527 452.797 Q 778.526 453.345 778.527 454.211 Q 778.469 454.242 778.412 454.273 "></path>
    <path id="STROKE_b56488c8-f329-4ac8-933f-f477d795d0a3" opacity="1.000" fill="none" stroke="#71c047" stroke-width="1.200" stroke-opacity="1.000" stroke-linecap="round" stroke-linejoin="round" d="M 777.522 216.916 Q 777.522 216.803 777.522 216.286 Q 777.337 215.947 777.535 231.220 Q 777.733 246.493 778.057 254.522 Q 778.382 262.552 778.409 266.437 Q 778.436 270.322 778.412 272.687 Q 778.388 275.052 778.552 281.820 Q 778.716 288.589 778.901 292.183 Q 779.086 295.778 779.145 298.485 Q 779.205 301.193 779.366 310.244 Q 779.526 319.295 779.553 323.915 Q 779.581 328.535 779.567 330.686 Q 779.552 332.836 779.576 333.908 Q 779.601 334.981 779.530 336.623 Q 779.460 338.264 779.402 341.837 Q 779.345 345.410 779.360 347.081 Q 779.375 348.753 779.370 351.284 Q 779.364 353.816 779.366 361.828 Q 779.369 369.840 779.368 375.108 Q 779.368 380.375 779.378 382.606 Q 779.387 384.837 779.411 388.103 Q 779.436 391.368 779.590 396.837 Q 779.743 402.306 779.962 405.343 Q 780.181 408.380 780.300 409.969 Q 780.419 411.558 780.491 412.723 Q 780.563 413.889 780.689 415.295 Q 780.816 416.701 780.875 417.910 Q 780.934 419.119 780.951 420.165 Q 780.969 421.211 781.014 423.158 Q 781.059 425.105 781.014 427.550 Q 780.970 429.994 780.893 431.047 Q 780.816 432.101 780.304 435.295 Q 779.791 438.489 779.523 440.472 Q 779.255 442.454 778.462 446.501 Q 777.669 450.547 776.747 457.410 Q 776.723 457.410 776.533 457.385 Q 776.470 456.967 776.399 456.061 Q 776.327 455.156 776.220 454.841 "></path>
    <path id="STROKE_4b74bc1c-6782-4b4c-82de-3ad113c984ad" opacity="1.000" fill="none" stroke="#71c047" stroke-width="1.200" stroke-opacity="1.000" stroke-linecap="round" stroke-linejoin="round" d="M 572.444 333.630 Q 572.503 333.587 572.437 333.519 Q 572.370 333.451 572.252 333.289 Q 572.133 333.128 571.818 332.580 Q 570.888 333.019 571.216 332.895 Q 570.735 333.420 570.796 333.315 Q 570.429 333.744 570.450 333.760 Q 570.118 334.396 570.162 334.341 Q 569.914 334.517 569.980 336.385 Q 570.610 336.426 570.532 336.409 Q 571.302 335.942 571.134 335.909 Q 571.611 335.039 571.505 335.174 Q 571.710 334.501 571.745 334.081 Q 571.781 333.661 571.825 333.263 Q 571.870 332.864 571.712 332.677 Q 571.555 332.489 571.436 332.313 Q 571.318 332.137 571.205 332.145 Q 571.091 332.153 571.313 332.131 Q 571.534 332.109 569.873 332.154 Q 569.883 331.903 569.692 333.016 Q 569.500 334.129 569.427 334.866 Q 569.355 335.604 570.141 335.680 Q 570.927 335.756 571.212 335.711 Q 571.497 335.667 571.810 335.345 Q 572.124 335.023 572.397 334.229 Q 572.669 333.436 572.664 333.210 Q 572.659 332.984 572.673 332.570 Q 572.687 332.155 572.527 332.053 Q 572.368 331.951 571.900 331.684 Q 571.432 331.416 570.708 331.696 Q 569.984 331.977 569.829 332.678 Q 569.674 333.380 569.568 334.101 Q 569.463 334.823 569.497 335.039 Q 569.532 335.255 569.535 335.407 Q 569.538 335.559 569.457 335.717 Q 569.377 335.875 569.743 336.471 Q 570.109 337.067 570.650 337.151 Q 571.191 337.235 571.656 337.050 Q 572.122 336.865 572.522 336.424 Q 572.921 335.984 573.190 335.151 Q 573.458 334.318 573.555 333.733 Q 573.653 333.147 573.635 333.126 Q 573.618 333.105 573.595 332.634 Q 573.573 332.162 572.788 331.797 Q 572.002 331.432 571.400 331.366 Q 570.797 331.300 570.167 331.841 Q 569.536 332.382 569.478 332.768 Q 569.421 333.153 569.318 333.797 Q 569.215 334.440 569.213 334.600 Q 569.211 334.761 569.173 335.119 Q 569.135 335.478 569.190 335.930 Q 569.244 336.381 569.415 336.667 Q 569.587 336.952 569.514 336.871 Q 569.441 336.790 569.842 337.026 Q 570.243 337.262 570.923 337.250 Q 571.602 337.239 572.057 337.192 Q 572.513 337.146 573.284 335.965 Q 574.056 334.784 574.246 333.924 Q 574.437 333.065 574.226 332.562 Q 574.016 332.059 573.942 332.105 Q 573.868 332.152 573.269 331.911 Q 572.669 331.671 572.040 332.032 Q 571.410 332.393 571.091 332.815 Q 570.772 333.237 570.520 333.634 Q 570.269 334.031 570.213 334.277 Q 570.157 334.523 570.105 334.553 Q 570.052 334.584 569.881 335.373 Q 569.710 336.162 569.810 336.744 Q 569.910 337.327 570.128 337.545 Q 570.345 337.763 570.609 337.824 Q 570.874 337.885 571.072 337.912 Q 571.271 337.938 571.302 337.916 Q 571.334 337.894 571.977 337.917 Q 572.619 337.941 573.227 337.228 Q 573.834 336.515 573.996 335.604 Q 574.157 334.692 574.259 334.342 Q 574.361 333.992 574.106 333.293 Q 573.851 332.594 573.107 332.392 Q 572.362 332.190 571.679 332.370 Q 570.996 332.549 570.634 332.946 Q 570.272 333.343 570.019 334.530 Q 569.765 335.717 569.786 336.444 Q 569.808 337.171 570.064 337.531 Q 570.321 337.892 570.903 337.913 Q 571.485 337.935 571.911 337.801 Q 572.336 337.667 572.359 337.534 Q 572.382 337.402 572.458 337.440 Q 572.533 337.479 572.924 336.583 Q 573.316 335.687 573.370 334.859 Q 573.425 334.032 573.150 333.671 Q 572.875 333.311 572.445 333.178 Q 572.016 333.046 571.829 333.209 Q 571.643 333.373 571.432 333.471 Q 571.221 333.568 571.287 333.573 Q 571.353 333.577 571.307 333.576 Q 571.262 333.575 571.192 334.359 Q 572.420 334.359 572.048 334.359 Q 573.144 334.306 572.732 334.310 Q 572.782 334.310 572.806 334.260 Q 572.870 334.236 572.600 334.248 Q 572.331 334.261 571.455 336.879 Q 571.455 337.090 571.455 336.737 Q 571.455 336.385 571.455 336.200 "></path>
    <path id="STROKE_7f103902-6fdc-416d-9e3b-5bcdcc4c8d9b" opacity="1.000" fill="none" stroke="#71c047" stroke-width="1.200" stroke-opacity="1.000" stroke-linecap="round" stroke-linejoin="round" d="M 623.903 311.384 Q 623.735 310.460 623.787 310.736 Q 623.745 311.759 623.738 306.481 Q 623.320 306.332 623.022 306.610 Q 622.724 306.888 621.958 307.879 Q 621.193 308.870 620.962 313.904 Q 621.035 313.946 621.611 314.130 Q 622.188 314.314 622.809 313.518 Q 623.430 312.722 623.482 312.348 Q 623.534 311.975 623.558 311.717 Q 623.581 311.460 623.730 310.887 Q 623.878 310.314 623.693 309.629 Q 623.508 308.944 622.934 308.723 Q 622.361 308.502 621.904 308.469 Q 621.446 308.436 621.630 308.441 Q 621.813 308.446 621.447 308.466 Q 621.082 308.486 621.002 308.414 Q 620.922 308.343 620.593 309.560 Q 620.265 310.778 620.380 311.510 Q 620.494 312.242 620.844 312.698 Q 621.193 313.154 621.203 313.018 Q 621.212 312.883 621.344 313.031 Q 621.476 313.179 622.101 313.252 Q 622.725 313.326 623.573 312.623 Q 624.421 311.919 624.661 310.595 Q 624.902 309.271 624.957 308.550 Q 625.013 307.830 624.213 307.389 Q 623.413 306.947 622.754 306.874 Q 622.095 306.800 621.448 306.862 Q 620.801 306.923 620.540 307.208 Q 620.278 307.493 620.292 307.468 Q 620.306 307.443 620.148 307.635 Q 619.990 307.828 619.714 309.432 Q 619.439 311.036 620.489 311.754 Q 621.539 312.472 622.261 312.481 Q 622.982 312.489 623.630 312.070 Q 624.279 311.650 624.578 311.075 Q 624.877 310.500 624.945 310.227 Q 625.012 309.954 625.047 309.588 Q 625.083 309.223 625.112 308.788 Q 625.140 308.353 625.138 308.273 Q 625.137 308.193 624.843 307.990 Q 624.549 307.787 623.779 307.475 Q 623.010 307.164 622.723 307.384 Q 622.435 307.604 622.231 307.923 Q 622.026 308.243 621.874 308.981 Q 621.722 309.719 621.602 311.003 Q 621.482 312.287 621.867 312.741 Q 622.251 313.195 622.117 313.065 Q 621.983 312.934 622.732 313.424 Q 623.480 313.915 624.106 313.400 Q 624.732 312.885 625.026 312.162 Q 625.321 311.440 625.533 310.695 Q 625.744 309.950 625.781 309.338 Q 625.818 308.727 625.605 308.166 Q 625.393 307.606 625.186 307.544 Q 624.978 307.481 624.582 307.369 Q 624.186 307.257 623.703 307.223 Q 623.221 307.190 622.940 307.301 Q 622.658 307.413 622.286 308.370 Q 621.914 309.326 621.924 310.544 Q 621.935 311.761 622.253 312.362 Q 622.571 312.962 623.217 313.003 Q 623.863 313.044 624.530 312.647 Q 625.197 312.251 625.378 311.802 Q 625.559 311.353 625.718 311.375 Q 625.878 311.397 625.699 308.920 Q 625.521 308.849 625.176 308.778 Q 624.832 308.708 624.808 308.728 Q 624.784 308.748 624.782 308.742 Q 624.781 308.736 624.314 308.716 Q 623.846 308.697 623.600 308.959 Q 623.354 309.222 623.378 309.199 Q 623.403 309.176 623.412 309.111 Q 623.421 309.045 623.372 309.134 Q 623.322 309.222 623.275 309.243 Q 623.228 309.265 622.953 309.771 Q 622.679 310.277 622.579 310.535 Q 622.478 310.794 622.535 310.785 L 622.535 310.816 Q 621.930 311.450 623.069 310.621 Q 624.208 309.791 624.414 309.816 "></path>
    <path id="STROKE_d8ff1943-0623-4d6f-8911-4257f9559d4d" opacity="1.000" fill="none" stroke="#71c047" stroke-width="1.200" stroke-opacity="1.000" stroke-linecap="round" stroke-linejoin="round" d="M 677.965 283.432 Q 677.705 282.843 677.829 283.057 Q 677.954 283.270 677.704 282.761 Q 677.454 282.251 677.279 281.955 Q 677.105 281.659 676.408 281.292 Q 675.712 280.924 674.591 281.662 Q 673.470 282.400 672.705 283.548 Q 671.941 284.697 672.346 287.810 Q 672.265 287.721 673.078 288.026 Q 673.892 288.331 674.971 287.549 Q 676.050 286.767 676.273 286.172 Q 676.496 285.577 676.452 285.701 Q 676.407 285.824 676.620 285.324 Q 676.832 284.824 676.892 283.934 Q 676.951 283.043 676.704 282.481 Q 676.457 281.920 675.536 281.709 Q 674.616 281.499 674.130 281.532 Q 673.644 281.565 673.534 281.697 Q 673.423 281.830 672.936 282.259 Q 672.448 282.688 672.301 283.694 Q 672.154 284.701 672.040 285.317 Q 671.926 285.933 672.074 286.205 Q 672.222 286.478 672.723 286.869 Q 673.223 287.260 673.896 287.138 Q 674.570 287.016 675.178 286.615 Q 675.787 286.214 676.106 285.521 Q 676.425 284.828 676.464 284.154 Q 676.503 283.479 676.538 283.199 Q 676.573 282.918 676.102 282.622 Q 675.631 282.325 675.281 282.252 Q 674.931 282.179 674.540 282.180 Q 674.150 282.180 673.988 282.180 Q 673.826 282.180 673.697 282.118 Q 673.567 282.055 672.960 282.891 Q 672.353 283.726 672.318 284.908 Q 672.282 286.089 672.494 286.520 Q 672.706 286.950 673.639 287.133 Q 674.572 287.315 675.487 287.056 Q 676.402 286.797 676.919 285.884 Q 677.437 284.970 677.659 284.353 Q 677.880 283.737 677.739 282.998 Q 677.598 282.260 676.600 282.107 Q 675.603 281.955 675.114 282.014 Q 674.625 282.073 674.132 282.585 Q 673.638 283.097 673.523 284.024 Q 673.409 284.951 673.515 285.910 Q 673.621 286.869 674.372 286.895 Q 675.123 286.920 675.918 286.756 Q 676.714 286.593 677.041 285.246 Q 677.369 283.899 677.344 283.364 Q 677.319 282.830 676.860 282.434 Q 676.402 282.038 676.002 281.951 Q 675.603 281.864 675.074 281.883 Q 674.545 281.902 674.342 282.658 Q 674.139 283.414 674.077 283.910 Q 674.014 284.407 674.001 285.023 Q 673.988 285.640 674.112 286.669 Q 674.236 287.698 674.718 287.819 Q 675.199 287.939 675.582 287.991 Q 675.964 288.043 676.124 288.029 Q 676.284 288.015 676.379 287.912 Q 676.474 287.808 676.830 286.859 Q 677.186 285.909 677.178 285.223 Q 677.170 284.537 676.875 283.907 Q 676.581 283.278 675.864 283.110 Q 675.147 282.941 674.891 282.915 Q 674.636 282.888 674.322 283.345 Q 674.008 283.803 673.964 283.936 Q 673.920 284.069 673.931 284.115 Q 673.942 284.160 673.740 284.185 Q 673.538 284.210 673.813 287.230 Q 673.446 287.253 674.987 287.242 Q 676.529 287.231 677.095 286.082 Q 677.660 284.934 677.805 284.161 Q 677.949 283.389 677.803 283.044 Q 677.658 282.698 677.194 282.546 Q 676.731 282.393 676.187 282.384 Q 675.643 282.375 675.648 282.397 Q 675.652 282.419 675.458 282.338 Q 675.265 282.257 674.284 283.774 Q 673.303 285.291 673.838 288.440 Q 673.621 288.336 674.278 288.591 Q 674.934 288.845 675.954 287.611 Q 676.975 286.376 676.606 283.481 Q 674.670 282.316 673.755 287.835 Q 673.492 288.189 674.839 287.802 Q 676.186 287.415 676.548 287.100 "></path>
    <path id="STROKE_3b98e8b6-72f2-4923-bb16-6e81751c896c" opacity="1.000" fill="none" stroke="#71c047" stroke-width="1.200" stroke-opacity="1.000" stroke-linecap="round" stroke-linejoin="round" d="M 727.694 252.700 Q 727.364 252.159 727.517 252.387 Q 727.671 252.615 727.441 252.026 Q 727.211 251.436 726.563 251.192 Q 725.916 250.948 724.901 251.137 Q 723.886 251.326 723.348 252.240 Q 722.809 253.155 722.712 253.763 Q 722.614 254.372 722.593 255.032 Q 722.571 255.692 722.676 255.945 Q 722.781 256.198 722.737 256.080 Q 722.693 255.963 722.832 256.148 Q 722.971 256.334 724.036 256.470 Q 725.101 256.606 725.658 256.010 Q 726.214 255.414 726.259 255.251 Q 726.303 255.088 726.350 255.016 Q 726.398 254.943 726.489 254.396 Q 726.581 253.849 726.593 253.168 Q 726.605 252.486 726.303 252.209 Q 726.000 251.932 725.792 251.905 Q 725.583 251.878 724.861 251.873 Q 724.138 251.869 724.155 251.983 Q 724.171 252.097 723.992 252.274 Q 723.812 252.452 723.676 252.783 Q 723.540 253.114 723.478 253.491 Q 723.416 253.869 723.372 254.604 Q 723.328 255.338 723.361 255.783 Q 723.394 256.227 724.066 256.668 Q 724.738 257.108 725.629 257.190 Q 726.520 257.272 726.962 257.211 Q 727.405 257.151 728.016 255.932 Q 728.628 254.713 728.390 253.853 Q 728.153 252.992 727.566 252.615 Q 726.980 252.237 726.432 252.127 Q 725.884 252.016 725.639 252.025 Q 725.395 252.034 725.028 252.046 Q 724.661 252.057 724.664 251.920 Q 724.666 251.783 724.020 252.524 Q 723.374 253.264 723.376 254.149 Q 723.378 255.035 723.227 255.603 Q 723.075 256.171 724.239 256.552 Q 725.404 256.933 726.501 256.531 Q 727.598 256.130 728.062 255.511 Q 728.526 254.892 728.827 254.167 Q 729.128 253.442 728.972 253.113 Q 728.816 252.785 728.352 252.501 Q 727.889 252.217 727.596 252.176 Q 727.303 252.135 727.230 252.117 Q 727.158 252.098 727.126 252.111 Q 727.095 252.125 726.815 252.083 Q 726.534 252.041 726.261 252.134 Q 725.988 252.227 725.605 252.558 Q 725.221 252.889 724.897 253.270 Q 724.574 253.651 724.610 253.646 Q 724.645 253.640 724.199 254.154 Q 723.753 254.667 723.979 257.387 Q 725.163 257.665 724.893 257.566 Q 725.920 257.926 727.120 256.820 Q 728.319 255.715 728.539 254.760 Q 728.759 253.806 728.709 253.283 Q 728.659 252.760 728.157 252.628 Q 727.655 252.495 727.763 252.447 Q 727.871 252.399 726.562 252.564 Q 725.254 252.729 724.882 254.097 Q 724.510 255.466 724.448 256.311 Q 724.385 257.157 724.735 257.635 Q 725.086 258.113 725.631 258.151 Q 726.177 258.188 726.771 258.196 Q 727.366 258.203 727.726 257.133 Q 728.086 256.063 728.192 255.419 Q 728.298 254.774 728.017 254.199 Q 727.735 253.624 727.349 253.631 Q 726.962 253.639 726.570 253.685 Q 726.177 253.731 726.108 253.943 Q 726.039 254.156 725.860 254.756 Q 725.681 255.355 725.603 255.788 Q 725.525 256.220 725.490 256.244 Q 725.454 256.268 725.482 256.281 Q 725.510 256.293 725.550 256.344 Q 725.589 256.394 726.303 256.530 Q 727.016 256.667 727.297 256.524 Q 727.578 256.381 728.633 253.219 Q 728.766 253.095 727.671 253.115 Q 726.576 253.136 725.726 254.369 Q 724.877 255.602 724.761 257.387 Q 725.222 257.418 725.162 257.453 Q 725.103 257.488 725.136 257.461 Q 725.169 257.433 725.664 257.291 Q 726.160 257.149 726.182 256.549 Q 726.203 255.948 726.277 255.689 "></path>
    <path id="STROKE_22b9dc49-17ee-4e8a-9a68-5ce4fbbdbb6d" opacity="1.000" fill="none" stroke="#71c047" stroke-width="1.200" stroke-opacity="1.000" stroke-linecap="round" stroke-linejoin="round" d="M 778.840 216.237 Q 778.468 215.815 778.429 215.754 Q 778.391 215.693 778.391 215.701 Q 778.391 215.708 778.378 215.695 Q 778.365 215.681 778.399 215.685 Q 778.434 215.690 777.905 215.357 Q 777.375 215.025 777.395 215.064 Q 777.414 215.104 777.406 215.086 Q 777.397 215.069 777.157 215.020 Q 776.918 214.971 776.421 214.947 Q 775.924 214.923 775.516 216.376 Q 775.108 217.829 775.187 218.835 Q 775.266 219.841 775.517 220.390 Q 775.768 220.939 776.212 220.875 Q 776.656 220.811 776.643 220.927 Q 776.629 221.043 777.869 220.344 Q 779.110 219.644 779.402 218.275 Q 779.695 216.905 779.703 216.154 Q 779.712 215.402 779.424 214.925 Q 779.137 214.447 778.493 214.160 Q 777.849 213.872 777.244 213.778 Q 776.639 213.684 775.904 214.065 Q 775.169 214.446 775.028 214.745 Q 774.887 215.044 774.524 215.733 Q 774.161 216.422 774.031 217.872 Q 773.901 219.321 774.674 220.114 Q 775.448 220.907 776.586 221.072 Q 777.724 221.236 778.519 220.600 Q 779.313 219.963 779.527 219.467 Q 779.741 218.971 780.011 218.229 Q 780.280 217.488 780.277 216.885 Q 780.274 216.283 780.011 215.743 Q 779.749 215.202 779.372 215.087 Q 778.995 214.971 778.530 214.909 Q 778.065 214.847 777.817 214.787 Q 777.569 214.727 777.171 214.864 Q 776.773 215.002 776.293 215.269 Q 775.813 215.535 775.665 216.215 Q 775.517 216.894 775.697 217.838 Q 775.877 218.782 776.515 218.751 Q 777.153 218.721 777.489 218.744 Q 777.824 218.767 778.289 218.712 Q 778.753 218.658 778.591 218.703 Q 778.430 218.748 779.168 218.649 Q 779.906 218.551 780.224 215.168 Q 779.109 214.132 778.022 214.723 Q 776.934 215.315 776.591 215.965 Q 776.248 216.616 776.129 217.111 Q 776.010 217.606 775.936 218.250 Q 775.862 218.895 776.353 219.426 Q 776.844 219.957 777.390 219.938 Q 777.936 219.919 778.575 219.683 Q 779.215 219.448 779.527 218.666 Q 779.839 217.884 779.913 217.464 Q 779.986 217.043 779.985 216.781 Q 779.983 216.519 779.998 216.402 Q 780.013 216.286 780.023 216.094 Q 780.034 215.903 779.732 215.603 Q 779.430 215.303 779.174 215.144 Q 778.918 214.985 778.643 214.986 Q 778.367 214.986 778.459 214.984 Q 778.550 214.981 778.046 214.856 Q 777.542 214.731 776.735 215.249 Q 775.928 215.766 775.921 216.761 Q 775.914 217.757 775.942 218.190 Q 775.969 218.624 776.320 218.858 Q 776.671 219.091 776.875 219.074 Q 777.079 219.058 777.687 219.237 Q 778.294 219.416 778.678 218.685 Q 779.062 217.955 779.299 217.145 Q 779.536 216.334 779.541 215.848 Q 779.546 215.362 779.398 215.105 Q 779.250 214.849 779.284 214.946 Q 779.317 215.043 779.154 214.873 Q 778.992 214.703 778.310 214.975 Q 777.628 215.246 777.182 215.906 Q 776.735 216.565 776.623 216.840 Q 776.512 217.115 776.330 217.615 Q 776.149 218.116 776.401 219.411 Q 777.752 219.674 778.592 218.821 Q 779.433 217.968 779.310 216.237 Q 779.086 216.040 778.289 216.176 Q 777.493 216.312 777.134 216.631 Q 776.775 216.950 776.265 217.405 Q 775.754 217.860 776.171 219.547 Q 776.245 219.547 776.352 219.531 Q 776.459 219.516 776.484 219.485 "></path>
    <path id="STROKE_427e9a86-f838-4f94-9191-da54404e296b" opacity="1.000" fill="none" stroke="#71c047" stroke-width="1.200" stroke-opacity="1.000" stroke-linecap="round" stroke-linejoin="round" d="M 777.736 216.397 Q 778.291 216.469 778.214 216.471 Q 778.288 216.496 778.725 216.656 Q 778.156 216.707 778.338 216.737 Q 777.759 217.551 777.950 217.317 Q 777.765 217.480 777.324 219.757 Q 777.901 218.925 777.736 219.096 Q 778.098 218.464 778.214 217.126 Q 777.009 217.543 777.448 217.422 Q 777.423 217.472 777.369 217.561 Q 777.316 217.651 777.209 217.756 "></path>
    <path id="STROKE_d2cbc821-b877-4c0d-a32f-929169855bea" opacity="1.000" fill="none" stroke="#71c047" stroke-width="1.200" stroke-opacity="1.000" stroke-linecap="round" stroke-linejoin="round" d="M 761.819 173.437 Q 761.536 173.620 761.563 172.492 Q 761.442 172.356 762.671 172.305 Q 763.900 172.254 764.302 172.335 Q 764.705 172.417 765.436 173.273 Q 766.168 174.129 766.367 175.861 Q 766.567 177.593 762.346 182.256 Q 762.064 180.981 771.557 171.497 Q 770.997 171.863 769.939 173.015 Q 768.881 174.167 767.955 175.516 Q 767.029 176.865 766.456 178.353 Q 765.884 179.841 765.844 180.883 Q 765.805 181.924 766.034 182.271 Q 766.262 182.617 767.660 182.910 Q 769.058 183.204 770.192 182.399 Q 771.326 181.595 771.557 181.354 "></path>
    <path id="STROKE_54934b82-6e17-4f10-95c2-a9dae9c1a45d" opacity="1.000" fill="none" stroke="#71c047" stroke-width="1.200" stroke-opacity="1.000" stroke-linecap="round" stroke-linejoin="round" d="M 774.704 180.465 Q 774.729 180.465 774.852 180.465 Q 774.852 181.456 774.852 181.280 Q 775.046 181.039 773.814 186.233 Q 773.886 185.808 775.430 183.419 Q 776.975 181.030 778.758 179.786 Q 778.896 179.439 777.662 185.690 Q 778.341 185.731 778.346 185.715 Q 779.767 185.582 779.409 185.560 Q 779.829 185.295 780.080 185.097 Q 780.331 184.899 780.620 184.665 "></path>
    <path id="STROKE_36b69be9-b013-426f-91f6-c0cd2e5893e5" opacity="1.000" fill="none" stroke="#71c047" stroke-width="1.200" stroke-opacity="1.000" stroke-linecap="round" stroke-linejoin="round" d="M 536.213 311.557 Q 536.163 311.708 536.196 311.484 Q 536.229 311.261 536.339 310.963 Q 536.448 310.665 536.407 310.784 Q 536.366 310.904 536.725 310.662 Q 537.084 310.421 537.846 310.275 Q 538.608 310.130 539.102 310.578 Q 539.596 311.027 539.698 312.243 Q 539.801 313.459 538.986 315.349 Q 538.171 317.238 536.718 318.765 Q 536.338 318.934 538.196 316.635 Q 540.054 314.337 543.834 309.988 Q 543.219 310.459 542.122 311.690 Q 541.024 312.922 540.688 314.333 Q 540.352 315.744 540.473 316.682 Q 540.593 317.619 540.662 317.725 Q 540.730 317.831 541.404 318.235 Q 542.079 318.640 543.195 318.662 Q 544.311 318.683 544.934 318.373 Q 545.558 318.063 545.755 317.907 "></path>
    <path id="STROKE_6cb3a165-21dd-4ef4-aea8-67a88ef72551" opacity="1.000" fill="none" stroke="#71c047" stroke-width="1.200" stroke-opacity="1.000" stroke-linecap="round" stroke-linejoin="round" d="M 550.520 319.356 Q 550.501 319.343 550.052 319.508 Q 550.047 319.861 550.286 325.503 Q 550.135 325.078 550.557 317.943 Q 550.581 317.943 550.680 317.962 Q 550.661 317.904 550.720 318.090 Q 550.778 318.276 550.840 318.377 "></path>
    <path id="STROKE_55bf2ec2-b7c8-400d-a0eb-a46bdc0ebe29" opacity="1.000" fill="none" stroke="#71c047" stroke-width="1.200" stroke-opacity="1.000" stroke-linecap="round" stroke-linejoin="round" d="M 521.761 167.059 Q 522.086 166.823 522.036 166.820 Q 522.097 166.765 522.262 166.591 Q 522.958 166.872 520.031 177.177 Q 519.839 176.979 519.804 176.737 Q 519.768 176.494 519.670 176.205 "></path>
    <path id="STROKE_cf9c0322-e848-4219-97e3-05b24dc1c096" opacity="1.000" fill="none" stroke="#71c047" stroke-width="1.200" stroke-opacity="1.000" stroke-linecap="round" stroke-linejoin="round" d="M 516.834 168.342 Q 516.815 168.342 516.675 168.342 Q 516.815 168.635 519.894 168.007 Q 522.973 167.379 524.775 166.635 Q 526.578 165.890 526.847 165.693 "></path>
    <path id="STROKE_19366de7-ce18-47f0-9a4d-d43b401f9154" opacity="1.000" fill="none" stroke="#71c047" stroke-width="1.200" stroke-opacity="1.000" stroke-linecap="round" stroke-linejoin="round" d="M 531.517 167.370 Q 531.596 167.537 530.347 167.306 Q 529.098 167.075 528.606 167.408 Q 528.115 167.741 527.621 169.156 Q 527.128 170.571 527.040 171.785 Q 526.953 172.998 526.873 173.877 Q 526.793 174.755 527.568 175.424 Q 528.344 176.092 529.453 175.180 Q 530.563 174.269 530.982 172.993 Q 531.402 171.717 531.487 170.391 Q 531.573 169.066 531.301 168.306 Q 531.028 167.546 530.756 167.174 Q 530.484 166.802 530.429 166.701 "></path>
    <path id="STROKE_5d9c6033-ef02-49c0-a873-76a1bbebfc61" opacity="1.000" fill="none" stroke="#71c047" stroke-width="1.200" stroke-opacity="1.000" stroke-linecap="round" stroke-linejoin="round" d="M 535.283 166.857 Q 535.301 166.839 535.625 166.628 Q 535.632 166.600 534.819 168.886 Q 534.006 171.172 534.543 175.055 Q 536.076 176.333 539.843 167.480 L 539.886 167.480 Q 539.981 167.981 539.864 169.990 Q 539.748 171.999 539.718 173.305 Q 539.688 174.610 539.982 175.383 Q 540.276 176.156 541.215 175.840 Q 542.154 175.523 542.386 175.307 "></path>
    <path id="STROKE_5f9024f2-0016-41f2-aad1-7eca8390700e" opacity="1.000" fill="none" stroke="#71c047" stroke-width="1.200" stroke-opacity="1.000" stroke-linecap="round" stroke-linejoin="round" d="M 548.096 167.792 Q 547.924 167.798 547.068 167.876 Q 546.213 167.955 545.366 168.908 Q 544.520 169.861 544.109 171.348 Q 543.699 172.836 543.725 173.789 Q 543.751 174.742 543.865 175.362 Q 543.980 175.983 544.884 176.266 Q 545.788 176.550 546.788 175.814 Q 547.788 175.078 548.174 174.122 Q 548.560 173.167 548.793 172.741 "></path>
    <path id="STROKE_c9126340-b4b7-4295-b9db-a363f220c1b7" opacity="1.000" fill="none" stroke="#71c047" stroke-width="1.200" stroke-opacity="1.000" stroke-linecap="round" stroke-linejoin="round" d="M 552.485 167.169 Q 552.608 167.211 551.960 167.618 Q 551.311 168.026 551.146 175.738 Q 551.183 175.738 551.201 175.738 Q 551.201 175.678 551.192 175.562 Q 551.183 175.445 551.164 175.271 "></path>
    <path id="STROKE_cd3ac40b-0d7c-45bc-b10a-87b9b050d4bb" opacity="1.000" fill="none" stroke="#71c047" stroke-width="1.200" stroke-opacity="1.000" stroke-linecap="round" stroke-linejoin="round" d="M 551.201 171.999 Q 551.254 171.922 551.260 172.397 Q 551.266 172.871 552.243 173.105 Q 553.219 173.338 554.541 172.782 Q 555.862 172.227 556.533 171.537 Q 557.204 170.848 557.375 170.596 "></path>
    <path id="STROKE_bbdddf4b-5817-4328-81ac-b5b7b348d500" opacity="1.000" fill="none" stroke="#71c047" stroke-width="1.200" stroke-opacity="1.000" stroke-linecap="round" stroke-linejoin="round" d="M 557.803 167.599 Q 557.679 168.078 557.589 168.049 Q 557.227 168.935 557.273 168.601 Q 557.319 168.267 556.851 170.522 Q 556.383 172.777 556.562 176.398 Q 557.222 176.294 557.271 175.906 Q 557.320 175.518 557.461 175.225 "></path>
    <path id="STROKE_a0b6f3ca-5e19-416e-b47a-5144eb7d67d9" opacity="1.000" fill="none" stroke="#71c047" stroke-width="1.200" stroke-opacity="1.000" stroke-linecap="round" stroke-linejoin="round" d="M 563.549 168.149 Q 563.437 167.941 562.631 169.890 Q 561.826 171.838 561.691 176.902 Q 561.709 176.902 561.728 176.902 Q 561.705 176.980 561.735 176.650 Q 561.764 176.320 561.801 176.086 "></path>
    <path id="STROKE_ece4238d-a2a0-440d-82d6-7d52b7f092b9" opacity="1.000" fill="none" stroke="#71c047" stroke-width="1.200" stroke-opacity="1.000" stroke-linecap="round" stroke-linejoin="round" d="M 566.814 168.103 Q 566.638 168.756 565.866 177.021 Q 565.781 177.095 565.677 175.713 Q 565.573 174.331 565.493 173.942 "></path>
    <path id="STROKE_6e4d9623-18ea-4530-93c3-720313ab81e9" opacity="1.000" fill="none" stroke="#71c047" stroke-width="1.200" stroke-opacity="1.000" stroke-linecap="round" stroke-linejoin="round" d="M 566.814 169.121 Q 566.870 168.571 567.929 169.887 Q 568.988 171.203 569.676 172.219 Q 570.364 173.235 571.016 174.000 Q 571.668 174.765 572.120 175.167 Q 572.573 175.568 573.209 175.840 Q 573.844 176.112 574.392 173.141 Q 574.940 170.169 575.483 168.515 Q 576.026 166.862 576.142 166.784 "></path>
    <path id="STROKE_8ab52ba4-11eb-48a2-972d-281cf5e26934" opacity="1.000" fill="none" stroke="#71c047" stroke-width="1.200" stroke-opacity="1.000" stroke-linecap="round" stroke-linejoin="round" d="M 582.940 166.435 Q 583.120 166.299 582.722 166.112 Q 582.324 165.926 582.063 165.911 Q 581.801 165.897 581.817 165.955 Q 581.832 166.013 581.582 166.042 Q 581.332 166.071 580.428 167.430 Q 579.525 168.790 579.146 169.925 Q 578.767 171.060 578.635 171.704 Q 578.503 172.347 578.480 173.245 Q 578.457 174.142 578.518 174.896 Q 578.580 175.650 579.504 175.961 Q 580.429 176.273 581.113 175.962 Q 581.798 175.650 582.231 175.193 Q 582.665 174.737 582.964 173.982 Q 583.264 173.227 583.404 172.897 "></path>
    <path id="STROKE_0d6816f8-0abc-4cce-b080-482ad33d9d41" opacity="1.000" fill="none" stroke="#71c047" stroke-width="1.200" stroke-opacity="1.000" stroke-linecap="round" stroke-linejoin="round" d="M 581.375 170.990 Q 581.356 171.035 580.800 171.806 Q 581.053 171.892 585.850 171.261 Q 586.278 171.032 585.373 174.618 Q 584.468 178.203 584.444 178.222 "></path>
    <path id="STROKE_9cdf742d-fbaa-419e-adf8-59290bf491b7" opacity="1.000" fill="none" stroke="#71c047" stroke-width="1.200" stroke-opacity="1.000" stroke-linecap="round" stroke-linejoin="round" d="M 604.568 165.189 Q 604.734 165.226 603.987 165.033 Q 603.679 166.112 603.749 166.005 Q 603.492 167.110 602.624 175.930 Q 602.624 175.912 602.575 175.667 Q 602.526 175.422 602.428 175.188 "></path>
    <path id="STROKE_356b3c16-f186-4201-a5c2-687b20524f45" opacity="1.000" fill="none" stroke="#71c047" stroke-width="1.200" stroke-opacity="1.000" stroke-linecap="round" stroke-linejoin="round" d="M 599.323 166.591 Q 600.353 167.383 604.450 166.655 Q 608.547 165.927 608.798 165.812 "></path>
    <path id="STROKE_1de8fac4-8a36-4abb-94d8-6475204694f1" opacity="1.000" fill="none" stroke="#71c047" stroke-width="1.200" stroke-opacity="1.000" stroke-linecap="round" stroke-linejoin="round" d="M 611.096 165.107 Q 610.861 165.940 610.321 168.887 Q 609.781 171.834 609.617 174.913 Q 609.581 174.913 609.415 174.808 Q 609.250 174.702 609.116 174.528 "></path>
    <path id="STROKE_f9440ba1-6b88-4cea-b115-9e64524d34fe" opacity="1.000" fill="none" stroke="#71c047" stroke-width="1.200" stroke-opacity="1.000" stroke-linecap="round" stroke-linejoin="round" d="M 610.008 169.937 Q 610.089 170.169 610.833 170.516 Q 611.577 170.863 612.604 170.943 Q 613.631 171.023 615.050 169.634 Q 616.470 168.246 616.684 167.994 "></path>
    <path id="STROKE_745c5d6c-b579-4ef4-b452-7a5cf8e3572e" opacity="1.000" fill="none" stroke="#71c047" stroke-width="1.200" stroke-opacity="1.000" stroke-linecap="round" stroke-linejoin="round" d="M 617.002 166.005 Q 616.234 165.842 615.695 168.561 Q 615.155 171.281 615.186 173.887 Q 615.680 173.998 615.922 173.484 Q 616.164 172.970 616.341 172.695 "></path>
    <path id="STROKE_12507c1b-32d1-4112-9ac3-9ce589e166cd" opacity="1.000" fill="none" stroke="#71c047" stroke-width="1.200" stroke-opacity="1.000" stroke-linecap="round" stroke-linejoin="round" d="M 622.357 164.951 Q 622.591 164.954 621.693 166.651 Q 620.795 168.348 620.476 170.060 Q 620.156 171.772 620.159 172.626 Q 620.162 173.480 620.073 174.069 Q 619.984 174.657 620.613 174.993 Q 621.242 175.329 621.937 175.458 Q 622.632 175.587 623.281 175.517 Q 623.930 175.447 624.500 175.259 Q 625.069 175.070 625.382 174.323 Q 625.694 173.575 625.731 173.364 "></path>
    <path id="STROKE_dd693a32-ec4f-458d-8ee6-77cae3fee97e" opacity="1.000" fill="none" stroke="#71c047" stroke-width="1.200" stroke-opacity="1.000" stroke-linecap="round" stroke-linejoin="round" d="M 621.000 170.633 Q 621.111 170.835 621.595 171.028 Q 622.080 171.221 622.789 170.775 Q 623.497 170.329 624.166 169.602 Q 624.835 168.875 625.265 168.288 Q 625.694 167.700 625.927 167.370 "></path>
    <path id="STROKE_8ca5807e-da99-4df8-8777-57cc6a14a2e4" opacity="1.000" fill="none" stroke="#71c047" stroke-width="1.200" stroke-opacity="1.000" stroke-linecap="round" stroke-linejoin="round" d="M 621.146 165.226 Q 621.895 165.226 621.854 165.225 Q 621.812 165.225 621.870 165.195 Q 621.927 165.165 622.158 165.325 Q 622.388 165.486 626.160 164.100 Q 629.931 162.714 630.475 162.421 "></path>
    <path id="STROKE_1540bc64-0d3c-47e6-b92a-a0a7671dc09e" opacity="1.000" fill="none" stroke="#71c047" stroke-width="1.200" stroke-opacity="1.000" stroke-linecap="round" stroke-linejoin="round" d="M 523.681 186.149 Q 523.657 186.147 523.753 185.720 Q 523.848 185.293 523.660 185.082 Q 523.471 184.870 523.262 184.865 Q 523.052 184.859 522.658 185.022 Q 522.265 185.185 521.688 185.884 Q 521.112 186.584 520.856 186.992 Q 520.600 187.400 520.215 188.329 Q 519.829 189.258 519.737 189.927 Q 519.644 190.595 519.793 191.260 Q 519.942 191.924 520.763 192.285 Q 521.584 192.647 522.195 192.691 Q 522.806 192.735 523.188 192.538 Q 523.570 192.340 523.706 192.074 Q 523.841 191.807 523.927 191.666 "></path>
    <path id="STROKE_c026c221-d7c1-480a-9fcc-de3c3b997517" opacity="1.000" fill="none" stroke="#71c047" stroke-width="1.200" stroke-opacity="1.000" stroke-linecap="round" stroke-linejoin="round" d="M 521.934 189.632 Q 521.955 189.648 521.522 190.311 Q 521.449 190.652 525.918 189.697 Q 526.089 189.613 525.585 190.749 Q 525.081 191.884 524.683 194.154 Q 524.722 194.339 524.949 194.126 Q 525.175 193.913 525.275 193.781 "></path>
    <path id="STROKE_40be2712-0ba2-4b57-b659-0f867fd312f5" opacity="1.000" fill="none" stroke="#71c047" stroke-width="1.200" stroke-opacity="1.000" stroke-linecap="round" stroke-linejoin="round" d="M 528.561 186.328 Q 528.630 186.395 528.072 188.049 Q 527.513 189.703 527.269 190.696 Q 527.026 191.688 527.174 192.648 Q 527.127 192.630 527.081 192.613 "></path>
    <path id="STROKE_0e334132-b8ec-431d-83f7-c06cf6182798" opacity="1.000" fill="none" stroke="#71c047" stroke-width="1.200" stroke-opacity="1.000" stroke-linecap="round" stroke-linejoin="round" d="M 528.716 186.470 Q 528.832 186.263 529.356 186.014 Q 529.880 185.764 530.291 185.772 Q 530.701 185.781 530.952 185.797 Q 531.203 185.812 531.383 186.051 Q 531.563 186.290 531.585 186.647 Q 531.607 187.005 531.080 187.670 Q 530.553 188.335 530.219 188.615 Q 529.886 188.894 529.123 189.415 Q 528.361 189.937 527.298 190.895 Q 527.086 191.019 532.615 192.033 Q 532.739 191.887 532.823 191.792 "></path>
    <path id="STROKE_b9940a67-a709-4895-a148-e8e0f5cbe1bb" opacity="1.000" fill="none" stroke="#71c047" stroke-width="1.200" stroke-opacity="1.000" stroke-linecap="round" stroke-linejoin="round" d="M 533.659 192.880 Q 533.659 192.880 533.644 192.719 Q 533.628 192.559 533.651 192.563 Q 533.495 192.253 534.525 190.435 Q 535.555 188.617 536.127 187.646 Q 536.699 186.675 536.967 186.236 Q 537.236 185.798 537.345 185.757 Q 537.454 185.717 537.496 185.697 Q 537.537 185.677 537.698 185.879 Q 537.858 186.082 537.856 186.299 Q 537.854 186.516 537.965 187.178 Q 538.076 187.840 538.248 189.421 Q 538.420 191.003 538.489 192.102 Q 538.558 193.200 538.545 193.277 "></path>
    <path id="STROKE_615119c2-9d69-4d8b-bc25-443068f4a041" opacity="1.000" fill="none" stroke="#71c047" stroke-width="1.200" stroke-opacity="1.000" stroke-linecap="round" stroke-linejoin="round" d="M 534.865 190.289 Q 534.840 190.094 536.084 190.062 Q 537.327 190.029 538.289 189.807 Q 539.252 189.586 539.953 189.060 Q 540.654 188.535 540.852 188.351 "></path>
    <path id="STROKE_541c9ab5-b78f-45ea-b80f-c637e71bc8af" opacity="1.000" fill="none" stroke="#71c047" stroke-width="1.200" stroke-opacity="1.000" stroke-linecap="round" stroke-linejoin="round" d="M 543.596 186.062 Q 543.598 186.051 543.606 186.003 Q 543.432 186.116 542.666 188.761 Q 541.901 191.405 540.838 194.108 Q 540.589 194.121 540.529 194.068 Q 540.470 194.016 540.357 193.936 "></path>
    <path id="STROKE_b226c98b-8391-41ef-b359-25dfe3bd166a" opacity="1.000" fill="none" stroke="#71c047" stroke-width="1.200" stroke-opacity="1.000" stroke-linecap="round" stroke-linejoin="round" d="M 543.492 186.202 Q 543.545 186.085 543.885 185.843 Q 544.226 185.601 544.614 185.612 Q 545.003 185.623 545.281 185.711 Q 545.559 185.798 545.804 186.275 Q 546.050 186.752 546.094 187.511 Q 546.139 188.271 545.441 188.966 Q 544.743 189.662 543.868 190.135 Q 542.994 190.608 542.431 190.755 Q 541.869 190.902 541.607 190.805 Q 541.346 190.708 541.277 190.588 "></path>
    <path id="STROKE_1ee5242e-2fe9-4ccb-889d-f611a50b48d9" opacity="1.000" fill="none" stroke="#71c047" stroke-width="1.200" stroke-opacity="1.000" stroke-linecap="round" stroke-linejoin="round" d="M 547.641 186.312 Q 547.757 185.883 545.235 193.908 Q 545.155 193.906 545.094 193.896 "></path>
    <path id="STROKE_ffe7c2e4-1a9a-40ee-9831-095d124a4489" opacity="1.000" fill="none" stroke="#71c047" stroke-width="1.200" stroke-opacity="1.000" stroke-linecap="round" stroke-linejoin="round" d="M 547.301 189.013 Q 547.407 189.098 547.628 189.372 Q 547.849 189.646 548.621 189.893 Q 549.392 190.141 550.131 190.081 Q 550.871 190.021 551.530 189.670 Q 552.189 189.318 552.524 189.000 Q 552.858 188.682 552.954 188.571 "></path>
    <path id="STROKE_95245b59-33c6-4c37-b538-f585e60323d2" opacity="1.000" fill="none" stroke="#71c047" stroke-width="1.200" stroke-opacity="1.000" stroke-linecap="round" stroke-linejoin="round" d="M 553.734 185.829 Q 553.638 185.730 552.919 188.275 Q 552.200 190.820 551.796 192.399 Q 551.392 193.978 551.346 194.009 "></path>
    <path id="STROKE_d2350270-c24b-4666-8b55-09787a130007" opacity="1.000" fill="none" stroke="#71c047" stroke-width="1.200" stroke-opacity="1.000" stroke-linecap="round" stroke-linejoin="round" d="M 567.300 187.048 Q 567.281 187.050 566.972 186.948 Q 566.664 186.845 566.177 186.804 Q 565.690 186.763 565.000 187.473 Q 564.311 188.183 564.053 188.657 Q 563.794 189.130 563.585 189.912 Q 563.375 190.693 563.279 191.320 Q 563.183 191.947 563.299 192.500 Q 563.416 193.052 563.810 193.358 Q 564.204 193.664 564.894 193.340 Q 565.583 193.016 566.193 192.097 Q 566.804 191.179 567.197 189.991 Q 567.590 188.804 567.737 187.471 Q 567.884 186.138 567.705 185.434 Q 567.526 184.731 567.492 184.637 "></path>
    <path id="STROKE_9c0f18e2-a2db-4182-8a90-ffca4348e47b" opacity="1.000" fill="none" stroke="#71c047" stroke-width="1.200" stroke-opacity="1.000" stroke-linecap="round" stroke-linejoin="round" d="M 571.449 186.212 Q 571.557 186.246 570.924 187.651 Q 570.290 189.057 569.819 190.028 Q 569.348 190.999 569.074 192.031 Q 569.065 192.029 569.039 191.985 Q 569.012 191.941 568.977 191.857 "></path>
    <path id="STROKE_33e8a57f-47f6-48f3-b041-14ffc4a4e629" opacity="1.000" fill="none" stroke="#71c047" stroke-width="1.200" stroke-opacity="1.000" stroke-linecap="round" stroke-linejoin="round" d="M 570.704 186.776 Q 570.536 186.661 571.023 188.612 Q 571.511 190.563 571.828 191.593 Q 572.145 192.623 572.431 193.148 Q 572.718 193.672 572.766 193.726 Q 572.813 193.779 573.045 193.997 Q 573.276 194.214 573.689 193.784 Q 574.102 193.354 574.926 189.927 Q 575.750 186.500 575.836 186.269 "></path>
    <path id="STROKE_974686c9-434b-4532-a3ac-8a288121911a" opacity="1.000" fill="none" stroke="#71c047" stroke-width="1.200" stroke-opacity="1.000" stroke-linecap="round" stroke-linejoin="round" d="M 590.920 185.497 Q 590.687 185.679 588.162 193.198 L 588.171 193.200 Q 588.206 193.157 588.232 193.113 "></path>
    <path id="STROKE_3c61ecd8-b8d4-4a64-8e22-a0d66b3179ba" opacity="1.000" fill="none" stroke="#71c047" stroke-width="1.200" stroke-opacity="1.000" stroke-linecap="round" stroke-linejoin="round" d="M 586.621 186.855 Q 586.621 186.855 586.642 186.994 Q 586.663 187.134 587.855 187.203 Q 589.047 187.272 589.793 187.096 Q 590.539 186.920 591.328 186.730 Q 592.117 186.540 592.955 185.997 Q 593.794 185.454 593.977 185.306 "></path>
    <path id="STROKE_0ebc378a-7591-4fe0-99f1-46e894776938" opacity="1.000" fill="none" stroke="#71c047" stroke-width="1.200" stroke-opacity="1.000" stroke-linecap="round" stroke-linejoin="round" d="M 595.162 185.173 Q 595.171 185.315 595.153 185.151 Q 595.134 184.987 594.630 186.820 Q 594.125 188.654 593.883 189.611 Q 593.640 190.568 593.558 191.103 Q 593.477 191.639 593.404 192.042 Q 593.303 192.055 593.202 192.068 "></path>
    <path id="STROKE_5f1b1bf3-2188-4db2-b6c9-4b482d2e9c62" opacity="1.000" fill="none" stroke="#71c047" stroke-width="1.200" stroke-opacity="1.000" stroke-linecap="round" stroke-linejoin="round" d="M 593.932 190.203 Q 594.021 190.329 594.487 190.509 Q 594.952 190.689 595.526 190.594 Q 596.100 190.500 597.200 189.467 Q 598.301 188.433 598.446 188.270 "></path>
    <path id="STROKE_230044b7-461d-4951-8110-fd2e2627f796" opacity="1.000" fill="none" stroke="#71c047" stroke-width="1.200" stroke-opacity="1.000" stroke-linecap="round" stroke-linejoin="round" d="M 600.722 184.697 Q 600.625 185.028 600.586 185.022 Q 600.272 185.243 599.287 188.052 Q 598.303 190.861 597.773 194.160 L 597.782 194.161 Q 597.816 194.070 597.850 193.978 "></path>
    <path id="STROKE_25afbf15-dc82-4b78-a2fc-b198f6d2af6e" opacity="1.000" fill="none" stroke="#71c047" stroke-width="1.200" stroke-opacity="1.000" stroke-linecap="round" stroke-linejoin="round" d="M 603.945 186.073 Q 604.055 186.032 603.493 186.727 Q 602.930 187.422 602.678 188.401 Q 602.425 189.379 602.302 190.198 Q 602.180 191.017 602.437 191.688 Q 602.693 192.360 603.368 192.668 Q 604.042 192.976 604.872 192.742 Q 605.702 192.507 606.095 192.016 Q 606.488 191.525 606.601 191.386 "></path>
    <path id="STROKE_d865d19d-d212-4820-9c3a-69eeb879cfcb" opacity="1.000" fill="none" stroke="#71c047" stroke-width="1.200" stroke-opacity="1.000" stroke-linecap="round" stroke-linejoin="round" d="M 602.878 190.398 Q 602.877 190.407 602.865 190.475 Q 602.943 190.688 604.126 190.404 Q 605.309 190.120 606.234 189.279 Q 607.159 188.437 607.375 188.207 "></path>
    <path id="STROKE_f648c69b-bfa1-47ec-903e-3177a2295962" opacity="1.000" fill="none" stroke="#71c047" stroke-width="1.200" stroke-opacity="1.000" stroke-linecap="round" stroke-linejoin="round" d="M 603.210 186.579 Q 602.854 186.566 602.926 186.577 Q 602.877 186.578 602.859 186.575 Q 602.887 186.666 604.579 186.366 Q 606.272 186.065 607.469 185.589 Q 608.666 185.112 608.992 184.940 "></path>
    <path id="STROKE_028f364c-5ba0-485d-810f-2580b08a0e0a" opacity="1.000" fill="none" stroke="#71c047" stroke-width="1.200" stroke-opacity="1.000" stroke-linecap="round" stroke-linejoin="round" d="M 622.213 185.844 Q 622.268 185.258 622.247 185.402 Q 622.247 185.348 622.247 185.335 Q 622.143 185.332 620.007 193.811 Q 619.944 194.017 620.407 192.108 Q 620.870 190.200 621.365 188.844 Q 621.860 187.487 622.336 186.746 Q 622.812 186.005 623.291 185.619 Q 623.770 185.233 624.128 185.226 Q 624.485 185.218 624.565 185.215 Q 624.644 185.211 624.788 186.024 Q 624.933 186.838 623.950 188.085 Q 622.967 189.331 621.085 190.250 Q 621.180 190.268 622.135 190.602 Q 623.091 190.936 624.485 191.936 Q 625.879 192.935 626.408 194.327 L 626.420 194.327 Q 626.475 193.907 626.501 193.778 Q 626.526 193.649 626.581 193.404 "></path>
    <path id="STROKE_5b5f330c-1171-4304-93c6-ce4e71146671" opacity="1.000" fill="none" stroke="#71c047" stroke-width="1.200" stroke-opacity="1.000" stroke-linecap="round" stroke-linejoin="round" d="M 629.466 185.252 Q 629.325 185.881 629.343 185.710 Q 629.219 185.842 628.843 188.084 Q 628.466 190.326 628.423 191.587 Q 628.381 192.848 628.454 193.399 Q 628.528 193.950 628.634 194.322 Q 628.740 194.694 629.207 194.759 Q 629.343 194.543 629.440 194.352 "></path>
    <path id="STROKE_0ec2224c-8f6d-4c6e-aafd-5aa3f4cbecb8" opacity="1.000" fill="none" stroke="#71c047" stroke-width="1.200" stroke-opacity="1.000" stroke-linecap="round" stroke-linejoin="round" d="M 637.524 185.844 Q 637.285 185.726 636.508 185.929 Q 635.730 186.132 635.261 186.484 Q 634.792 186.836 634.189 187.475 Q 633.586 188.114 633.090 189.162 Q 632.595 190.210 632.510 190.784 Q 632.426 191.358 632.472 192.117 Q 632.518 192.875 633.044 193.270 Q 633.570 193.665 634.302 193.828 Q 635.035 193.991 635.784 193.799 Q 636.534 193.607 636.934 193.129 Q 637.333 192.651 637.499 192.406 "></path>
    <path id="STROKE_85bdd24f-a634-4244-95c1-6e25907f5cc0" opacity="1.000" fill="none" stroke="#71c047" stroke-width="1.200" stroke-opacity="1.000" stroke-linecap="round" stroke-linejoin="round" d="M 635.531 189.220 Q 635.251 189.384 635.000 189.596 Q 634.748 189.808 634.754 189.918 Q 634.759 190.029 634.978 190.167 Q 635.198 190.305 635.300 190.298 Q 635.402 190.291 635.544 190.307 Q 635.686 190.324 635.838 190.310 Q 635.991 190.296 636.773 190.301 Q 637.556 190.306 638.193 190.409 Q 638.831 190.512 639.071 190.838 Q 639.311 191.164 639.207 192.030 Q 639.102 192.895 637.117 195.891 Q 637.104 195.682 637.172 195.476 Q 637.240 195.271 637.338 195.026 "></path>
    <path id="STROKE_d80bc65b-55cd-46e3-9467-0e8023360100" opacity="1.000" fill="none" stroke="#71c047" stroke-width="1.200" stroke-opacity="1.000" stroke-linecap="round" stroke-linejoin="round" d="M 642.699 186.009 Q 642.678 186.002 642.342 186.018 Q 642.006 186.034 641.821 188.672 Q 641.636 191.310 641.518 192.696 Q 641.401 194.082 641.291 194.136 "></path>
    <path id="STROKE_488f5825-8364-46be-aa4c-471e32f3e948" opacity="1.000" fill="none" stroke="#71c047" stroke-width="1.200" stroke-opacity="1.000" stroke-linecap="round" stroke-linejoin="round" d="M 641.562 190.002 Q 641.539 190.148 642.347 190.296 Q 643.154 190.443 643.822 190.377 Q 644.490 190.311 645.091 189.975 Q 645.692 189.640 646.115 189.053 Q 646.537 188.467 646.686 188.222 "></path>
    <path id="STROKE_d9fed17d-07bd-483e-9490-9004196e58a2" opacity="1.000" fill="none" stroke="#71c047" stroke-width="1.200" stroke-opacity="1.000" stroke-linecap="round" stroke-linejoin="round" d="M 647.381 185.901 Q 647.381 185.901 647.057 185.839 Q 646.733 185.777 646.280 188.594 Q 645.828 191.410 645.812 194.409 Q 645.859 194.570 646.105 194.278 Q 646.351 193.986 646.499 193.703 "></path>
    <path id="STROKE_ba161ad1-3d6d-408c-bcac-81181448b21e" opacity="1.000" fill="none" stroke="#71c047" stroke-width="1.200" stroke-opacity="1.000" stroke-linecap="round" stroke-linejoin="round" d="M 654.261 184.661 Q 654.328 184.654 653.259 186.837 Q 652.191 189.021 651.873 193.220 Q 651.831 193.220 651.784 193.185 Q 651.737 193.150 651.674 193.080 "></path>
    <path id="STROKE_22598fa8-e23f-48f9-9740-7af60734e6f9" opacity="1.000" fill="none" stroke="#71c047" stroke-width="1.200" stroke-opacity="1.000" stroke-linecap="round" stroke-linejoin="round" d="M 650.919 185.335 Q 650.748 184.901 652.786 184.471 Q 654.823 184.041 656.384 183.820 Q 657.944 183.600 659.235 182.901 Q 660.526 182.203 660.674 182.041 "></path>
    <path id="STROKE_31d2b1c3-0855-43d2-a502-afba716c7f0f" opacity="1.000" fill="none" stroke="#71c047" stroke-width="1.200" stroke-opacity="1.000" stroke-linecap="round" stroke-linejoin="round" d="M 579.663 216.036 Q 579.588 216.031 579.568 216.046 Q 579.548 216.062 579.345 216.025 Q 579.142 215.988 578.982 216.184 Q 578.822 216.380 578.724 216.587 Q 578.625 216.795 578.619 217.033 Q 578.612 217.270 578.611 217.251 Q 578.628 217.251 578.747 217.251 Q 578.851 217.744 578.819 217.575 Q 578.857 217.487 578.813 217.735 Q 578.768 217.983 580.096 220.635 Q 581.424 223.288 583.424 227.199 Q 585.424 231.110 586.373 232.932 Q 587.322 234.753 588.676 237.313 Q 590.030 239.873 591.414 242.598 Q 592.799 245.323 593.651 247.059 Q 594.504 248.796 595.695 251.824 Q 596.886 254.852 597.601 257.087 Q 598.315 259.323 599.625 262.584 Q 600.934 265.845 601.658 267.398 Q 602.383 268.952 602.929 269.943 Q 603.475 270.935 604.932 274.267 Q 606.390 277.600 607.189 279.342 Q 607.989 281.083 608.469 282.011 Q 608.949 282.940 609.139 283.322 Q 609.328 283.704 609.497 284.110 Q 609.063 284.054 609.120 284.017 Q 609.015 283.910 607.219 282.870 Q 605.423 281.829 604.059 280.888 Q 602.696 279.946 602.083 278.374 Q 602.418 277.907 604.362 279.622 Q 606.307 281.337 607.329 282.214 Q 608.351 283.092 609.016 283.530 Q 609.682 283.967 610.290 283.868 Q 610.451 283.145 610.332 278.205 Q 610.212 273.264 610.439 268.396 Q 610.333 268.438 610.227 268.479 "></path>
    <path id="STROKE_b12be368-b085-4f6f-8b0b-d952da3b5597" opacity="1.000" fill="none" stroke="#71c047" stroke-width="1.200" stroke-opacity="1.000" stroke-linecap="round" stroke-linejoin="round" d="M 617.581 213.257 Q 617.581 213.257 617.780 213.359 Q 617.978 213.461 619.365 214.719 Q 620.752 215.977 624.577 219.496 Q 628.402 223.015 631.901 226.679 Q 635.400 230.342 639.814 235.787 Q 644.228 241.233 647.784 245.853 Q 651.339 250.472 653.051 252.748 Q 654.763 255.025 656.692 257.216 Q 658.621 259.407 659.867 260.832 Q 661.112 262.256 662.478 263.676 Q 663.844 265.095 665.170 266.559 Q 664.855 266.537 663.103 266.488 Q 661.351 266.439 659.697 265.940 Q 658.042 265.441 656.738 264.047 Q 656.819 263.220 665.993 267.220 Q 666.025 266.488 665.562 263.996 Q 665.099 261.504 664.910 259.871 Q 664.721 258.237 664.426 257.000 Q 664.130 255.763 663.598 255.465 Q 663.066 255.166 662.930 255.112 "></path>
    <path id="STROKE_7ef752d6-6adc-4023-a874-215be65a28ad" opacity="1.000" fill="none" stroke="#71c047" stroke-width="1.200" stroke-opacity="1.000" stroke-linecap="round" stroke-linejoin="round" d="M 661.505 205.232 Q 661.513 205.855 663.738 207.028 Q 665.964 208.202 669.161 209.585 Q 672.358 210.968 674.188 211.810 Q 676.018 212.653 678.112 213.827 Q 680.206 215.001 681.952 216.114 Q 683.697 217.227 685.078 218.156 Q 686.459 219.084 688.077 220.228 Q 689.694 221.372 691.678 222.596 Q 693.663 223.821 694.967 224.944 Q 696.271 226.067 698.412 228.191 Q 700.554 230.315 702.565 231.879 Q 704.575 233.443 705.625 234.201 Q 706.675 234.959 708.469 236.266 Q 710.263 237.573 711.355 238.309 Q 712.447 239.045 713.318 240.108 Q 714.188 241.171 715.159 241.962 Q 714.987 241.902 712.683 241.485 Q 710.379 241.067 706.693 239.126 Q 706.483 238.978 708.943 240.164 Q 711.403 241.349 715.062 241.987 Q 715.083 241.431 715.074 241.485 Q 715.250 241.601 714.528 239.560 Q 713.806 237.519 713.510 236.078 Q 713.215 234.637 713.289 232.792 Q 713.327 232.780 713.407 232.813 Q 713.488 232.846 713.539 232.913 "></path>
  </g>
</svg>