<?xml version="1.0" encoding="UTF-8" standalone="yes"?>
<svg xmlns="http://www.w3.org/2000/svg" xmlns:xlink="http://www.w3.org/1999/xlink" width="121.060mm" height="84.475mm" version="1.1" viewBox="299.318 -73.997 629.131 439.004">
  <!--
	Exported with Concepts: Smarter Sketching
	Version: 916 on iOS 14.4
	https://concepts.app/
	-->
  <title>Approximating area intro</title>
  <desc>Drawing exported from Concepts: Smarter Sketching</desc>
  <defs></defs>
  <rect x="299.318" y="-73.997" width="629.131" height="439.004" stroke="none" fill="white"></rect>
  <g id="Wire" opacity="1.000">
    <path id="STROKE_b6e58c1e-0274-42fb-b989-381f7d4150be" opacity="1.000" fill="none" stroke="#000000" stroke-width="1.200" stroke-opacity="1.000" stroke-linecap="round" stroke-linejoin="round" d="M 365.143 -61.451 Q 365.143 -61.174 365.143 -63.786 Q 365.131 -64.419 362.917 -60.912 Q 360.703 -57.405 356.476 -50.988 Q 352.249 -44.572 348.155 -37.788 Q 348.013 -36.898 351.662 -45.079 Q 355.311 -53.260 357.291 -57.444 Q 359.270 -61.629 360.445 -63.903 Q 361.620 -66.177 363.600 -66.783 Q 364.477 -66.095 367.350 -55.849 Q 370.222 -45.603 376.812 -34.703 Q 377.240 -34.249 373.575 -40.928 Q 369.910 -47.606 367.834 -51.180 Q 365.757 -54.754 363.640 -56.919 Q 361.523 -59.083 359.441 -60.415 Q 359.181 -60.669 359.413 -60.473 Q 359.644 -60.276 359.492 -60.530 Q 359.340 -60.785 359.795 -60.322 Q 360.250 -59.859 360.613 -59.435 Q 360.977 -59.011 360.985 -58.637 Q 360.994 -58.264 361.168 -57.543 Q 361.341 -56.822 361.252 -57.346 Q 361.162 -57.870 361.523 -55.816 Q 361.884 -53.762 362.163 -45.520 Q 362.442 -37.278 362.626 -28.650 Q 362.810 -20.021 363.396 -6.543 Q 363.982 6.935 364.401 14.146 Q 364.821 21.357 365.910 33.157 Q 366.999 44.957 368.772 57.729 Q 370.546 70.502 371.188 85.835 Q 371.830 101.168 371.324 117.917 Q 370.817 134.667 370.338 143.496 Q 369.859 152.326 369.033 168.416 Q 368.207 184.506 367.523 194.412 Q 366.839 204.317 365.801 236.678 Q 364.764 269.039 363.627 290.015 Q 362.490 310.992 361.793 320.454 Q 361.097 329.917 360.520 335.100 Q 359.943 340.284 360.235 351.995 Q 360.338 351.995 360.382 351.995 Q 360.459 351.416 360.259 350.913 Q 360.058 350.409 359.735 349.748 "></path>
    <path id="STROKE_b05860e0-9530-44ec-852d-076150a83dbb" opacity="1.000" fill="none" stroke="#000000" stroke-width="1.200" stroke-opacity="1.000" stroke-linecap="round" stroke-linejoin="round" d="M 306.595 298.191 Q 306.595 299.559 306.595 299.227 Q 306.326 298.295 306.983 300.066 Q 307.639 301.837 314.731 302.821 Q 321.823 303.806 328.318 303.929 Q 334.813 304.052 344.945 304.535 Q 355.077 305.019 360.833 305.239 Q 366.589 305.459 375.108 305.589 Q 383.627 305.720 397.613 303.958 Q 411.599 302.196 418.812 301.263 Q 426.026 300.330 445.764 299.380 Q 465.501 298.431 475.622 298.063 Q 485.742 297.696 492.624 297.746 Q 499.506 297.797 505.841 297.576 Q 512.176 297.354 540.416 299.566 Q 568.655 301.778 584.085 303.205 Q 599.514 304.631 606.674 304.838 Q 613.835 305.045 628.623 305.031 Q 643.411 305.017 650.542 305.050 Q 657.674 305.082 667.408 305.135 Q 677.143 305.189 690.505 304.833 Q 703.867 304.477 719.812 305.679 Q 735.756 306.881 743.703 307.945 Q 751.650 309.010 755.657 309.105 Q 759.664 309.199 770.083 310.469 Q 780.502 311.739 786.932 312.018 Q 793.363 312.297 804.854 312.365 Q 816.345 312.433 822.317 312.639 Q 828.289 312.845 831.005 312.746 Q 833.721 312.648 845.520 313.552 Q 857.319 314.455 868.047 315.995 Q 878.776 317.535 885.046 317.963 Q 891.317 318.391 895.659 317.613 Q 895.643 317.714 892.341 315.915 Q 889.039 314.116 886.405 311.023 Q 883.772 307.930 880.795 305.030 Q 877.819 302.130 875.548 300.683 Q 873.277 299.236 870.030 298.852 Q 869.808 298.944 869.886 299.052 Q 869.964 299.161 870.029 299.108 Q 870.094 299.056 869.522 299.262 Q 868.950 299.467 876.270 303.089 Q 883.589 306.711 887.665 308.781 Q 891.742 310.850 893.690 311.856 Q 895.638 312.862 896.680 314.144 Q 897.723 315.426 897.699 316.709 Q 897.676 317.993 897.138 318.353 Q 896.600 318.712 896.424 318.903 Q 896.249 319.094 895.738 319.322 Q 895.228 319.550 889.155 323.478 Q 883.083 327.406 874.380 340.120 Q 875.588 339.398 875.452 339.271 Q 875.671 338.806 876.142 337.987 Q 876.613 337.167 876.790 336.837 "></path>
    <path id="STROKE_883bb75c-d147-4745-9727-b508394d2b6e" opacity="1.000" fill="none" stroke="#009ef1" stroke-width="1.200" stroke-opacity="1.000" stroke-linecap="round" stroke-linejoin="round" d="M 314.435 225.549 Q 311.554 224.728 322.895 211.015 Q 334.236 197.301 342.046 188.924 Q 349.855 180.546 353.397 176.508 Q 356.939 172.470 366.920 163.961 Q 376.901 155.452 382.604 151.025 Q 388.308 146.597 393.481 142.787 Q 398.654 138.977 404.714 135.436 Q 410.774 131.894 413.601 130.387 Q 416.427 128.880 422.480 125.908 Q 428.533 122.936 437.502 119.530 Q 446.470 116.124 461.671 114.008 Q 476.872 111.891 488.490 111.415 Q 500.108 110.940 505.659 110.359 Q 511.210 109.779 520.808 111.227 Q 530.405 112.674 535.800 113.770 Q 541.194 114.865 552.166 117.884 Q 563.137 120.902 575.519 125.406 Q 587.901 129.910 594.472 132.911 Q 601.042 135.912 615.575 142.059 Q 630.107 148.206 637.807 151.440 Q 645.507 154.675 653.847 157.395 Q 662.186 160.115 667.872 161.811 Q 673.558 163.507 683.456 165.936 Q 693.353 168.366 699.229 169.453 Q 705.105 170.540 712.166 170.718 Q 719.227 170.896 725.149 170.677 Q 731.071 170.457 738.332 168.094 Q 745.592 165.732 752.127 161.850 Q 758.661 157.969 765.682 152.208 Q 772.704 146.447 777.184 141.777 Q 781.664 137.107 784.014 134.335 Q 786.364 131.562 790.066 126.931 Q 793.768 122.299 799.170 112.879 Q 804.572 103.459 807.386 97.226 Q 810.199 90.994 813.319 84.165 Q 816.438 77.337 821.211 68.376 Q 825.983 59.416 830.667 45.915 Q 830.827 45.795 832.166 45.805 Q 830.797 45.810 830.902 45.860 Q 830.694 44.956 813.120 58.540 Q 813.347 58.798 817.345 55.437 Q 821.342 52.076 831.784 41.971 Q 830.912 42.941 832.923 53.376 Q 834.933 63.812 838.926 74.536 L 838.985 74.536 Q 838.650 74.883 836.988 72.225 Q 835.325 69.567 834.958 69.006 "></path>
    <path id="STROKE_a2207117-f827-4840-8eb7-22c29f1dbf3b" opacity="1.000" fill="none" stroke="#009ef1" stroke-width="1.200" stroke-opacity="1.000" stroke-linecap="round" stroke-linejoin="round" d="M 311.349 226.673 Q 311.420 226.904 311.652 227.485 Q 311.884 228.067 311.840 228.009 Q 311.795 227.950 311.802 227.959 Q 311.810 227.967 311.820 228.259 Q 311.385 228.369 313.447 218.703 Q 315.508 209.038 319.711 199.352 L 319.755 199.352 Q 320.574 198.881 318.486 204.983 Q 316.398 211.085 314.288 227.223 Q 315.745 228.076 322.058 224.567 Q 328.370 221.058 340.094 219.380 Q 340.050 219.380 339.822 219.495 Q 339.595 219.611 339.183 219.842 "></path>
    <path id="STROKE_79673408-1c6a-4eff-aa64-499ae0dd525c" opacity="1.000" fill="none" stroke="#000000" stroke-width="1.200" stroke-opacity="1.000" stroke-linecap="round" stroke-linejoin="round" d="M 467.183 101.570 Q 467.213 101.872 467.124 110.705 Q 467.036 119.538 466.977 120.012 "></path>
    <path id="STROKE_d9fe4e78-ea09-449e-8736-7056e366f60e" opacity="1.000" fill="none" stroke="#000000" stroke-width="1.200" stroke-opacity="1.000" stroke-linecap="round" stroke-linejoin="round" d="M 466.801 149.381 Q 466.948 150.811 466.889 150.736 Q 467.057 149.417 466.723 157.452 Q 466.389 165.487 466.154 165.862 "></path>
    <path id="STROKE_46a479fc-e9de-4486-b01a-3fb6db361e77" opacity="1.000" fill="none" stroke="#000000" stroke-width="1.200" stroke-opacity="1.000" stroke-linecap="round" stroke-linejoin="round" d="M 465.508 188.313 Q 465.455 187.346 465.604 189.375 Q 465.753 191.404 465.600 195.294 Q 465.447 199.183 465.477 202.264 Q 465.508 205.345 465.508 205.719 "></path>
    <path id="STROKE_8032861b-f184-448a-814e-968367302e30" opacity="1.000" fill="none" stroke="#000000" stroke-width="1.200" stroke-opacity="1.000" stroke-linecap="round" stroke-linejoin="round" d="M 465.772 224.602 Q 466.210 224.808 465.912 229.108 Q 465.615 233.407 465.247 235.643 Q 464.880 237.879 464.304 240.715 Q 463.729 243.550 463.538 243.880 "></path>
    <path id="STROKE_8b97b979-c4c1-4611-85ab-4dd9beab2239" opacity="1.000" fill="none" stroke="#000000" stroke-width="1.200" stroke-opacity="1.000" stroke-linecap="round" stroke-linejoin="round" d="M 464.655 263.445 Q 465.485 264.740 465.283 272.206 Q 465.081 279.673 464.949 279.992 "></path>
    <path id="STROKE_21c3cf66-3036-4b57-b0fe-d764b8f44e3a" opacity="1.000" fill="none" stroke="#000000" stroke-width="1.200" stroke-opacity="1.000" stroke-linecap="round" stroke-linejoin="round" d="M 466.977 294.401 Q 467.869 293.325 467.173 301.024 Q 466.477 308.723 466.242 309.097 "></path>
    <path id="STROKE_00a1ee1b-d8d4-454a-8111-bd412d4a516e" opacity="1.000" fill="none" stroke="#000000" stroke-width="1.200" stroke-opacity="1.000" stroke-linecap="round" stroke-linejoin="round" d="M 677.067 148.831 Q 677.348 147.914 677.002 155.665 Q 676.656 163.416 676.421 163.791 "></path>
    <path id="STROKE_5404eb20-2e18-4462-b26a-16049a5e1998" opacity="1.000" fill="none" stroke="#000000" stroke-width="1.200" stroke-opacity="1.000" stroke-linecap="round" stroke-linejoin="round" d="M 675.010 175.953 Q 675.156 176.518 675.236 176.826 Q 675.316 177.135 675.336 177.318 Q 675.355 177.500 675.365 177.514 Q 675.374 177.528 675.450 178.063 Q 675.526 178.598 675.800 180.543 Q 676.074 182.487 675.616 186.171 Q 675.157 189.856 674.922 190.186 "></path>
    <path id="STROKE_28eba4fc-ea6f-4ed6-8b5d-07f74cbbdba7" opacity="1.000" fill="none" stroke="#000000" stroke-width="1.200" stroke-opacity="1.000" stroke-linecap="round" stroke-linejoin="round" d="M 674.922 200.189 Q 675.021 201.722 675.054 201.412 Q 675.278 202.333 675.329 202.523 Q 675.379 202.714 675.304 202.756 Q 675.424 204.425 675.403 204.347 Q 675.383 204.269 675.389 204.491 Q 675.395 204.714 675.394 205.115 Q 675.393 205.517 675.363 206.211 Q 675.333 206.905 675.539 207.134 Q 675.745 207.364 674.981 211.471 Q 674.216 215.579 673.981 215.810 "></path>
    <path id="STROKE_7edbe093-e3b6-4d1c-83f5-2a383ec49ee3" opacity="1.000" fill="none" stroke="#000000" stroke-width="1.200" stroke-opacity="1.000" stroke-linecap="round" stroke-linejoin="round" d="M 674.099 226.584 Q 674.268 225.904 674.534 231.122 Q 674.801 236.340 674.068 239.713 Q 673.334 243.087 673.158 243.418 "></path>
    <path id="STROKE_0b0e8a0b-93f8-4c84-b8eb-a7ae1324dc91" opacity="1.000" fill="none" stroke="#000000" stroke-width="1.200" stroke-opacity="1.000" stroke-linecap="round" stroke-linejoin="round" d="M 673.246 253.993 Q 673.327 255.328 673.379 255.150 Q 673.840 256.639 673.761 256.373 Q 674.365 255.429 673.850 261.960 Q 673.334 268.491 673.158 268.777 "></path>
    <path id="STROKE_a98d4189-777d-4ec8-b093-24e6624b9aa9" opacity="1.000" fill="none" stroke="#000000" stroke-width="1.200" stroke-opacity="1.000" stroke-linecap="round" stroke-linejoin="round" d="M 674.833 283.077 Q 675.438 284.846 675.260 284.344 Q 675.798 285.991 675.919 286.477 Q 676.039 286.963 675.995 291.993 Q 675.950 297.023 675.862 297.310 "></path>
    <path id="STROKE_0c8fcd53-7c0e-4ae1-860d-4892c357df16" opacity="1.000" fill="none" stroke="#000000" stroke-width="1.200" stroke-opacity="1.000" stroke-linecap="round" stroke-linejoin="round" d="M 678.948 305.925 Q 679.688 307.252 679.463 306.850 Q 679.516 305.512 679.511 309.084 Q 679.507 312.656 679.507 312.931 "></path>
    <path id="STROKE_035c8318-5943-465e-9f6f-b6bdee6c4eef" opacity="1.000" fill="none" stroke="#000000" stroke-width="1.200" stroke-opacity="1.000" stroke-linecap="round" stroke-linejoin="round" d="M 681.740 338.291 Q 681.740 338.327 681.740 335.845 Q 681.740 335.482 681.740 354.088 Q 681.805 353.897 682.520 352.678 Q 683.235 351.460 684.190 350.313 Q 685.145 349.166 686.689 348.925 Q 688.233 348.684 689.055 348.952 Q 689.876 349.221 690.181 349.753 Q 690.487 350.286 690.491 350.150 Q 690.495 350.014 690.857 351.370 Q 691.220 352.725 691.235 354.048 Q 691.250 355.370 690.731 356.240 Q 690.213 357.109 689.584 357.225 Q 688.956 357.342 687.688 357.741 Q 686.421 358.140 683.706 356.583 Q 680.991 355.025 680.241 354.463 "></path>
    <path id="STROKE_6ebbaaa5-ca4c-4767-b5bd-9b0eba3a98ac" opacity="1.000" fill="none" stroke="#000000" stroke-width="1.200" stroke-opacity="1.000" stroke-linecap="round" stroke-linejoin="round" d="M 473.061 340.913 Q 472.994 340.855 473.114 340.933 Q 473.233 341.012 472.577 340.361 Q 471.920 339.710 471.597 339.484 Q 471.275 339.259 470.821 339.151 Q 470.367 339.043 470.583 339.082 Q 470.799 339.121 469.478 338.976 Q 468.157 338.831 467.425 338.627 Q 466.693 338.422 464.188 340.851 Q 461.683 343.281 460.849 346.415 Q 460.014 349.549 459.944 350.901 Q 459.874 352.254 459.759 352.790 Q 459.643 353.326 460.385 354.250 Q 461.127 355.173 462.375 355.076 Q 463.624 354.980 463.342 355.216 Q 463.060 355.451 464.343 354.279 Q 465.625 353.106 467.657 349.835 Q 469.688 346.563 471.386 339.216 Q 471.548 339.306 471.247 342.453 Q 470.946 345.600 470.943 348.088 Q 470.939 350.575 471.610 351.677 Q 472.281 352.780 473.004 353.440 Q 473.726 354.101 474.265 354.137 Q 474.805 354.173 475.215 354.246 Q 475.625 354.319 476.476 354.167 Q 477.328 354.016 478.156 353.331 Q 478.983 352.645 479.586 352.039 "></path>
    <path id="STROKE_293d74d6-a3ff-4770-b288-b39acc23d79d" opacity="1.000" fill="none" stroke="#71c047" stroke-width="1.200" stroke-opacity="1.000" stroke-linecap="round" stroke-linejoin="round" d="M 503.040 112.719 Q 502.954 112.782 500.691 112.674 Q 498.428 112.566 495.413 117.183 Q 492.399 121.799 490.296 124.896 Q 488.193 127.994 487.027 129.899 Q 485.860 131.805 482.942 136.160 Q 480.024 140.515 476.253 146.666 Q 472.482 152.817 470.577 156.961 Q 468.673 161.106 467.447 164.915 Q 467.447 164.826 467.565 164.452 Q 467.682 164.077 467.918 163.416 "></path>
    <path id="STROKE_031d1679-859b-43d6-b8a9-810115ce239c" opacity="1.000" fill="none" stroke="#71c047" stroke-width="1.200" stroke-opacity="1.000" stroke-linecap="round" stroke-linejoin="round" d="M 543.659 116.266 Q 542.646 116.294 537.816 123.881 Q 532.987 131.467 527.816 138.625 Q 522.645 145.784 517.575 152.898 Q 512.505 160.012 503.805 172.069 Q 495.105 184.126 489.292 191.979 Q 483.479 199.831 472.885 224.800 Q 472.929 224.800 473.722 223.632 Q 474.516 222.464 475.030 221.715 "></path>
    <path id="STROKE_2b5ec1f0-6bd9-48e3-8c22-b40397bb3fd7" opacity="1.000" fill="none" stroke="#71c047" stroke-width="1.200" stroke-opacity="1.000" stroke-linecap="round" stroke-linejoin="round" d="M 578.929 129.640 Q 576.900 129.489 574.115 132.931 Q 571.330 136.373 564.907 147.417 Q 558.484 158.461 551.685 168.360 Q 544.885 178.259 540.074 184.697 Q 535.264 191.134 527.836 200.090 Q 520.409 209.047 516.751 213.533 Q 513.094 218.019 509.698 222.448 Q 506.301 226.877 499.962 234.732 Q 493.623 242.587 488.325 249.852 Q 483.028 257.118 480.020 261.389 Q 477.013 265.661 474.584 270.721 Q 472.154 275.781 472.223 281.160 Q 472.415 281.204 472.664 280.901 Q 472.914 280.598 473.149 280.080 "></path>
    <path id="STROKE_0d95a4cc-6e25-4b7a-a58a-7f1822786f70" opacity="1.000" fill="none" stroke="#71c047" stroke-width="1.200" stroke-opacity="1.000" stroke-linecap="round" stroke-linejoin="round" d="M 611.818 137.043 Q 611.843 137.800 609.823 139.172 Q 607.804 140.545 604.645 144.710 Q 601.486 148.875 598.520 153.028 Q 595.555 157.182 591.721 163.298 Q 587.887 169.414 575.906 187.184 "></path>
    <path id="STROKE_ee0255f0-dfbb-4500-b77b-64fdfe614f25" opacity="1.000" fill="none" stroke="#71c047" stroke-width="1.200" stroke-opacity="1.000" stroke-linecap="round" stroke-linejoin="round" d="M 537.761 235.873 Q 531.150 244.341 523.617 253.654 Q 516.084 262.967 512.438 268.071 Q 508.792 273.175 505.498 276.782 Q 502.204 280.389 496.222 291.780 Q 496.449 292.764 499.069 289.909 Q 501.688 287.055 503.665 283.948 Q 505.642 280.840 506.567 279.353 "></path>
    <path id="STROKE_cf571770-83b9-468d-a60d-a9c32b95699a" opacity="1.000" fill="none" stroke="#71c047" stroke-width="1.200" stroke-opacity="1.000" stroke-linecap="round" stroke-linejoin="round" d="M 638.711 152.091 Q 639.635 152.091 641.121 152.091 Q 641.907 152.247 636.266 159.839 Q 630.624 167.431 624.210 175.728 Q 617.797 184.024 613.766 189.141 "></path>
    <path id="STROKE_a15b6231-9398-4cba-a95d-759d3be36c73" opacity="1.000" fill="none" stroke="#71c047" stroke-width="1.200" stroke-opacity="1.000" stroke-linecap="round" stroke-linejoin="round" d="M 579.921 233.831 Q 573.825 242.304 569.521 248.820 Q 565.218 255.335 563.096 258.552 Q 560.975 261.769 559.314 263.861 Q 557.653 265.953 541.602 290.568 Q 541.867 290.374 543.968 286.334 Q 546.069 282.294 546.628 280.939 "></path>
    <path id="STROKE_fc3d4dd2-ed67-4b28-82d5-dfe0c644c5a7" opacity="1.000" fill="none" stroke="#71c047" stroke-width="1.200" stroke-opacity="1.000" stroke-linecap="round" stroke-linejoin="round" d="M 675.304 160.883 Q 676.760 159.888 677.537 157.534 Q 676.660 157.254 670.631 166.723 Q 664.602 176.192 660.339 183.377 Q 656.075 190.562 650.983 198.038 Q 645.890 205.515 642.311 210.718 Q 638.731 215.921 634.312 222.127 Q 629.894 228.332 622.334 238.659 Q 614.774 248.985 610.427 255.138 Q 606.081 261.290 601.910 268.215 Q 597.740 275.139 594.738 279.788 Q 591.737 284.436 589.612 287.442 Q 587.488 290.449 582.868 297.971 Q 583.057 297.427 585.086 292.923 Q 587.115 288.420 587.541 287.571 "></path>
    <path id="STROKE_69d54411-3c91-4a79-b1e7-b5288378b3f6" opacity="1.000" fill="none" stroke="#71c047" stroke-width="1.200" stroke-opacity="1.000" stroke-linecap="round" stroke-linejoin="round" d="M 670.454 246.128 Q 670.498 246.128 670.807 246.128 Q 670.483 246.214 671.105 246.203 Q 671.727 246.192 666.098 254.459 Q 660.470 262.726 655.931 268.455 Q 651.393 274.184 647.891 278.549 Q 644.390 282.913 642.566 284.856 Q 640.742 286.799 636.235 292.123 Q 631.728 297.447 628.953 301.778 Q 626.178 306.110 624.780 309.979 Q 625.721 310.602 627.844 307.647 Q 629.967 304.691 630.658 303.567 "></path>
    <path id="STROKE_b9ab3bc2-1e03-4652-b96d-fc279102189c" opacity="1.000" fill="none" stroke="#71c047" stroke-width="1.200" stroke-opacity="1.000" stroke-linecap="round" stroke-linejoin="round" d="M 670.160 281.402 Q 670.599 281.877 670.423 281.642 Q 670.246 281.408 670.263 281.434 Q 670.280 281.460 670.313 281.514 Q 670.347 281.567 670.684 281.991 Q 671.020 282.415 671.370 282.875 Q 671.720 283.335 671.598 283.291 Q 671.477 283.247 671.596 283.451 Q 671.715 283.655 671.788 284.237 Q 671.861 284.819 670.917 286.061 Q 669.972 287.303 667.294 290.406 Q 664.615 293.509 654.935 306.013 Q 654.980 305.781 655.215 305.242 Q 655.450 304.702 655.876 303.854 "></path>
    <path id="STROKE_092058a7-3654-47ca-b013-bd473efe0f4b" opacity="1.000" fill="none" stroke="#71c047" stroke-width="1.200" stroke-opacity="1.000" stroke-linecap="round" stroke-linejoin="round" d="M 565.674 221.517 Q 564.139 222.948 564.638 222.496 Q 565.138 222.044 563.734 223.213 Q 563.622 223.545 573.433 197.104 Q 574.912 197.159 574.638 197.424 Q 576.890 198.837 581.369 224.139 Q 581.369 224.051 581.229 223.819 Q 581.089 223.588 580.810 223.213 "></path>
    <path id="STROKE_a28cc608-8397-408f-8b44-3e607f50b363" opacity="1.000" fill="none" stroke="#71c047" stroke-width="1.200" stroke-opacity="1.000" stroke-linecap="round" stroke-linejoin="round" d="M 579.311 209.553 Q 578.157 210.240 573.208 210.503 Q 568.260 210.765 568.025 210.478 "></path>
    <path id="STROKE_d925f91b-a9aa-4242-9e21-fed68c670154" opacity="1.000" fill="none" stroke="#009ef1" stroke-width="1.200" stroke-opacity="1.000" stroke-linecap="round" stroke-linejoin="round" d="M 879.486 35.890 Q 879.375 35.748 879.659 31.858 Q 879.942 27.968 876.606 23.442 Q 875.643 23.436 874.503 32.984 Q 873.363 42.532 872.138 47.983 Q 870.914 53.435 870.292 55.897 Q 869.669 58.360 868.450 60.537 Q 867.231 62.714 865.804 63.052 Q 864.377 63.391 862.983 62.735 Q 861.590 62.079 861.206 58.509 Q 860.823 54.938 860.529 53.957 "></path>
    <path id="STROKE_1e618986-2dd8-420a-bd6c-414324113678" opacity="1.000" fill="none" stroke="#009ef1" stroke-width="1.200" stroke-opacity="1.000" stroke-linecap="round" stroke-linejoin="round" d="M 862.792 41.971 Q 862.704 42.348 862.938 43.037 Q 863.172 43.725 863.262 43.581 Q 863.353 43.437 863.569 43.868 Q 863.785 44.298 871.099 45.476 Q 878.413 46.653 878.928 46.752 "></path>
    <path id="STROKE_ca53600e-fd9b-42e5-b762-294d907a75bb" opacity="1.000" fill="none" stroke="#009ef1" stroke-width="1.200" stroke-opacity="1.000" stroke-linecap="round" stroke-linejoin="round" d="M 897.973 33.555 Q 898.038 32.898 896.809 32.727 Q 895.580 32.557 894.697 32.510 Q 893.814 32.463 892.122 34.656 Q 890.429 36.849 889.156 39.967 Q 887.884 43.086 887.216 45.457 Q 886.548 47.829 886.133 51.087 Q 885.717 54.345 886.140 56.271 Q 886.563 58.196 887.995 59.003 Q 888.318 58.628 888.539 58.254 "></path>
    <path id="STROKE_9c8ea574-2e17-42b9-bff2-b61d02aa1e44" opacity="1.000" fill="none" stroke="#009ef1" stroke-width="1.200" stroke-opacity="1.000" stroke-linecap="round" stroke-linejoin="round" d="M 897.327 45.056 Q 897.220 45.065 896.901 44.175 Q 897.906 43.592 899.293 43.967 Q 900.680 44.343 900.915 45.113 Q 901.150 45.883 901.219 46.796 Q 901.287 47.709 901.303 48.132 Q 901.320 48.555 901.238 49.137 Q 901.156 49.718 900.840 50.564 Q 900.524 51.409 900.152 51.980 Q 899.779 52.552 899.177 53.573 Q 898.574 54.593 897.885 55.455 Q 899.369 53.536 902.193 50.051 Q 905.016 46.566 906.673 43.470 Q 905.934 45.224 906.115 44.825 Q 905.390 46.832 905.600 46.378 Q 905.561 46.973 905.256 47.779 Q 904.950 48.585 905.172 49.712 Q 905.394 50.840 905.395 52.241 Q 905.397 53.643 906.787 53.801 Q 908.176 53.960 908.920 53.967 Q 909.663 53.973 910.250 53.216 Q 910.838 52.459 911.526 51.313 Q 912.214 50.168 912.640 49.462 "></path>
    <path id="STROKE_b0345746-1330-44c4-a8c3-dbebe7f944f8" opacity="1.000" fill="none" stroke="#009ef1" stroke-width="1.200" stroke-opacity="1.000" stroke-linecap="round" stroke-linejoin="round" d="M 916.284 34.392 Q 916.421 34.555 916.782 35.145 Q 917.144 35.735 917.317 36.118 Q 917.490 36.501 917.447 36.541 Q 917.403 36.581 917.428 36.539 Q 917.452 36.497 919.061 39.602 Q 920.670 42.708 920.961 45.479 Q 921.253 48.251 921.181 51.223 Q 921.109 54.196 918.658 57.021 Q 916.207 59.845 914.049 60.829 Q 911.890 61.812 911.141 61.999 "></path>
  </g>
</svg>