<?xml version="1.0" ?>
<svg height="800" version="1.1" width="800" xmlns="http://www.w3.org/2000/svg" xmlns:xlink="http://www.w3.org/1999/xlink">
	<defs/>
	<g transform="scale(2,2)">
		<g id="background-f50b8c49">
			<rect class="dcg-svg-background" fill="white" height="400" stroke="none" width="400" x="0" y="0"/>
		</g>
		<g id="background-images-f50b8c49"/>
		<g id="graphpaper-f50b8c49">
			<g id="axis-f50b8c49">
				<g id="yaxis-f50b8c49">
					<title>Y axis</title>
					<path class="dcg-svg-axis-line" d=" M 51 3 L 51 397" fill="none" paint-order="fill stroke markers" stroke="rgb(0,0,0)" stroke-dasharray="" stroke-miterlimit="10" stroke-opacity="0.9" stroke-width="1.5"/>
					<g class="dcg-svg-axis-line">
						<path class="dcg-svg-axis-line" d=" M 51 398.5 L 47.894171458769755 386.9088900845312 L 54.105828541230245 386.9088900845312 L 51 398.5 L 47.894171458769755 386.9088900845312" fill="rgb(0,0,0)" fill-opacity="0.9" paint-order="stroke fill markers" stroke="rgb(0,0,0)" stroke-dasharray="" stroke-linejoin="round" stroke-miterlimit="10" stroke-opacity="0.9" stroke-width="1.5"/>
					</g>
					<g class="dcg-svg-axis-line">
						<path class="dcg-svg-axis-line" d=" M 51 1.5 L 54.10582854123025 13.09110991546882 L 47.894171458769755 13.09110991546882 L 51 1.5 L 54.10582854123025 13.09110991546882" fill="rgb(0,0,0)" fill-opacity="0.9" paint-order="stroke fill markers" stroke="rgb(0,0,0)" stroke-dasharray="" stroke-linejoin="round" stroke-miterlimit="10" stroke-opacity="0.9" stroke-width="1.5"/>
					</g>
				</g>
				<g id="xaxis-f50b8c49">
					<title>X axis</title>
					<path class="dcg-svg-axis-line" d=" M 3 303 L 397 303" fill="none" paint-order="fill stroke markers" stroke="rgb(0,0,0)" stroke-dasharray="" stroke-miterlimit="10" stroke-opacity="0.9" stroke-width="1.5"/>
					<g class="dcg-svg-axis-line">
						<path class="dcg-svg-axis-line" d=" M 1.5 303 L 13.09110991546882 299.89417145876973 L 13.09110991546882 306.10582854123027 L 1.5 303 L 13.09110991546882 299.89417145876973" fill="rgb(0,0,0)" fill-opacity="0.9" paint-order="stroke fill markers" stroke="rgb(0,0,0)" stroke-dasharray="" stroke-linejoin="round" stroke-miterlimit="10" stroke-opacity="0.9" stroke-width="1.5"/>
					</g>
					<g class="dcg-svg-axis-line">
						<path class="dcg-svg-axis-line" d=" M 398.5 303 L 386.9088900845312 306.10582854123027 L 386.9088900845312 299.89417145876973 L 398.5 303 L 386.9088900845312 306.10582854123027" fill="rgb(0,0,0)" fill-opacity="0.9" paint-order="stroke fill markers" stroke="rgb(0,0,0)" stroke-dasharray="" stroke-linejoin="round" stroke-miterlimit="10" stroke-opacity="0.9" stroke-width="1.5"/>
					</g>
				</g>
				<g>
					<g>
						<path class="dcg-svg-tickmark" d="" fill="none" paint-order="fill stroke markers" stroke="rgb(0,0,0)" stroke-dasharray="" stroke-miterlimit="2" stroke-opacity="0.9" stroke-width="1.5"/>
					</g>
				</g>
			</g>
		</g>
		<g id="expressions-f50b8c49">
			<g id="sketch-f50b8c49">
				<title>Expression 1</title>
				<path d="" fill="#2d70b3" fill-opacity="0.4" paint-order="stroke fill markers" stroke="none"/>
				<g>
					<path class="dcg-svg-curve" d=" M 128.91668014315388 107.44393014904239 L 128.91668014315388 107.44393014904239 L 132.92035944319034 123.04724170682863 L 136.82638802859177 137.47703151856223 L 140.63476589935817 150.7920368562041 L 144.34549305548953 163.04952655991625 L 147.95856949698583 174.3053010380614 L 151.57164593848216 184.89098113858574 L 155.08707166534344 194.54738864896157 L 158.5048466775697 203.32738711395388 L 161.8249709751609 211.2823716465283 L 165.0474445581171 218.46226892785168 L 168.17226742643822 224.9155372072919 L 171.29709029475939 230.8675807659988 L 174.32426244844552 236.15564841291413 L 177.25378388749655 240.82526153380755 L 180.08565461191262 244.92047308264978 L 182.91752533632865 248.60403425049924 L 185.7493960607447 251.87594503735588 L 188.4836160705257 254.6444284557807 L 191.21783608030668 257.0291616973942 L 194.04970680472272 259.0945110227202 L 196.78392681450373 260.6980385472534 L 199.32284539501467 261.84341535049145 L 201.76411326089053 262.63269744246634 L 204.10773041213142 263.1025956181537 L 206.35369684873723 263.2883522407302 L 208.599663285343 263.21517538941214 L 210.84562972194882 262.8830650641998 L 213.18924687318972 262.260449981414 L 215.53286402443058 261.35589599321577 L 217.97413189030644 260.1138474298754 L 220.61070118545243 258.4288219404964 L 223.3449211952334 256.30449060457636 L 226.07914120501442 253.7964090918449 L 228.8133612147954 250.90457740230207 L 231.54758122457642 247.6289955359479 L 234.37945194899243 243.83187564230738 L 237.21132267340852 239.62310536767396 L 240.14084411245958 234.83601770285867 L 243.07036555151063 229.6084004983365 L 246.09753770519671 223.74372863167147 L 249.22236057351788 217.19648071709383 L 252.34718344183898 210.14800808178305 L 255.56965702479522 202.35430630846778 L 258.88978132238645 193.76691714778076 L 262.3075563346126 184.33591391855506 L 265.82298206147397 174.00990150782457 L 269.4360585029703 162.7360163708248 L 273.1467856591016 150.45992653099182 L 276.857512815233 137.47703151856223 L 280.6658906859994 123.4175312588157 L 284.5719192714008 108.22415691159 L 284.76722070067086 107.44393014904239" fill="none" paint-order="fill stroke markers" stroke="#2d70b3" stroke-dasharray="" stroke-linecap="round" stroke-linejoin="round" stroke-miterlimit="10" stroke-opacity="0.9" stroke-width="2.5"/>
				</g>
			</g>
			<g id="sketch-f50b8c49">
				<title>Expression 3</title>
				<path d="" fill="#c74440" fill-opacity="0.4" paint-order="stroke fill markers" stroke="none"/>
				<g>
					<path class="dcg-svg-curve" d=" M 128.91668014315388 107.44393014904239 L 139.91668014315388 107.44393014904239 M 146.91668014315388 107.44393014904239 L 157.91668014315388 107.44393014904239 M 164.91668014315388 107.44393014904239 L 175.91668014315388 107.44393014904239 M 182.91668014315388 107.44393014904239 L 193.91668014315388 107.44393014904239 M 200.91668014315388 107.44393014904239 L 211.91668014315388 107.44393014904239 M 218.91668014315388 107.44393014904239 L 229.91668014315388 107.44393014904239 M 236.91668014315388 107.44393014904239 L 247.91668014315388 107.44393014904239 M 254.91668014315388 107.44393014904239 L 265.9166801431539 107.44393014904239 M 272.9166801431539 107.44393014904239 L 283.9166801431539 107.44393014904239" fill="none" paint-order="fill stroke markers" stroke="#c74440" stroke-dasharray="" stroke-linecap="round" stroke-linejoin="round" stroke-miterlimit="10" stroke-opacity="0.9" stroke-width="2.5"/>
				</g>
			</g>
			<g id="sketch-f50b8c49">
				<title>Expression 4</title>
				<path d="" fill="#c74440" fill-opacity="0.4" paint-order="stroke fill markers" stroke="none"/>
				<g>
					<path class="dcg-svg-curve" d=" M 128.91668014315388 263.2944707065594 L 139.91668014315388 263.2944707065594 M 146.91668014315388 263.2944707065594 L 157.91668014315388 263.2944707065594 M 164.91668014315388 263.2944707065594 L 175.91668014315388 263.2944707065594 M 182.91668014315388 263.2944707065594 L 193.91668014315388 263.2944707065594 M 200.91668014315388 263.2944707065594 L 211.91668014315388 263.2944707065594 M 218.91668014315388 263.2944707065594 L 229.91668014315388 263.2944707065594 M 236.91668014315388 263.2944707065594 L 247.91668014315388 263.2944707065594 M 254.91668014315388 263.2944707065594 L 265.9166801431539 263.2944707065594 M 272.9166801431539 263.2944707065594 L 283.9166801431539 263.2944707065594" fill="none" paint-order="fill stroke markers" stroke="#c74440" stroke-dasharray="" stroke-linecap="round" stroke-linejoin="round" stroke-miterlimit="10" stroke-opacity="0.9" stroke-width="2.5"/>
				</g>
			</g>
			<g id="sketch-f50b8c49">
				<title>a</title>
				<path class="dcg-svg-point" d=" M 128.8166801431539 302.15710584593864 L 128.8166801431539 302.3571058459387 L 129.01668014315388 302.3571058459387 L 129.01668014315388 302.15710584593864" fill="none" paint-order="fill stroke markers" stroke="#000000" stroke-dasharray="" stroke-linecap="round" stroke-linejoin="round" stroke-miterlimit="10" stroke-opacity="0.9" stroke-width="7.5"/>
			</g>
			<g id="sketch-f50b8c49">
				<title>b</title>
				<path class="dcg-svg-point" d=" M 284.6672207006709 302.15710584593864 L 284.6672207006709 302.3571058459387 L 284.86722070067094 302.3571058459387 L 284.86722070067094 302.15710584593864" fill="none" paint-order="fill stroke markers" stroke="#000000" stroke-dasharray="" stroke-linecap="round" stroke-linejoin="round" stroke-miterlimit="10" stroke-opacity="0.9" stroke-width="7.5"/>
			</g>
		</g>
		<g id="labels-f50b8c49">
			<g transform="rotate(0,0,0) translate(129.41668014315388,302.75710584593867)">
				<g class="dcg-svg-label">
					<g transform="translate(-4.784737394130445,-29.173762340079293)">
						<g>
							<text fill="none" font-family="Helvetica Neue World" font-size="15.4px" font-style="normal" font-weight="normal" stroke="#FFF" stroke-dasharray="" stroke-linecap="round" stroke-linejoin="round" stroke-miterlimit="2" stroke-width="3" text-anchor="start" text-decoration="normal" x="0" y="14.26657099609375">a</text>
						</g>
					</g>
					<g transform="translate(-4.784737394130445,-29.173762340079293)">
						<g>
							<text fill="rgb(0, 0, 0)" font-family="Helvetica Neue World" font-size="15.4px" font-style="normal" font-weight="normal" stroke="none" text-anchor="start" text-decoration="normal" x="0" y="14.26657099609375">a</text>
						</g>
					</g>
				</g>
			</g>
			<g transform="rotate(0,0,0) translate(285.2672207006709,302.75710584593867)">
				<g class="dcg-svg-label">
					<g transform="translate(-4.788064206530294,-29.173762340079293)">
						<g>
							<text fill="none" font-family="Helvetica Neue World" font-size="15.4px" font-style="normal" font-weight="normal" stroke="#FFF" stroke-dasharray="" stroke-linecap="round" stroke-linejoin="round" stroke-miterlimit="2" stroke-width="3" text-anchor="start" text-decoration="normal" x="0" y="14.26657099609375">b</text>
						</g>
					</g>
					<g transform="translate(-4.788064206530294,-29.173762340079293)">
						<g>
							<text fill="rgb(0, 0, 0)" font-family="Helvetica Neue World" font-size="15.4px" font-style="normal" font-weight="normal" stroke="none" text-anchor="start" text-decoration="normal" x="0" y="14.26657099609375">b</text>
						</g>
					</g>
				</g>
			</g>
		</g>
	</g>
</svg>
