<?xml version="1.0" encoding="UTF-8" standalone="yes"?>
<svg xmlns="http://www.w3.org/2000/svg" xmlns:xlink="http://www.w3.org/1999/xlink" width="142.126mm" height="90.020mm" version="1.1" viewBox="307.747 -27.024 738.607 467.818">
  <!--
	Exported with Concepts: Smarter Sketching
	Version: 916 on iOS 14.4
	https://concepts.app/
	-->
  <title>Untitled 5</title>
  <desc>Drawing exported from Concepts: Smarter Sketching</desc>
  <defs></defs>
  <rect x="307.747" y="-27.024" width="738.607" height="467.818" stroke="none" fill="white"></rect>
  <g id="Wire" opacity="1.000">
    <path id="STROKE_a1f42861-4a31-48d7-b9e1-374d3cd593f7" opacity="1.000" fill="none" stroke="#000000" stroke-width="1.200" stroke-opacity="1.000" stroke-linecap="round" stroke-linejoin="round" d="M 391.193 -9.221 Q 392.380 -11.399 392.213 -11.030 Q 392.046 -10.661 392.581 -13.300 Q 391.502 -13.048 389.148 -7.807 Q 386.795 -2.567 384.500 2.328 Q 382.205 7.223 377.387 20.540 Q 376.253 19.008 392.526 -18.748 Q 393.100 -17.749 394.462 -9.953 Q 395.823 -2.157 398.370 4.609 Q 400.916 11.376 405.364 15.886 Q 405.359 14.808 405.213 14.437 Q 405.066 14.065 404.887 14.014 Q 404.707 13.963 404.547 13.124 Q 404.387 12.286 401.924 6.508 Q 399.460 0.731 397.302 -3.875 Q 395.144 -8.481 386.901 -12.013 Q 386.311 -8.807 386.555 -9.741 Q 384.937 -8.724 388.223 4.958 Q 391.509 18.641 394.358 35.141 Q 397.207 51.642 397.994 60.288 Q 398.781 68.934 399.500 73.283 Q 400.219 77.631 401.575 96.664 Q 402.931 115.698 402.567 133.555 Q 402.203 151.412 400.495 175.117 Q 398.787 198.822 398.024 210.375 Q 397.261 221.928 397.253 229.146 Q 397.246 236.364 397.200 250.639 Q 397.153 264.914 397.432 274.684 Q 397.710 284.454 397.872 289.405 Q 398.033 294.356 398.406 308.540 Q 398.779 322.724 399.540 344.852 Q 400.302 366.980 401.705 385.293 Q 403.107 403.606 404.508 413.465 Q 405.909 423.324 406.039 432.452 Q 403.974 432.450 404.524 432.398 Q 404.289 432.071 403.610 430.837 Q 402.930 429.603 402.138 426.086 Q 401.346 422.569 400.944 421.638 "></path>
    <path id="STROKE_4a57950f-cb9e-4161-9638-40b6619fce13" opacity="1.000" fill="none" stroke="#000000" stroke-width="1.200" stroke-opacity="1.000" stroke-linecap="round" stroke-linejoin="round" d="M 316.139 355.135 Q 316.066 355.135 315.993 355.135 Q 317.485 356.610 346.723 356.937 Q 375.961 357.265 393.018 357.097 Q 410.075 356.930 417.920 356.740 Q 425.766 356.551 438.960 355.819 Q 452.155 355.087 469.491 353.733 Q 486.827 352.380 499.416 351.270 Q 512.006 350.161 528.714 349.103 Q 545.423 348.044 555.496 347.678 Q 565.570 347.311 574.548 347.163 Q 583.526 347.015 607.337 346.833 Q 631.149 346.652 646.744 346.214 Q 662.339 345.777 672.747 345.245 Q 683.155 344.713 695.009 343.833 Q 706.863 342.953 733.173 341.029 Q 759.484 339.106 794.298 337.590 Q 829.112 336.073 845.843 335.855 Q 862.575 335.637 875.281 334.553 Q 887.987 333.470 900.257 331.997 Q 912.526 330.524 921.328 329.425 Q 930.129 328.325 936.505 327.803 Q 942.880 327.280 947.305 326.932 Q 951.730 326.584 959.882 326.588 Q 968.033 326.592 975.826 326.431 Q 983.618 326.269 989.128 326.570 Q 994.638 326.871 999.118 328.213 Q 1003.597 329.555 1006.126 331.425 Q 1007.006 331.753 1004.947 327.908 Q 1002.888 324.062 999.838 321.728 Q 996.787 319.393 991.019 315.740 Q 985.252 312.088 974.443 311.137 Q 971.841 314.638 984.034 319.021 Q 996.226 323.404 1002.660 325.315 Q 1009.093 327.226 1011.937 328.328 Q 1014.781 329.429 1016.803 330.385 Q 1018.825 331.341 1017.864 333.009 Q 1016.903 334.677 1014.504 335.844 Q 1012.106 337.011 1004.721 342.105 Q 997.337 347.199 994.007 349.507 Q 990.677 351.816 986.852 354.672 Q 983.028 357.528 981.291 362.938 Q 981.346 362.938 982.314 362.938 Q 982.471 362.634 982.602 361.185 Q 982.734 359.735 982.898 359.324 "></path>
    <path id="STROKE_415b3362-c5d3-4cfa-8594-de807bb3e968" opacity="1.000" fill="none" stroke="#009ef1" stroke-width="1.200" stroke-opacity="1.000" stroke-linecap="round" stroke-linejoin="round" d="M 358.943 272.835 Q 359.935 270.578 363.478 265.116 Q 367.021 259.654 369.513 256.512 Q 372.005 253.369 373.506 251.406 Q 375.006 249.443 379.425 243.865 Q 383.844 238.287 387.512 233.746 Q 391.180 229.204 397.644 221.871 Q 404.107 214.537 411.424 205.954 Q 418.741 197.370 431.778 184.903 Q 444.816 172.436 452.091 166.268 Q 459.366 160.100 464.062 155.914 Q 468.759 151.727 473.592 148.036 Q 478.424 144.344 481.775 141.820 Q 485.126 139.296 494.103 132.358 Q 503.080 125.420 513.721 119.165 Q 524.361 112.910 531.529 109.226 Q 538.696 105.542 549.826 102.336 Q 560.956 99.129 567.668 97.923 Q 574.380 96.717 586.342 96.045 Q 598.305 95.374 605.479 95.619 Q 612.653 95.864 617.049 96.441 Q 621.446 97.018 628.085 98.936 Q 634.725 100.854 641.272 104.226 Q 647.820 107.598 653.389 111.124 Q 658.959 114.651 666.106 119.539 Q 673.253 124.427 677.076 127.400 Q 680.899 130.374 688.527 135.725 Q 696.155 141.077 713.167 151.955 Q 730.179 162.833 739.182 168.474 Q 748.184 174.114 754.908 178.185 Q 761.631 182.255 767.762 184.948 Q 773.892 187.641 783.553 188.543 Q 793.215 189.445 801.942 189.127 Q 810.670 188.809 818.485 186.883 Q 826.300 184.956 835.553 179.496 Q 844.806 174.036 853.030 167.139 Q 861.254 160.242 866.104 155.461 Q 870.953 150.681 875.037 144.419 Q 879.122 138.157 880.353 135.685 Q 881.584 133.213 885.780 124.736 Q 889.976 116.259 895.481 102.431 Q 900.986 88.604 910.091 65.996 "></path>
    <path id="STROKE_33820228-d391-4123-a4b4-055473db69e0" opacity="1.000" fill="none" stroke="#000000" stroke-width="1.200" stroke-opacity="1.000" stroke-linecap="round" stroke-linejoin="round" d="M 511.608 110.753 Q 511.853 112.806 511.755 112.437 Q 511.755 115.517 511.755 114.545 Q 511.701 112.611 511.782 121.887 Q 511.864 131.164 511.974 131.698 "></path>
    <path id="STROKE_70ec5a6c-b444-4c11-9d4f-7e52e7c0ea24" opacity="1.000" fill="none" stroke="#000000" stroke-width="1.200" stroke-opacity="1.000" stroke-linecap="round" stroke-linejoin="round" d="M 515.005 147.495 L 515.007 147.511 "></path>
    <path id="STROKE_6184d312-cd67-4620-9d42-12fc81e10079" opacity="1.000" fill="none" stroke="#000000" stroke-width="1.200" stroke-opacity="1.000" stroke-linecap="round" stroke-linejoin="round" d="M 513.581 150.507 Q 513.849 149.763 512.725 153.999 Q 511.601 158.234 512.655 161.530 Q 513.709 164.826 513.946 165.401 "></path>
    <path id="STROKE_7ec79468-3301-4c94-a1c7-d3bad18ed27a" opacity="1.000" fill="none" stroke="#000000" stroke-width="1.200" stroke-opacity="1.000" stroke-linecap="round" stroke-linejoin="round" d="M 514.421 202.143 Q 514.414 202.365 514.416 203.224 Q 514.418 204.082 514.360 206.321 Q 514.303 208.560 514.282 209.870 Q 514.261 211.180 514.328 211.847 Q 514.396 212.513 514.107 212.175 Q 513.818 211.837 514.667 214.020 Q 515.516 216.202 515.699 216.435 "></path>
    <path id="STROKE_2cfdd00f-f7e3-4be4-8483-b1cf0df8447d" opacity="1.000" fill="none" stroke="#000000" stroke-width="1.200" stroke-opacity="1.000" stroke-linecap="round" stroke-linejoin="round" d="M 521.031 237.708 Q 521.075 238.231 520.709 243.551 Q 520.343 248.872 520.861 251.722 Q 521.378 254.573 521.616 254.929 "></path>
    <path id="STROKE_cd8ea38a-164e-481b-963f-60846efa891d" opacity="1.000" fill="none" stroke="#000000" stroke-width="1.200" stroke-opacity="1.000" stroke-linecap="round" stroke-linejoin="round" d="M 523.917 275.627 Q 523.809 277.577 523.752 277.475 Q 523.468 277.726 523.269 282.259 Q 523.069 286.792 524.388 289.108 Q 525.706 291.425 525.998 291.781 "></path>
    <path id="STROKE_9fe5f96f-425b-4639-b1cd-0fa772f967ea" opacity="1.000" fill="none" stroke="#000000" stroke-width="1.200" stroke-opacity="1.000" stroke-linecap="round" stroke-linejoin="round" d="M 527.532 311.302 Q 526.544 311.961 526.974 321.693 Q 527.405 331.425 527.642 331.781 "></path>
    <path id="STROKE_ec1c8a43-cbe4-48de-8ccd-22bf1373c5bf" opacity="1.000" fill="none" stroke="#000000" stroke-width="1.200" stroke-opacity="1.000" stroke-linecap="round" stroke-linejoin="round" d="M 535.640 366.306 Q 534.778 365.091 534.709 365.251 Q 533.603 364.171 531.633 364.011 Q 529.662 363.851 527.490 366.999 Q 525.318 370.147 524.426 373.063 Q 523.534 375.979 523.511 377.349 Q 523.487 378.720 523.436 379.560 Q 523.385 380.401 524.498 380.810 Q 525.610 381.220 527.220 380.547 Q 528.830 379.874 530.225 377.224 Q 531.621 374.574 532.459 372.937 Q 533.298 371.300 535.275 364.663 Q 534.770 367.239 534.837 366.593 Q 534.296 369.151 534.417 368.742 Q 534.493 369.168 534.145 372.151 Q 533.798 375.134 534.997 376.944 Q 536.196 378.754 537.313 379.263 Q 538.429 379.772 539.597 380.046 Q 540.764 380.320 541.284 380.285 Q 541.804 380.251 542.569 380.233 Q 543.335 380.215 543.460 380.257 Q 543.585 380.298 544.917 378.709 Q 546.250 377.120 546.889 376.299 "></path>
    <path id="STROKE_fc31bbf4-31c2-44c1-80f5-08c3302047c1" opacity="1.000" fill="none" stroke="#000000" stroke-width="1.200" stroke-opacity="1.000" stroke-linecap="round" stroke-linejoin="round" d="M 811.981 171.996 Q 811.922 172.991 811.876 173.000 Q 811.876 174.748 811.876 174.500 Q 811.876 177.047 811.876 176.430 Q 811.654 176.809 811.957 181.882 Q 812.259 186.954 812.433 187.620 "></path>
    <path id="STROKE_cfb97331-6e03-4489-b1d8-3bb896e4a231" opacity="1.000" fill="none" stroke="#000000" stroke-width="1.200" stroke-opacity="1.000" stroke-linecap="round" stroke-linejoin="round" d="M 815.530 205.564 Q 816.086 204.355 815.669 213.736 Q 815.251 223.118 814.973 223.614 "></path>
    <path id="STROKE_b1052a40-a279-48de-889d-034ba20b6604" opacity="1.000" fill="none" stroke="#000000" stroke-width="1.200" stroke-opacity="1.000" stroke-linecap="round" stroke-linejoin="round" d="M 816.191 247.427 Q 816.243 247.427 816.295 247.427 Q 816.464 245.455 816.571 252.369 Q 816.678 259.282 816.504 259.843 "></path>
    <path id="STROKE_b9bf5ceb-5ef0-4ced-b3f4-f6f7974d573f" opacity="1.000" fill="none" stroke="#000000" stroke-width="1.200" stroke-opacity="1.000" stroke-linecap="round" stroke-linejoin="round" d="M 815.391 287.516 Q 816.684 286.649 816.429 294.066 Q 816.173 301.484 815.947 301.810 "></path>
    <path id="STROKE_b2caed1c-eb7e-4704-b4e7-e646b9ee5adc" opacity="1.000" fill="none" stroke="#000000" stroke-width="1.200" stroke-opacity="1.000" stroke-linecap="round" stroke-linejoin="round" d="M 817.617 323.406 Q 817.730 323.406 818.679 323.406 Q 819.054 324.870 818.992 324.802 Q 819.207 326.004 818.856 329.582 Q 818.505 333.161 818.174 333.709 "></path>
    <path id="STROKE_ba35074d-035f-48af-be8b-c5bfa87ceff2" opacity="1.000" fill="none" stroke="#000000" stroke-width="1.200" stroke-opacity="1.000" stroke-linecap="round" stroke-linejoin="round" d="M 816.191 358.748 Q 816.191 358.748 816.454 358.988 Q 816.718 359.228 817.461 377.580 Q 817.565 377.580 817.774 377.580 Q 817.266 377.071 818.855 374.481 Q 820.444 371.891 821.638 370.310 Q 822.833 368.729 824.333 367.607 Q 825.833 366.485 826.923 366.315 Q 828.014 366.145 828.890 366.961 Q 829.766 367.778 829.777 368.158 Q 829.789 368.538 829.904 369.348 Q 830.020 370.157 829.962 370.040 Q 829.905 369.923 829.953 370.298 Q 830.000 370.672 830.376 373.302 Q 830.752 375.932 829.243 377.727 Q 827.734 379.521 826.916 380.288 Q 826.098 381.055 823.352 381.648 Q 820.606 382.241 818.146 379.461 Q 815.687 376.680 815.182 376.015 "></path>
    <path id="STROKE_16dd2aff-695e-4f08-ad39-fe71f0e58f38" opacity="1.000" fill="none" stroke="#71c047" stroke-width="1.200" stroke-opacity="1.000" stroke-linecap="round" stroke-linejoin="round" d="M 560.420 101.442 Q 560.253 101.697 561.951 99.668 Q 562.336 100.085 558.219 108.679 Q 554.103 117.273 546.057 131.860 Q 538.011 146.448 533.537 154.005 Q 529.063 161.562 526.505 166.920 Q 523.946 172.278 522.043 182.846 Q 522.239 183.480 523.054 182.505 Q 523.869 181.529 524.478 180.760 "></path>
    <path id="STROKE_7b889f94-aa6c-4271-a833-4e3b186ff344" opacity="1.000" fill="none" stroke="#71c047" stroke-width="1.200" stroke-opacity="1.000" stroke-linecap="round" stroke-linejoin="round" d="M 614.142 102.225 Q 613.214 102.168 615.952 102.394 Q 616.737 103.452 612.194 110.237 Q 607.651 117.022 601.518 127.301 Q 595.385 137.580 590.672 145.539 Q 585.959 153.498 580.974 161.671 Q 575.990 169.844 572.287 175.497 Q 568.583 181.151 562.604 191.529 Q 556.624 201.907 553.645 208.588 Q 550.666 215.270 549.017 219.668 Q 547.368 224.066 546.426 226.841 Q 545.484 229.616 543.195 236.609 Q 540.906 243.602 542.832 253.791 Q 543.623 253.838 543.748 253.906 Q 543.873 253.974 544.539 253.762 Q 545.205 253.550 545.832 252.913 Q 546.460 252.275 546.994 251.018 Q 547.529 249.762 548.034 248.653 "></path>
    <path id="STROKE_c1388c9b-3fb5-40f7-9f5d-b3b17815793e" opacity="1.000" fill="none" stroke="#71c047" stroke-width="1.200" stroke-opacity="1.000" stroke-linecap="round" stroke-linejoin="round" d="M 644.761 126.821 Q 644.912 126.948 645.653 127.652 Q 646.393 128.356 646.203 128.170 Q 646.012 127.984 646.375 128.356 Q 646.738 128.729 647.335 131.639 Q 647.931 134.550 640.057 148.933 Q 632.183 163.316 627.573 171.612 Q 622.963 179.909 618.410 187.445 Q 613.858 194.981 608.852 202.760 Q 603.846 210.540 601.381 214.531 Q 598.915 218.523 596.522 222.214 Q 594.128 225.906 584.336 242.088 Q 574.544 258.270 568.263 269.734 Q 561.982 281.197 558.286 289.409 Q 554.591 297.621 551.860 305.467 Q 549.129 313.313 547.492 319.045 Q 545.854 324.776 546.259 330.344 Q 549.110 331.453 551.773 324.639 Q 554.436 317.824 555.097 316.103 "></path>
    <path id="STROKE_e57f7bc9-da41-4084-b76d-9c38a712e741" opacity="1.000" fill="none" stroke="#71c047" stroke-width="1.200" stroke-opacity="1.000" stroke-linecap="round" stroke-linejoin="round" d="M 705.859 144.192 Q 706.031 144.116 707.321 141.218 Q 707.487 142.803 699.564 159.412 Q 691.641 176.022 681.659 194.631 Q 671.676 213.240 662.922 229.635 Q 654.168 246.029 643.317 266.340 Q 632.467 286.651 627.202 296.868 Q 621.936 307.086 615.756 319.746 Q 609.575 332.407 605.409 347.220 Q 606.696 348.514 608.340 342.416 Q 609.984 336.317 610.385 334.491 "></path>
    <path id="STROKE_6be9d8da-a9eb-422c-8a2f-58f4c6bb0846" opacity="1.000" fill="none" stroke="#71c047" stroke-width="1.200" stroke-opacity="1.000" stroke-linecap="round" stroke-linejoin="round" d="M 752.066 179.534 Q 750.992 178.072 744.002 193.590 Q 737.012 209.109 733.003 217.668 Q 728.995 226.228 726.833 230.313 Q 724.672 234.398 723.387 236.896 Q 722.103 239.394 718.551 245.447 Q 714.999 251.499 711.970 256.025 Q 708.941 260.551 701.834 272.580 Q 694.726 284.610 689.338 295.361 Q 683.950 306.112 679.567 315.134 Q 675.184 324.156 673.022 330.461 Q 670.860 336.766 670.561 342.186 Q 671.680 343.659 673.277 338.632 Q 674.875 333.605 675.380 331.727 "></path>
    <path id="STROKE_df9f5b9c-9c08-4ae3-9567-6e46977881d0" opacity="1.000" fill="none" stroke="#71c047" stroke-width="1.200" stroke-opacity="1.000" stroke-linecap="round" stroke-linejoin="round" d="M 793.088 191.506 Q 792.185 191.887 788.178 195.596 Q 784.170 199.305 780.695 208.130 Q 777.219 216.955 774.345 223.813 Q 771.471 230.672 765.327 244.573 Q 759.183 258.474 752.850 271.242 Q 746.516 284.009 742.861 290.431 Q 739.206 296.853 732.484 310.484 Q 725.761 324.116 721.029 339.864 Q 721.092 340.886 723.287 336.991 Q 725.483 333.096 726.318 331.596 "></path>
    <path id="STROKE_3273046c-5d9e-401d-b070-ea16af839178" opacity="1.000" fill="none" stroke="#71c047" stroke-width="1.200" stroke-opacity="1.000" stroke-linecap="round" stroke-linejoin="round" d="M 808.780 264.929 Q 808.641 264.206 806.834 266.312 Q 805.027 268.418 803.056 273.816 Q 801.086 279.214 799.797 282.138 Q 798.508 285.063 795.701 290.508 Q 792.894 295.953 790.280 300.217 Q 787.666 304.480 780.935 314.592 Q 774.204 324.704 769.428 339.812 Q 769.489 340.499 771.442 337.743 Q 773.394 334.987 774.055 333.813 "></path>
    <path id="STROKE_42ef515f-46ab-42b3-a5e7-e1adf78f4dee" opacity="1.000" fill="none" stroke="#71c047" stroke-width="1.200" stroke-opacity="1.000" stroke-linecap="round" stroke-linejoin="round" d="M 820.366 298.263 Q 820.367 299.756 820.262 299.762 Q 819.881 299.478 815.383 311.092 Q 810.884 322.707 807.309 328.214 Q 803.735 333.722 803.352 333.944 "></path>
    <path id="STROKE_fa1c061c-c4da-4003-901e-a5048d9b8ae9" opacity="1.000" fill="none" stroke="#71c047" stroke-width="1.200" stroke-opacity="1.000" stroke-linecap="round" stroke-linejoin="round" d="M 801.327 232.119 Q 801.327 232.088 801.327 232.056 Q 801.051 232.082 801.137 232.099 Q 801.223 232.116 795.553 248.916 Q 796.369 248.306 799.299 246.011 Q 802.229 243.715 804.648 242.409 Q 807.067 241.102 810.346 240.036 Q 813.626 238.970 817.210 239.588 Q 817.210 239.658 817.210 239.759 Q 816.160 239.943 816.460 239.916 Q 816.372 239.993 815.467 240.270 Q 814.562 240.548 813.771 240.768 Q 812.981 240.989 812.108 241.235 Q 811.235 241.481 810.062 241.940 Q 808.888 242.399 805.346 244.428 Q 801.803 246.456 797.773 247.619 Q 796.686 246.724 798.914 242.658 Q 801.142 238.592 802.982 236.192 Q 804.822 233.792 807.144 231.267 Q 809.467 228.742 812.725 226.727 Q 815.984 224.712 826.754 221.270 Q 837.524 217.828 842.783 216.107 Q 848.042 214.386 853.597 212.338 Q 859.152 210.290 862.891 209.326 Q 866.630 208.361 872.941 205.578 Q 879.252 202.795 882.374 200.977 Q 885.496 199.159 888.118 197.689 Q 890.740 196.219 893.862 194.838 Q 893.893 194.869 893.992 194.920 Q 894.091 194.970 894.164 195.041 "></path>
    <path id="STROKE_34814d02-af53-4beb-adf5-74c88e524b30" opacity="1.000" fill="none" stroke="#71c047" stroke-width="1.200" stroke-opacity="1.000" stroke-linecap="round" stroke-linejoin="round" d="M 943.146 185.275 Q 943.039 185.470 943.107 185.154 Q 943.175 184.838 943.267 183.340 Q 943.358 181.843 942.712 180.812 Q 942.066 179.781 941.436 179.051 Q 940.806 178.321 940.514 178.140 Q 940.222 177.958 939.717 178.061 Q 939.213 178.163 939.132 178.305 Q 939.051 178.446 938.800 178.950 Q 938.550 179.453 938.349 180.257 Q 938.147 181.060 938.032 180.959 Q 937.916 180.859 937.139 188.811 Q 936.362 196.762 935.808 201.440 Q 935.254 206.117 934.345 209.084 Q 933.437 212.051 932.737 213.908 Q 932.036 215.766 929.348 216.103 Q 928.978 215.455 928.689 214.420 Q 928.400 213.384 928.202 212.822 "></path>
    <path id="STROKE_5142b89a-4602-4cda-a76b-9f2ba0a87596" opacity="1.000" fill="none" stroke="#71c047" stroke-width="1.200" stroke-opacity="1.000" stroke-linecap="round" stroke-linejoin="round" d="M 922.824 224.556 Q 922.813 224.989 922.897 223.267 Q 920.929 221.588 918.134 230.931 Q 918.726 231.078 919.432 229.872 Q 920.138 228.666 923.981 224.228 Q 924.240 224.229 924.362 225.919 Q 924.484 227.609 924.788 228.521 Q 925.091 229.433 925.419 229.566 Q 925.747 229.699 926.171 229.847 Q 926.596 229.994 926.982 229.896 Q 927.368 229.798 927.660 229.666 "></path>
    <path id="STROKE_40a8ee48-7d89-4da8-a744-86a930931ad7" opacity="1.000" fill="none" stroke="#71c047" stroke-width="1.200" stroke-opacity="1.000" stroke-linecap="round" stroke-linejoin="round" d="M 948.128 169.228 Q 948.885 168.629 947.523 179.775 Q 948.700 179.074 948.576 178.916 Q 948.666 178.895 949.460 177.699 Q 950.255 176.503 952.630 175.791 Q 952.633 175.825 952.880 176.472 Q 953.127 177.119 952.665 178.618 Q 952.203 180.117 950.629 180.765 Q 949.055 181.412 948.075 181.309 Q 947.096 181.205 946.794 181.103 "></path>
    <path id="STROKE_a2394caf-7342-4498-874e-ed506a2b872c" opacity="1.000" fill="none" stroke="#71c047" stroke-width="1.200" stroke-opacity="1.000" stroke-linecap="round" stroke-linejoin="round" d="M 968.575 190.916 Q 969.123 190.340 966.429 188.994 Q 966.558 188.305 965.820 190.441 Q 965.082 192.577 964.002 198.139 Q 962.923 203.702 962.387 206.545 Q 961.851 209.388 961.650 210.708 Q 961.449 212.027 960.957 212.620 Q 960.465 213.213 960.338 213.184 Q 960.210 213.154 959.457 212.867 Q 958.704 212.581 958.356 212.215 Q 958.008 211.850 957.839 211.618 Q 957.669 211.386 957.020 210.393 Q 956.372 209.400 956.007 208.838 "></path>
    <path id="STROKE_0435478d-7d55-4f12-acc4-ca587d188089" opacity="1.000" fill="none" stroke="#71c047" stroke-width="1.200" stroke-opacity="1.000" stroke-linecap="round" stroke-linejoin="round" d="M 955.736 203.525 Q 956.485 202.671 956.392 202.830 Q 955.997 202.345 962.505 201.693 Q 969.013 201.041 969.367 200.806 "></path>
    <path id="STROKE_baffc5f7-6084-47d5-9204-e5d1ec25c65a" opacity="1.000" fill="none" stroke="#71c047" stroke-width="1.200" stroke-opacity="1.000" stroke-linecap="round" stroke-linejoin="round" d="M 981.623 190.119 Q 981.528 190.322 980.987 190.134 Q 980.445 189.945 978.886 191.063 Q 977.327 192.180 976.452 194.042 Q 975.578 195.905 974.704 198.294 Q 973.830 200.684 973.455 203.069 Q 973.079 205.454 973.074 206.543 Q 973.069 207.633 973.374 209.068 Q 973.678 210.502 975.864 210.150 Q 978.049 209.798 978.518 209.494 "></path>
    <path id="STROKE_92a60f64-bfde-4ba3-bce3-d92aa57e60cb" opacity="1.000" fill="none" stroke="#71c047" stroke-width="1.200" stroke-opacity="1.000" stroke-linecap="round" stroke-linejoin="round" d="M 981.957 200.869 Q 981.637 200.841 981.367 200.478 Q 981.097 200.116 981.190 200.117 Q 981.283 200.118 981.233 200.036 Q 981.183 199.955 982.182 199.782 Q 983.181 199.610 983.548 200.014 Q 983.915 200.417 983.956 201.366 Q 983.997 202.315 983.963 202.849 Q 983.929 203.383 983.773 203.827 Q 983.616 204.272 983.381 204.823 Q 983.147 205.375 982.082 207.978 Q 981.768 208.481 990.961 196.697 Q 990.289 196.812 988.791 199.395 Q 987.293 201.978 988.022 205.853 Q 989.635 207.091 991.111 205.445 Q 992.587 203.798 992.879 203.400 "></path>
    <path id="STROKE_da2640f6-9c9e-4ac5-9bc1-753cf7d607fd" opacity="1.000" fill="none" stroke="#71c047" stroke-width="1.200" stroke-opacity="1.000" stroke-linecap="round" stroke-linejoin="round" d="M 993.879 192.509 Q 993.817 192.469 994.159 192.891 Q 994.501 193.313 994.656 193.441 Q 994.812 193.569 995.462 193.961 Q 996.112 194.354 996.609 194.615 Q 997.106 194.875 997.506 195.305 Q 997.906 195.735 998.186 196.144 Q 998.466 196.552 998.540 196.889 Q 998.615 197.226 998.703 197.450 Q 998.791 197.674 999.108 200.046 Q 999.425 202.418 997.860 206.025 Q 996.296 209.632 994.754 211.024 Q 993.212 212.416 992.816 212.619 "></path>
    <path id="STROKE_67339da6-8eba-41e9-a578-ef2a92f36164" opacity="1.000" fill="none" stroke="#71c047" stroke-width="1.200" stroke-opacity="1.000" stroke-linecap="round" stroke-linejoin="round" d="M 1018.579 201.806 Q 1018.595 201.487 1018.568 200.839 Q 1018.540 200.191 1018.140 199.570 Q 1017.740 198.950 1017.236 198.710 Q 1016.731 198.471 1016.549 198.426 Q 1016.366 198.381 1015.982 198.429 Q 1015.597 198.478 1015.157 198.703 Q 1014.716 198.928 1014.703 199.125 Q 1014.689 199.323 1014.574 199.266 Q 1014.459 199.209 1013.191 201.197 Q 1011.922 203.185 1011.982 207.377 Q 1013.585 208.195 1015.654 205.914 Q 1017.723 203.633 1019.412 199.721 Q 1021.100 195.810 1020.788 189.025 Q 1020.235 188.869 1020.318 188.867 Q 1020.401 188.865 1020.390 188.847 Q 1020.380 188.829 1019.943 189.518 Q 1019.507 190.206 1019.097 192.898 Q 1018.687 195.590 1018.603 198.397 Q 1018.519 201.204 1018.381 204.330 Q 1018.243 207.456 1020.861 210.494 Q 1021.083 210.446 1021.285 209.958 Q 1021.487 209.470 1021.685 209.041 "></path>
    <path id="STROKE_e88f0493-1e41-42b7-9147-8dc5c911d69a" opacity="1.000" fill="none" stroke="#71c047" stroke-width="1.200" stroke-opacity="1.000" stroke-linecap="round" stroke-linejoin="round" d="M 1023.998 200.947 Q 1023.729 201.360 1022.081 199.947 Q 1021.681 199.930 1023.430 199.629 Q 1025.179 199.329 1025.963 199.740 Q 1026.747 200.152 1027.124 201.098 Q 1027.501 202.045 1027.564 203.234 Q 1027.627 204.424 1027.277 205.602 Q 1026.927 206.780 1026.312 207.634 Q 1026.248 206.899 1033.607 197.088 Q 1033.860 197.241 1032.411 199.657 Q 1030.962 202.073 1030.471 203.691 Q 1029.979 205.308 1029.838 206.393 Q 1029.697 207.479 1030.102 208.256 Q 1030.506 209.033 1032.469 209.046 Q 1034.432 209.060 1035.906 208.301 Q 1037.380 207.541 1038.047 207.103 "></path>
    <path id="STROKE_8816dd42-00dc-48a7-91ed-81c94fb0d1ef" opacity="1.000" fill="none" stroke="#009ef1" stroke-width="1.200" stroke-opacity="1.000" stroke-linecap="round" stroke-linejoin="round" d="M 360.600 271.306 Q 359.531 271.994 359.851 271.827 Q 360.171 271.660 359.600 271.838 Q 359.171 272.509 358.682 256.713 Q 358.684 256.871 358.691 256.710 Q 358.698 256.549 358.670 257.660 Q 358.642 258.770 358.761 261.727 Q 358.880 264.683 358.822 266.656 Q 358.763 268.628 360.131 273.963 Q 360.797 274.469 362.168 273.189 Q 363.539 271.910 365.043 270.988 Q 366.547 270.066 368.119 269.147 Q 369.690 268.229 376.358 267.494 Q 376.358 267.556 376.326 267.666 Q 375.811 267.676 375.339 267.499 Q 374.867 267.322 374.440 267.056 "></path>
    <path id="STROKE_11c05b73-52fc-4b73-9d00-2cac8be36983" opacity="1.000" fill="none" stroke="#009ef1" stroke-width="1.200" stroke-opacity="1.000" stroke-linecap="round" stroke-linejoin="round" d="M 946.295 27.500 Q 946.145 27.433 945.063 26.013 Q 943.981 24.592 943.600 23.990 Q 943.219 23.388 942.562 22.800 Q 941.906 22.212 941.112 22.388 Q 940.318 22.565 940.121 22.926 Q 939.923 23.287 939.512 23.999 Q 939.101 24.711 939.029 24.657 Q 938.956 24.603 937.734 29.123 Q 936.513 33.643 934.912 38.274 Q 933.312 42.905 932.174 45.559 Q 931.036 48.212 929.922 50.142 Q 928.809 52.073 927.116 53.278 Q 925.423 54.483 924.885 52.375 Q 924.347 50.266 924.180 49.672 "></path>
    <path id="STROKE_22223320-98ae-42aa-a63a-ab50f5a303fa" opacity="1.000" fill="none" stroke="#009ef1" stroke-width="1.200" stroke-opacity="1.000" stroke-linecap="round" stroke-linejoin="round" d="M 928.078 36.469 Q 927.834 37.204 927.827 37.063 Q 927.765 37.196 927.765 37.453 Q 926.813 37.666 936.471 37.532 Q 946.128 37.399 946.816 37.266 "></path>
    <path id="STROKE_4c0a14e7-9d32-470b-a8c7-8d4fcb5bcb63" opacity="1.000" fill="none" stroke="#009ef1" stroke-width="1.200" stroke-opacity="1.000" stroke-linecap="round" stroke-linejoin="round" d="M 958.801 27.235 Q 959.267 26.539 957.196 25.977 Q 956.750 26.249 954.461 31.020 Q 952.173 35.790 950.893 40.302 Q 949.613 44.813 949.198 47.710 Q 948.783 50.607 949.901 53.782 Q 951.228 53.897 951.440 53.374 Q 951.652 52.852 951.985 52.391 "></path>
    <path id="STROKE_35d9e97f-d2c7-45b4-9db0-85ad05fe9047" opacity="1.000" fill="none" stroke="#009ef1" stroke-width="1.200" stroke-opacity="1.000" stroke-linecap="round" stroke-linejoin="round" d="M 956.550 37.719 Q 956.519 37.719 956.091 37.719 Q 957.077 37.472 958.062 39.149 Q 959.047 40.826 955.966 47.469 Q 955.407 47.862 966.096 33.735 Q 966.644 32.913 965.160 35.596 Q 963.676 38.278 963.331 40.428 Q 962.985 42.577 962.941 43.534 Q 962.896 44.491 963.086 44.974 Q 963.276 45.458 963.410 45.673 Q 963.544 45.888 964.321 46.174 Q 965.098 46.460 965.865 46.529 Q 966.632 46.598 967.535 46.643 Q 968.439 46.687 969.800 45.703 Q 971.161 44.719 971.661 44.219 "></path>
    <path id="STROKE_68f9228e-8ca5-4950-9990-7aa9de75a578" opacity="1.000" fill="none" stroke="#009ef1" stroke-width="1.200" stroke-opacity="1.000" stroke-linecap="round" stroke-linejoin="round" d="M 976.414 25.907 Q 976.131 25.858 977.768 28.966 Q 979.406 32.073 980.056 35.500 Q 980.706 38.927 980.934 41.156 Q 981.162 43.385 979.618 46.737 Q 978.075 50.089 975.728 52.482 Q 973.381 54.875 972.787 55.438 "></path>
    <path id="STROKE_f54a58b7-8a6d-48d9-8dfd-6b00f4dcf2f5" opacity="1.000" fill="none" stroke="#009ef1" stroke-width="1.200" stroke-opacity="1.000" stroke-linecap="round" stroke-linejoin="round" d="M 908.655 67.707 Q 908.655 67.707 908.754 67.687 Q 908.853 67.667 908.777 67.722 Q 908.702 67.777 909.045 67.422 Q 909.388 67.067 909.450 66.986 Q 909.511 66.905 909.493 66.925 Q 909.476 66.945 909.658 66.694 Q 909.840 66.443 909.787 66.518 Q 909.734 66.593 909.749 66.581 Q 909.765 66.568 909.846 66.462 Q 909.927 66.356 910.031 66.077 Q 909.660 65.596 900.377 73.078 Q 900.531 73.002 900.820 72.727 Q 901.109 72.452 901.135 72.460 Q 901.162 72.468 901.291 72.303 Q 901.419 72.137 903.624 70.060 Q 905.829 67.982 911.026 65.497 Q 911.026 66.227 911.026 66.032 Q 910.898 66.938 910.928 66.661 Q 910.773 67.333 910.797 67.201 Q 910.802 67.133 910.763 67.540 Q 910.724 67.948 910.735 67.891 Q 910.746 67.834 910.741 67.869 Q 910.737 67.904 910.693 68.883 Q 910.650 69.863 911.233 71.063 Q 911.817 72.263 913.240 79.794 Q 913.251 80.100 913.222 79.498 Q 913.194 78.895 913.148 78.665 "></path>
  </g>
</svg>