<?xml version="1.0" encoding="UTF-8" standalone="yes"?>
<svg xmlns="http://www.w3.org/2000/svg" xmlns:xlink="http://www.w3.org/1999/xlink" width="134.934mm" height="85.656mm" version="1.1" viewBox="294.770 85.122 701.233 445.141">
  <!--
	Exported with Concepts: Smarter Sketching
	Version: 916 on iOS 14.4
	https://concepts.app/
	-->
  <title>Left-endpoint</title>
  <desc>Drawing exported from Concepts: Smarter Sketching</desc>
  <defs></defs>
  <rect x="294.770" y="85.122" width="701.233" height="445.141" stroke="none" fill="white"></rect>
  <g id="Wire" opacity="1.000">
    <path id="STROKE_7e68bb59-b6b8-46f3-a16c-3691301fc1b8" opacity="1.000" fill="none" stroke="#000000" stroke-width="1.200" stroke-opacity="1.000" stroke-linecap="round" stroke-linejoin="round" d="M 362.908 96.837 Q 363.033 96.686 363.478 96.279 Q 363.922 95.872 365.347 93.053 Q 365.362 93.163 351.309 116.884 Q 351.034 116.371 352.028 113.506 Q 353.022 110.641 354.572 106.905 Q 356.122 103.170 357.116 101.389 Q 358.110 99.607 359.831 97.500 Q 361.552 95.392 363.053 95.899 Q 364.554 96.405 366.776 102.157 Q 368.997 107.910 370.845 111.951 Q 372.692 115.992 376.109 118.223 Q 376.637 118.910 375.450 115.292 Q 374.263 111.674 371.095 107.156 Q 367.927 102.638 365.559 99.873 Q 363.190 97.107 361.121 94.754 Q 361.403 96.216 361.424 96.330 Q 361.446 96.444 361.419 96.210 Q 361.764 97.573 361.660 97.241 Q 362.019 98.440 362.306 102.844 Q 362.593 107.249 362.866 109.819 Q 363.139 112.390 363.460 122.290 Q 363.781 132.190 363.533 137.405 Q 363.286 142.621 364.485 155.191 Q 365.684 167.761 366.508 180.771 Q 367.332 193.781 367.338 200.571 Q 367.344 207.361 367.341 214.218 Q 367.338 221.075 367.488 243.990 Q 367.637 266.906 367.068 286.854 Q 366.499 306.803 365.522 323.325 Q 364.545 339.847 364.094 349.235 Q 363.643 358.622 363.397 362.755 Q 363.152 366.888 362.263 380.106 Q 361.374 393.323 361.116 405.603 Q 360.859 417.883 360.894 423.851 Q 360.930 429.818 360.826 433.003 Q 360.722 436.188 361.119 446.492 Q 361.516 456.796 361.520 467.408 Q 361.523 478.021 361.304 482.878 Q 361.086 487.736 360.784 490.061 Q 360.482 492.386 358.852 500.540 Q 358.821 500.151 358.886 499.846 Q 358.952 499.541 359.051 499.180 "></path>
    <path id="STROKE_bf284d1c-3e05-458e-8517-5293d04f9941" opacity="1.000" fill="none" stroke="#000000" stroke-width="1.200" stroke-opacity="1.000" stroke-linecap="round" stroke-linejoin="round" d="M 306.786 456.853 Q 307.759 457.266 307.932 457.408 Q 308.105 457.549 308.104 457.534 Q 309.169 457.741 309.040 457.704 Q 307.933 458.179 313.206 457.418 Q 318.480 456.658 324.145 457.424 Q 329.810 458.190 333.306 459.254 Q 336.802 460.319 343.557 460.556 Q 350.311 460.792 354.832 460.462 Q 359.352 460.131 364.167 458.682 Q 368.983 457.232 374.973 456.008 Q 380.963 454.785 384.834 454.555 Q 388.705 454.326 397.772 454.386 Q 406.838 454.445 413.150 453.478 Q 419.462 452.511 427.326 452.647 Q 435.190 452.782 439.897 453.459 Q 444.605 454.136 448.797 454.768 Q 452.989 455.401 463.073 456.289 Q 473.158 457.178 480.933 456.826 Q 488.709 456.474 496.249 455.493 Q 503.789 454.511 511.289 454.087 Q 518.789 453.662 527.204 454.243 Q 535.619 454.825 542.060 455.368 Q 548.501 455.910 553.548 455.952 Q 558.596 455.994 565.231 455.866 Q 571.866 455.739 575.602 455.026 Q 579.339 454.313 582.862 453.633 Q 586.384 452.953 598.038 452.856 Q 609.692 452.759 619.052 452.914 Q 628.411 453.069 633.408 453.242 Q 638.405 453.415 640.235 453.386 Q 642.064 453.357 648.564 453.218 Q 655.063 453.079 659.366 453.204 Q 663.670 453.329 671.164 453.602 Q 678.658 453.875 682.658 454.057 Q 686.657 454.240 689.575 454.411 Q 692.493 454.582 698.369 454.652 Q 704.245 454.722 709.055 454.753 Q 713.865 454.783 716.835 454.780 Q 719.804 454.776 721.234 454.773 Q 722.665 454.770 723.807 454.746 Q 724.949 454.722 726.524 454.858 Q 728.099 454.994 728.738 455.058 Q 729.377 455.122 731.739 455.222 Q 734.102 455.323 737.154 455.366 Q 740.206 455.410 742.083 455.408 Q 743.961 455.406 745.912 455.407 Q 747.863 455.408 749.800 455.470 Q 751.737 455.532 751.911 455.510 Q 752.085 455.489 760.904 455.455 Q 769.724 455.422 774.517 455.559 Q 779.310 455.697 781.822 455.816 Q 784.333 455.936 787.079 455.875 Q 789.825 455.814 798.868 455.856 Q 807.911 455.898 812.240 456.019 Q 816.569 456.141 818.716 456.078 Q 820.864 456.015 822.461 456.556 Q 824.058 457.097 829.985 457.413 Q 835.911 457.730 840.717 457.384 Q 845.523 457.038 848.694 456.824 Q 851.864 456.609 853.128 456.643 Q 854.391 456.678 855.408 456.667 Q 856.425 456.656 857.135 456.677 Q 857.845 456.697 858.937 456.587 Q 860.030 456.476 865.108 456.964 Q 870.187 457.451 873.056 457.704 Q 875.926 457.956 877.709 458.005 Q 879.492 458.053 880.775 458.086 Q 882.057 458.119 882.454 458.120 Q 882.851 458.121 887.837 458.085 Q 892.824 458.048 901.646 458.046 Q 910.469 458.044 919.253 457.986 Q 928.037 457.928 932.244 457.878 Q 936.450 457.828 938.336 457.845 Q 940.222 457.862 940.774 457.839 Q 941.325 457.817 942.748 457.852 Q 944.172 457.887 947.431 457.877 Q 950.690 457.868 953.529 457.652 Q 956.368 457.436 957.228 457.362 Q 958.089 457.289 962.817 457.295 Q 967.544 457.302 969.857 457.301 Q 972.170 457.299 974.004 457.300 Q 975.837 457.300 977.132 457.300 Q 978.427 457.300 979.317 457.300 Q 980.207 457.300 980.776 457.316 Q 981.346 457.332 981.237 457.352 Q 981.129 457.373 981.914 457.254 Q 982.698 457.135 984.345 457.652 Q 985.992 458.168 988.049 458.830 Q 986.264 458.711 986.787 458.703 Q 985.083 457.841 982.630 455.655 Q 980.177 453.469 979.031 452.438 Q 977.886 451.407 976.940 450.608 Q 975.995 449.809 975.387 449.384 Q 974.779 448.960 974.055 448.260 Q 973.330 447.561 970.892 446.147 Q 968.454 444.734 965.532 444.204 Q 966.416 446.936 966.241 445.980 Q 966.615 446.634 971.760 448.924 Q 976.905 451.213 979.763 453.503 Q 982.622 455.792 983.040 456.252 Q 983.458 456.713 984.566 457.928 Q 985.674 459.143 986.234 460.871 Q 985.197 461.073 985.298 461.041 Q 983.948 459.333 966.950 474.456 Q 967.267 474.308 967.988 472.644 Q 968.708 470.980 968.935 470.480 "></path>
    <path id="STROKE_b1a4c1c5-cb91-4221-933f-d61d2f7e145a" opacity="1.000" fill="none" stroke="#009ef1" stroke-width="1.200" stroke-opacity="1.000" stroke-linecap="round" stroke-linejoin="round" d="M 302.730 351.495 Q 303.188 350.589 308.838 354.466 Q 314.487 358.342 321.538 361.733 Q 328.589 365.124 333.926 366.874 Q 339.262 368.624 344.449 370.132 Q 349.635 371.640 352.537 372.709 Q 355.439 373.778 365.864 376.085 Q 376.288 378.392 386.549 379.349 Q 396.811 380.307 404.281 380.229 Q 411.751 380.150 415.986 379.840 Q 420.220 379.531 430.583 377.919 Q 440.946 376.308 460.543 370.972 Q 480.140 365.635 490.867 362.171 Q 501.594 358.708 508.731 356.256 Q 515.868 353.804 521.644 351.724 Q 527.421 349.644 530.182 348.604 Q 532.944 347.564 545.098 342.985 Q 557.251 338.406 574.160 331.454 Q 591.069 324.502 600.211 320.388 Q 609.352 316.275 615.482 313.493 Q 621.612 310.711 636.777 303.492 Q 651.943 296.273 660.378 291.912 Q 668.814 287.551 673.196 285.046 Q 677.579 282.542 680.006 281.280 Q 682.433 280.018 692.789 274.021 Q 703.145 268.023 711.084 262.989 Q 719.024 257.955 729.008 251.144 Q 738.992 244.333 744.309 240.597 Q 749.626 236.862 760.273 229.196 Q 770.921 221.530 783.496 210.539 Q 796.072 199.549 802.147 194.063 Q 808.221 188.577 817.636 178.990 Q 827.051 169.404 832.453 163.665 Q 837.855 157.927 840.768 154.400 Q 843.680 150.872 844.984 149.158 Q 846.288 147.445 849.400 142.832 Q 852.512 138.220 854.578 133.657 Q 856.644 129.094 855.869 124.197 Q 855.925 124.240 856.322 124.367 Q 856.430 124.186 856.409 124.232 Q 856.387 124.279 856.387 124.259 Q 856.388 124.240 856.622 124.468 Q 856.855 124.696 850.513 128.220 Q 844.171 131.743 831.026 140.800 Q 832.896 140.884 835.580 139.245 Q 838.265 137.606 843.443 132.648 Q 848.620 127.690 852.109 124.136 Q 855.599 120.582 858.392 118.585 Q 858.852 117.756 857.985 123.101 Q 857.117 128.445 858.482 134.862 Q 859.846 141.279 864.887 148.560 Q 864.887 148.517 864.433 147.390 Q 864.390 147.390 864.305 147.220 L 864.263 147.220 Q 864.263 147.167 864.171 146.785 Q 864.078 146.402 863.894 146.136 "></path>
    <path id="STROKE_43df0b2c-3f73-4472-8156-76650a363e72" opacity="1.000" fill="none" stroke="#000000" stroke-width="1.200" stroke-opacity="1.000" stroke-linecap="round" stroke-linejoin="round" d="M 517.674 280.512 Q 518.236 281.826 518.014 281.554 Q 518.683 281.164 517.476 291.675 Q 516.270 302.186 516.057 302.813 "></path>
    <path id="STROKE_6a30f69f-8c89-47f4-84de-2d1b8fa614ac" opacity="1.000" fill="none" stroke="#000000" stroke-width="1.200" stroke-opacity="1.000" stroke-linecap="round" stroke-linejoin="round" d="M 517.475 314.824 Q 517.504 313.117 517.426 318.865 Q 517.348 324.614 517.305 324.837 "></path>
    <path id="STROKE_ef6224b2-a901-4bc3-9407-2391be99febe" opacity="1.000" fill="none" stroke="#000000" stroke-width="1.200" stroke-opacity="1.000" stroke-linecap="round" stroke-linejoin="round" d="M 517.475 339.378 Q 517.631 339.126 517.369 344.936 Q 517.106 350.745 516.327 354.405 Q 515.547 358.064 515.320 358.426 "></path>
    <path id="STROKE_f8010858-00a9-4199-9e5a-ea643b963da9" opacity="1.000" fill="none" stroke="#000000" stroke-width="1.200" stroke-opacity="1.000" stroke-linecap="round" stroke-linejoin="round" d="M 516.681 375.029 Q 516.973 375.188 516.281 381.497 Q 515.589 387.805 515.405 388.124 "></path>
    <path id="STROKE_fdcd02f6-739d-4625-94ad-549d8acc8544" opacity="1.000" fill="none" stroke="#000000" stroke-width="1.200" stroke-opacity="1.000" stroke-linecap="round" stroke-linejoin="round" d="M 517.674 405.556 Q 517.640 404.450 517.472 413.645 Q 517.305 422.839 517.305 423.243 "></path>
    <path id="STROKE_674bb878-74ae-4520-aa30-cce78435b7ed" opacity="1.000" fill="none" stroke="#000000" stroke-width="1.200" stroke-opacity="1.000" stroke-linecap="round" stroke-linejoin="round" d="M 518.836 436.509 Q 518.884 434.097 518.818 441.106 Q 518.751 448.116 518.666 448.520 "></path>
    <path id="STROKE_8ec86739-e888-4be8-ac49-6761b5ea5729" opacity="1.000" fill="none" stroke="#000000" stroke-width="1.200" stroke-opacity="1.000" stroke-linecap="round" stroke-linejoin="round" d="M 519.744 464.400 Q 519.989 464.294 519.420 470.783 Q 518.851 477.272 518.581 477.496 "></path>
    <path id="STROKE_8a4fb441-eadb-49f9-b8a3-ed2202421f3c" opacity="1.000" fill="none" stroke="#000000" stroke-width="1.200" stroke-opacity="1.000" stroke-linecap="round" stroke-linejoin="round" d="M 779.369 202.599 Q 779.328 202.980 779.381 202.557 Q 779.433 202.135 779.299 203.350 Q 779.165 204.566 779.072 205.288 Q 778.978 206.010 778.991 206.451 Q 779.004 206.891 778.999 206.829 Q 778.995 206.767 779.091 206.829 Q 779.186 206.891 778.810 211.383 Q 778.433 215.875 778.206 216.417 "></path>
    <path id="STROKE_d6e4b592-c4f3-441b-ad04-43b5cc5e1889" opacity="1.000" fill="none" stroke="#000000" stroke-width="1.200" stroke-opacity="1.000" stroke-linecap="round" stroke-linejoin="round" d="M 777.384 234.657 Q 777.082 232.679 777.843 240.460 Q 778.603 248.242 778.745 248.646 "></path>
    <path id="STROKE_0438dcd2-4ab2-4f27-8625-7a94e84674fc" opacity="1.000" fill="none" stroke="#000000" stroke-width="1.200" stroke-opacity="1.000" stroke-linecap="round" stroke-linejoin="round" d="M 779.284 275.283 Q 779.284 276.639 779.284 276.590 Q 779.234 278.334 779.344 277.036 Q 779.454 275.738 779.050 281.378 Q 778.646 287.018 778.461 287.294 "></path>
    <path id="STROKE_bfb729ce-97cd-40a2-9589-64750084251e" opacity="1.000" fill="none" stroke="#000000" stroke-width="1.200" stroke-opacity="1.000" stroke-linecap="round" stroke-linejoin="round" d="M 779.284 309.127 Q 779.284 310.506 779.284 310.434 Q 779.284 312.222 779.284 311.975 Q 779.183 311.372 778.914 316.685 Q 778.646 321.999 778.461 322.222 "></path>
    <path id="STROKE_6e2653b3-b5fd-4585-993c-4701a82066b8" opacity="1.000" fill="none" stroke="#000000" stroke-width="1.200" stroke-opacity="1.000" stroke-linecap="round" stroke-linejoin="round" d="M 779.652 344.884 Q 779.670 346.303 779.643 347.460 Q 779.616 348.617 779.762 353.883 Q 779.907 359.148 779.907 359.510 "></path>
    <path id="STROKE_0931f504-2834-43fe-b4b3-9905fde8f331" opacity="1.000" fill="none" stroke="#000000" stroke-width="1.200" stroke-opacity="1.000" stroke-linecap="round" stroke-linejoin="round" d="M 779.822 370.607 Q 780.032 371.028 779.658 378.672 Q 779.284 386.317 779.113 386.678 "></path>
    <path id="STROKE_113ff67d-1ba9-47c8-b4d2-97418eeecfac" opacity="1.000" fill="none" stroke="#000000" stroke-width="1.200" stroke-opacity="1.000" stroke-linecap="round" stroke-linejoin="round" d="M 780.191 405.195 Q 780.076 403.544 780.176 413.032 Q 780.276 422.521 780.106 422.882 "></path>
    <path id="STROKE_f924ba28-4e2c-4ad7-9e4a-deb128af837b" opacity="1.000" fill="none" stroke="#000000" stroke-width="1.200" stroke-opacity="1.000" stroke-linecap="round" stroke-linejoin="round" d="M 779.907 443.907 Q 780.050 445.305 779.993 445.087 Q 779.993 446.727 779.993 446.298 Q 779.993 447.926 779.993 447.574 Q 779.993 448.979 779.993 448.924 Q 780.165 450.477 780.157 450.399 Q 780.149 450.322 780.149 450.316 Q 780.214 450.972 780.255 451.551 Q 780.296 452.129 780.278 452.030 Q 780.261 451.931 780.300 452.270 Q 780.340 452.610 780.353 453.036 Q 780.365 453.463 780.403 454.074 Q 780.441 454.684 780.449 454.289 Q 780.457 453.894 780.431 456.282 Q 780.404 458.671 780.361 459.086 "></path>
    <path id="STROKE_585ac0b4-fe67-43a3-a4cc-5166b3038073" opacity="1.000" fill="none" stroke="#000000" stroke-width="1.200" stroke-opacity="1.000" stroke-linecap="round" stroke-linejoin="round" d="M 780.446 469.736 Q 780.840 470.016 780.989 470.499 Q 781.139 470.983 781.099 470.863 Q 781.382 472.050 781.311 471.809 Q 781.272 470.870 781.355 472.195 Q 781.439 473.520 781.524 473.797 "></path>
    <path id="STROKE_b5f8241a-831f-47f0-bd1e-fee98cd25a38" opacity="1.000" fill="none" stroke="#000000" stroke-width="1.200" stroke-opacity="1.000" stroke-linecap="round" stroke-linejoin="round" d="M 523.714 507.279 Q 523.535 506.991 523.064 506.482 Q 522.593 505.973 522.482 505.947 Q 522.371 505.922 522.526 506.004 Q 522.681 506.085 522.580 505.951 Q 522.479 505.816 520.956 505.505 Q 519.432 505.193 519.010 505.690 Q 518.589 506.186 517.975 506.877 Q 517.361 507.567 516.908 508.409 Q 516.455 509.251 515.902 510.114 Q 515.350 510.977 514.245 513.387 Q 513.140 515.797 513.888 520.513 Q 514.846 520.370 514.545 520.512 Q 514.245 520.653 515.302 520.564 Q 516.358 520.475 517.900 517.630 Q 519.442 514.784 520.629 512.490 Q 521.815 510.196 523.714 507.109 Q 523.952 505.841 523.761 510.006 Q 523.570 514.171 523.577 516.464 Q 523.585 518.758 524.236 520.090 Q 524.886 521.423 526.524 521.984 Q 528.162 522.546 529.469 522.114 Q 530.776 521.682 531.371 521.182 "></path>
    <path id="STROKE_5e4e1be0-2d63-40bf-b739-b892a2d5b3e3" opacity="1.000" fill="none" stroke="#000000" stroke-width="1.200" stroke-opacity="1.000" stroke-linecap="round" stroke-linejoin="round" d="M 778.376 498.350 Q 778.357 498.507 780.191 497.713 Q 780.209 496.824 777.384 518.652 Q 777.361 518.514 778.990 514.975 Q 780.618 511.437 781.858 509.963 Q 783.098 508.490 784.303 507.781 Q 785.507 507.072 786.457 507.522 Q 787.407 507.972 788.219 510.850 Q 789.031 513.728 789.150 515.827 Q 789.268 517.926 788.508 519.128 Q 787.748 520.331 784.808 521.048 Q 781.869 521.765 779.151 519.491 Q 776.434 517.218 775.937 516.675 "></path>
    <path id="STROKE_e9ce1aef-3423-436c-b2e1-c708ba2b3b69" opacity="1.000" fill="none" stroke="#009ef1" stroke-width="1.200" stroke-opacity="1.000" stroke-linecap="round" stroke-linejoin="round" d="M 907.295 114.312 Q 907.093 114.173 906.506 113.023 Q 905.919 111.873 904.996 110.546 Q 904.072 109.218 902.389 108.901 Q 901.739 108.734 900.637 115.850 Q 899.535 122.966 899.129 126.722 Q 898.724 130.479 898.261 131.907 Q 897.799 133.336 897.373 133.905 Q 896.947 134.474 896.323 134.743 Q 895.698 135.013 895.550 134.987 Q 895.402 134.962 894.820 134.085 Q 894.239 133.207 893.744 132.042 Q 893.249 130.878 892.708 129.865 Q 892.166 128.853 891.726 128.130 "></path>
    <path id="STROKE_a6d4fbae-ff4c-46f8-9d53-4da447f78318" opacity="1.000" fill="none" stroke="#009ef1" stroke-width="1.200" stroke-opacity="1.000" stroke-linecap="round" stroke-linejoin="round" d="M 892.151 121.093 Q 892.840 120.909 898.388 120.592 Q 903.935 120.275 904.431 120.179 "></path>
    <path id="STROKE_cd49754d-0b14-49d6-ab8b-65bb33d9606f" opacity="1.000" fill="none" stroke="#009ef1" stroke-width="1.200" stroke-opacity="1.000" stroke-linecap="round" stroke-linejoin="round" d="M 918.553 113.057 Q 916.550 114.372 916.788 114.266 Q 917.026 114.159 916.615 114.815 Q 916.203 115.472 916.154 115.245 Q 916.104 115.017 913.615 119.614 Q 911.126 124.210 911.435 135.485 Q 911.847 135.624 912.173 135.719 "></path>
    <path id="STROKE_13a9e41b-5b82-49ad-8d20-ea590ca627c5" opacity="1.000" fill="none" stroke="#009ef1" stroke-width="1.200" stroke-opacity="1.000" stroke-linecap="round" stroke-linejoin="round" d="M 916.937 122.263 Q 917.173 122.227 918.185 121.902 Q 919.197 121.578 918.937 121.681 Q 918.678 121.784 918.771 121.749 Q 918.864 121.714 919.651 121.756 Q 920.438 121.797 920.492 121.985 Q 920.546 122.173 920.541 121.938 Q 920.536 121.703 920.656 121.977 Q 920.776 122.251 921.043 124.139 Q 921.309 126.027 921.181 127.009 Q 921.052 127.991 919.745 131.383 Q 921.163 129.177 927.203 119.818 Q 926.840 121.206 926.721 121.178 Q 926.257 121.367 925.765 123.701 Q 925.274 126.036 925.186 127.589 Q 925.099 129.141 925.709 129.893 Q 926.319 130.646 927.792 130.611 Q 929.265 130.577 930.189 130.001 Q 931.112 129.425 931.660 128.730 Q 932.208 128.034 932.705 127.492 "></path>
    <path id="STROKE_f52589e3-ed63-4df0-9d66-1d179737083f" opacity="1.000" fill="none" stroke="#009ef1" stroke-width="1.200" stroke-opacity="1.000" stroke-linecap="round" stroke-linejoin="round" d="M 934.321 115.226 Q 933.622 116.058 933.354 116.392 Q 933.086 116.726 933.306 117.925 Q 933.526 119.124 934.023 120.065 Q 934.520 121.006 934.618 121.322 Q 934.715 121.638 935.445 122.871 Q 936.176 124.103 937.148 127.505 Q 938.120 130.907 936.540 134.461 Q 934.959 138.015 934.520 138.419 "></path>
    <path id="STROKE_9bfd4d2f-dd11-493c-970e-4907ff373388" opacity="1.000" fill="none" stroke="#71c047" stroke-width="1.200" stroke-opacity="1.000" stroke-linecap="round" stroke-linejoin="round" d="M 522.807 352.367 Q 521.485 354.108 521.984 353.547 Q 521.526 353.394 523.026 370.313 Q 524.527 387.231 524.861 400.289 Q 525.196 413.348 525.152 420.279 Q 525.108 427.210 524.901 430.361 Q 524.694 433.511 524.281 436.948 Q 523.868 440.384 523.737 442.799 Q 523.605 445.214 523.431 448.966 Q 523.427 448.980 523.441 448.945 Q 523.456 448.910 523.401 447.652 Q 523.345 446.394 523.260 445.629 "></path>
    <path id="STROKE_9039f660-dc17-4fa3-a561-9c5b84926cba" opacity="1.000" fill="none" stroke="#71c047" stroke-width="1.200" stroke-opacity="1.000" stroke-linecap="round" stroke-linejoin="round" d="M 523.431 358.702 Q 523.021 357.336 522.977 357.522 Q 522.433 356.467 522.438 356.565 Q 522.414 356.633 521.644 354.727 Q 521.544 353.584 522.009 365.610 Q 522.475 377.636 523.665 388.131 Q 524.856 398.625 525.855 404.058 Q 526.855 409.491 526.889 419.334 Q 526.924 429.178 526.664 447.712 Q 526.445 448.349 525.769 439.699 Q 525.092 431.049 524.498 417.029 Q 523.905 403.010 523.801 393.068 Q 523.698 383.126 523.910 378.969 Q 524.121 374.813 523.852 370.184 Q 523.584 365.555 523.424 363.013 Q 523.265 360.471 523.321 359.488 Q 523.378 358.505 523.348 358.326 Q 523.319 358.146 523.345 357.453 Q 523.370 356.759 523.285 355.251 Q 523.200 353.742 523.120 352.436 Q 523.039 351.130 523.054 351.008 Q 523.069 350.887 523.064 350.825 Q 523.059 350.764 523.070 351.002 Q 523.081 351.241 523.137 351.649 Q 523.192 352.058 522.969 365.198 Q 522.745 378.338 523.019 389.218 Q 523.294 400.098 524.441 412.207 Q 525.589 424.316 525.979 431.028 Q 526.368 437.739 526.323 450.242 Q 527.004 449.144 526.819 449.423 Q 527.230 449.973 527.151 443.513 Q 527.072 437.054 527.284 432.570 Q 527.495 428.086 527.079 419.363 Q 526.662 410.640 525.531 401.440 Q 524.401 392.239 524.247 387.874 Q 524.092 383.508 524.090 374.820 Q 524.088 366.132 523.777 360.982 Q 523.466 355.833 525.458 351.559 Q 525.076 351.913 525.901 351.351 Q 526.726 350.790 534.166 351.592 Q 541.605 352.394 546.753 353.332 Q 551.900 354.270 555.413 354.301 Q 558.927 354.331 561.378 354.090 Q 563.829 353.849 566.875 352.823 Q 569.922 351.796 571.940 351.900 Q 573.958 352.004 575.588 353.044 Q 577.217 354.084 577.273 354.046 Q 577.330 354.009 577.359 354.004 Q 577.389 354.000 577.190 354.003 Q 576.991 354.006 578.475 354.004 Q 577.024 353.919 577.355 353.866 Q 579.481 353.998 571.571 352.527 Q 563.661 351.056 553.244 351.067 Q 542.826 351.079 537.650 351.045 Q 532.473 351.012 531.375 351.044 Q 530.277 351.076 526.888 350.927 Q 523.499 350.778 520.283 350.836 Q 521.432 350.774 521.417 350.709 Q 523.554 350.323 523.166 350.425 Q 522.779 350.527 524.867 350.077 Q 526.956 349.627 533.592 349.268 Q 540.228 348.908 546.547 348.934 Q 552.866 348.959 555.617 349.289 Q 558.368 349.619 562.252 350.251 Q 566.136 350.883 577.653 350.390 Q 577.487 351.378 577.637 351.042 Q 577.787 350.706 577.598 351.303 Q 577.409 351.900 576.348 353.468 Q 575.286 355.035 574.881 356.023 Q 574.476 357.010 573.651 357.889 Q 572.826 358.768 571.503 367.254 Q 570.180 375.741 570.201 384.565 Q 570.222 393.389 570.168 398.098 Q 570.113 402.806 570.296 409.562 Q 570.478 416.318 569.865 426.043 Q 569.252 435.768 568.917 441.208 Q 568.583 446.647 568.466 449.241 Q 568.349 451.835 569.655 457.534 Q 569.698 457.534 569.740 457.534 Q 569.726 455.711 570.585 441.730 Q 571.443 427.748 571.577 417.308 Q 571.710 406.868 571.700 402.238 Q 571.689 397.607 571.359 393.748 Q 571.029 389.889 570.423 381.755 Q 569.817 373.621 572.349 348.136 Q 572.494 350.997 572.435 350.198 Q 572.229 350.055 572.480 355.033 Q 572.731 360.012 572.112 380.549 Q 571.494 401.086 570.787 413.353 Q 570.081 425.619 569.869 431.223 Q 569.656 436.827 569.617 439.525 Q 569.577 442.222 568.833 455.557 Q 568.833 453.850 568.833 454.111 Q 568.833 453.200 568.854 452.141 Q 568.875 451.082 568.918 450.497 "></path>
    <path id="STROKE_57c37505-b349-4693-96f0-6fa613f38ee8" opacity="1.000" fill="none" stroke="#71c047" stroke-width="1.200" stroke-opacity="1.000" stroke-linecap="round" stroke-linejoin="round" d="M 575.951 355.258 Q 575.827 356.223 575.823 356.077 Q 575.791 355.743 575.412 357.511 Q 575.032 355.900 575.157 356.300 Q 575.135 354.473 575.100 354.769 Q 575.071 352.278 573.711 330.258 Q 573.791 330.909 573.638 339.045 Q 573.485 347.181 573.711 353.336 Q 573.936 359.491 575.001 364.654 Q 575.044 364.654 575.100 364.654 Q 575.208 362.305 575.212 362.777 Q 575.216 363.249 575.234 360.987 Q 575.251 358.725 575.245 356.690 Q 575.239 354.656 575.241 354.109 Q 575.243 353.562 575.243 352.103 Q 575.243 350.644 575.267 348.873 Q 575.291 347.102 575.170 344.857 Q 575.048 342.612 575.285 328.004 Q 575.327 328.004 575.412 328.004 Q 575.548 329.763 575.497 329.216 Q 575.591 329.944 575.639 329.854 Q 575.996 330.833 575.866 330.577 Q 575.927 330.720 576.447 332.065 L 576.490 332.065 Q 576.490 332.107 576.859 332.235 Q 576.859 332.192 576.859 331.762 Q 576.859 331.331 576.859 331.151 "></path>
    <path id="STROKE_5ed32707-fa18-474e-9cb1-569f6a6a5130" opacity="1.000" fill="none" stroke="#71c047" stroke-width="1.200" stroke-opacity="1.000" stroke-linecap="round" stroke-linejoin="round" d="M 573.796 331.512 Q 574.897 331.512 574.467 331.514 Q 574.038 331.516 575.134 331.553 Q 576.230 331.589 582.309 331.240 Q 588.388 330.891 596.871 331.137 Q 605.353 331.382 609.828 331.535 Q 614.303 331.687 615.561 331.256 Q 616.819 330.825 620.536 330.334 Q 624.254 329.843 627.933 330.066 Q 627.933 330.120 627.933 330.258 Q 627.299 330.240 620.529 330.543 Q 613.758 330.845 604.432 331.982 Q 595.105 333.118 591.122 333.496 Q 587.138 333.875 581.766 333.908 Q 576.393 333.941 571.357 332.426 Q 571.913 334.147 571.954 333.962 Q 571.995 333.776 572.264 334.042 "></path>
    <path id="STROKE_bde30855-a28c-4c16-9707-e54836245b3c" opacity="1.000" fill="none" stroke="#71c047" stroke-width="1.200" stroke-opacity="1.000" stroke-linecap="round" stroke-linejoin="round" d="M 620.446 332.703 Q 620.485 332.775 620.771 335.044 Q 621.058 337.312 621.741 339.020 Q 622.425 340.728 622.847 342.447 Q 623.270 344.166 623.626 345.586 Q 623.982 347.006 624.008 356.517 Q 624.033 366.029 624.121 372.374 Q 624.210 378.720 624.357 382.361 Q 624.505 386.002 624.456 390.696 Q 624.408 395.390 624.689 406.345 Q 624.969 417.300 625.348 423.030 Q 625.727 428.759 625.896 432.053 Q 626.065 435.347 626.146 450.136 Q 625.937 448.050 625.990 448.658 Q 625.765 447.164 625.820 447.340 Q 625.344 447.062 625.349 429.198 Q 625.354 411.335 625.051 399.799 Q 624.748 388.263 624.037 381.062 Q 623.326 373.861 623.100 370.073 Q 622.874 366.285 622.612 362.471 Q 622.350 358.658 624.615 328.642 Q 624.893 327.692 624.089 331.557 Q 623.285 335.421 623.166 339.277 Q 623.047 343.133 623.066 349.917 Q 623.086 356.701 623.116 361.708 Q 623.147 366.715 623.055 374.064 Q 622.964 381.413 622.679 390.650 Q 622.395 399.886 622.612 410.484 Q 622.830 421.082 623.263 426.207 Q 623.697 431.332 623.815 438.028 Q 623.934 444.723 623.126 457.449 Q 623.083 457.449 622.807 456.954 Q 622.530 456.460 622.261 456.003 "></path>
    <path id="STROKE_bdf1ee7d-10a9-4216-ad7c-a805afa376bc" opacity="1.000" fill="none" stroke="#71c047" stroke-width="1.200" stroke-opacity="1.000" stroke-linecap="round" stroke-linejoin="round" d="M 625.692 327.090 Q 625.700 328.321 625.735 328.004 Q 625.574 327.610 625.999 328.606 Q 626.425 329.602 626.571 331.342 Q 626.539 332.014 626.685 306.958 Q 625.881 305.820 626.898 335.126 L 626.940 335.126 Q 626.614 334.735 627.279 327.520 Q 627.943 320.305 626.401 308.404 Q 626.312 308.544 626.378 308.612 Q 626.444 308.679 626.589 309.226 Q 626.734 309.773 627.196 310.213 Q 627.658 310.653 627.521 310.402 Q 628.756 310.495 628.895 310.497 Q 629.035 310.499 628.968 310.487 Q 631.440 310.487 630.684 310.487 Q 630.717 310.474 632.298 310.536 Q 633.879 310.599 638.315 310.012 Q 642.751 309.426 647.364 309.006 Q 651.977 308.586 657.474 308.059 Q 662.972 307.532 668.986 306.892 Q 675.001 306.252 680.453 306.427 Q 678.329 306.516 678.922 306.512 Q 677.615 306.748 677.702 306.746 Q 676.527 306.813 667.221 308.021 Q 657.915 309.228 652.944 310.297 Q 647.973 311.365 644.147 311.117 Q 640.321 310.869 637.874 310.026 Q 635.427 309.183 632.743 310.643 Q 630.060 312.103 629.748 312.103 "></path>
    <path id="STROKE_b1f96277-57ea-45c3-b130-8ea2bb21ade5" opacity="1.000" fill="none" stroke="#71c047" stroke-width="1.200" stroke-opacity="1.000" stroke-linecap="round" stroke-linejoin="round" d="M 676.143 305.513 Q 676.381 304.268 674.512 303.982 Q 674.095 305.530 674.089 312.808 Q 674.082 320.086 674.917 337.196 Q 675.753 354.305 675.929 365.026 Q 676.106 375.747 676.053 381.021 Q 676.001 386.295 675.957 389.517 Q 675.913 392.739 676.067 400.189 Q 676.222 407.639 676.025 416.094 Q 675.828 424.549 675.169 429.320 Q 674.510 434.091 673.335 449.604 Q 673.092 449.606 674.049 438.510 Q 675.007 427.415 675.310 417.490 Q 675.614 407.565 675.517 401.827 Q 675.421 396.088 675.377 390.254 Q 675.333 384.419 675.815 368.551 Q 676.297 352.682 676.248 340.287 Q 676.199 327.892 675.987 304.343 Q 676.086 304.343 676.185 304.343 Q 676.573 303.788 676.620 314.542 Q 676.667 325.295 676.832 333.877 Q 676.996 342.459 676.282 355.463 Q 675.567 368.467 675.248 386.239 Q 674.928 404.010 675.151 413.317 Q 675.373 422.624 675.251 427.481 Q 675.130 432.339 674.870 434.957 Q 674.610 437.575 672.881 453.027 Q 672.871 453.574 672.898 452.216 Q 672.924 450.858 672.966 450.412 "></path>
    <path id="STROKE_284b9a96-b230-410e-867a-39cb7ca0e228" opacity="1.000" fill="none" stroke="#71c047" stroke-width="1.200" stroke-opacity="1.000" stroke-linecap="round" stroke-linejoin="round" d="M 677.390 308.680 Q 676.081 309.103 676.497 308.999 Q 676.584 309.032 675.405 309.318 Q 675.292 308.641 675.323 305.488 Q 675.355 302.335 674.243 286.018 Q 673.949 286.788 674.915 294.489 Q 675.881 302.190 676.029 310.934 Q 676.151 311.856 675.490 283.127 Q 676.098 283.244 675.886 283.215 Q 675.673 283.186 675.493 283.157 Q 675.313 283.128 678.677 284.238 Q 682.042 285.348 689.415 285.127 Q 696.787 284.906 700.829 284.066 Q 704.872 283.226 707.584 283.112 Q 710.297 282.999 715.721 283.046 Q 721.146 283.094 727.926 282.957 Q 726.520 282.957 726.806 282.957 Q 724.469 282.957 725.047 282.957 Q 724.364 282.593 712.017 283.584 Q 699.669 284.575 693.286 285.537 Q 686.904 286.500 683.940 286.670 Q 680.977 286.840 678.590 286.159 Q 676.203 285.478 672.966 286.571 Q 672.966 286.475 673.151 286.204 Q 673.335 285.933 673.704 285.487 "></path>
    <path id="STROKE_c033dd88-c961-4728-a9e8-fdca2ab9cff3" opacity="1.000" fill="none" stroke="#71c047" stroke-width="1.200" stroke-opacity="1.000" stroke-linecap="round" stroke-linejoin="round" d="M 725.062 283.956 Q 724.003 284.927 724.367 284.626 Q 723.973 286.538 724.112 285.923 Q 724.039 287.684 724.069 287.421 Q 723.270 289.303 724.494 305.721 Q 725.718 322.139 726.779 331.134 Q 727.839 340.128 727.834 345.195 Q 727.828 350.262 727.836 353.386 Q 727.843 356.510 727.896 358.154 Q 727.950 359.798 727.945 362.496 Q 727.940 365.195 727.910 375.164 Q 727.880 385.133 727.871 391.790 Q 727.861 398.446 728.197 404.418 Q 728.532 410.389 728.017 419.888 Q 727.501 429.386 726.832 435.861 Q 726.163 442.337 725.600 452.134 Q 725.624 452.179 724.948 451.943 Q 724.868 452.460 724.728 449.704 Q 724.587 446.949 724.929 438.164 Q 725.270 429.380 725.724 423.103 Q 726.179 416.825 725.437 406.580 Q 724.695 396.336 723.898 388.755 Q 723.100 381.175 723.235 373.876 Q 723.371 366.577 723.406 359.125 Q 723.440 351.672 723.901 340.408 Q 724.361 329.143 725.175 322.326 Q 725.988 315.509 726.247 312.834 Q 726.507 310.159 726.646 307.647 Q 726.785 305.136 726.872 299.641 Q 726.959 294.146 727.107 290.808 Q 727.255 287.470 727.232 286.131 Q 727.208 284.791 727.214 284.489 Q 727.220 284.187 727.218 284.148 Q 727.216 284.108 727.217 284.432 Q 727.217 284.756 727.217 282.234 Q 726.941 283.269 726.511 312.643 Q 726.081 342.017 726.192 358.414 Q 726.303 374.812 726.623 383.203 Q 726.943 391.595 727.287 395.672 Q 727.632 399.750 727.798 408.445 Q 727.965 417.140 727.665 422.920 Q 727.365 428.700 726.270 435.403 Q 725.175 442.106 724.850 445.449 Q 724.525 448.793 724.447 451.209 Q 724.368 453.624 724.259 454.190 Q 724.149 454.756 723.956 456.641 Q 723.704 456.492 723.319 455.689 Q 722.935 454.887 722.538 454.302 "></path>
    <path id="STROKE_04a4996b-1d5f-4bae-9ef8-5f62ed7963ce" opacity="1.000" fill="none" stroke="#71c047" stroke-width="1.200" stroke-opacity="1.000" stroke-linecap="round" stroke-linejoin="round" d="M 728.578 281.320 Q 728.915 280.477 727.302 284.211 Q 727.344 284.211 727.387 284.211 Q 727.387 282.498 727.387 282.904 Q 727.387 281.076 727.387 281.373 Q 726.994 281.014 726.763 256.044 Q 726.763 257.410 726.763 257.096 Q 726.763 259.482 726.763 258.765 Q 726.188 258.652 727.756 285.211 Q 727.631 281.033 727.628 251.622 Q 728.382 251.343 736.801 252.104 Q 745.219 252.864 751.902 252.373 Q 758.584 251.882 763.274 251.410 Q 767.963 250.938 771.584 250.909 Q 775.205 250.880 776.507 250.761 Q 777.808 250.643 778.450 251.059 Q 779.092 251.475 778.918 251.369 Q 778.745 251.262 778.811 251.297 Q 778.876 251.331 779.539 251.693 Q 780.201 252.056 779.987 251.950 Q 779.774 251.843 779.778 251.740 Q 779.782 251.637 780.191 252.451 Q 779.851 252.859 773.711 251.698 Q 767.571 250.537 762.056 250.215 Q 756.542 249.892 750.871 251.372 Q 745.201 252.851 741.680 254.103 Q 738.160 255.355 734.377 254.789 Q 734.257 255.200 734.296 254.267 Q 734.335 253.333 734.420 253.152 "></path>
    <path id="STROKE_641d5f64-76d1-40c5-b467-65116c14992c" opacity="1.000" fill="none" stroke="#71c047" stroke-width="1.200" stroke-opacity="1.000" stroke-linecap="round" stroke-linejoin="round" d="M 772.251 250.453 Q 773.513 249.874 773.115 250.091 L 773.158 250.091 Q 773.292 249.068 773.200 259.390 Q 773.107 269.713 772.968 276.984 Q 772.828 284.256 774.263 291.973 Q 775.698 299.689 776.871 313.430 Q 778.044 327.170 778.130 336.435 Q 778.217 345.699 778.146 350.586 Q 778.076 355.474 777.962 374.964 Q 777.848 394.454 777.965 404.932 Q 778.081 415.411 777.688 420.690 Q 777.295 425.970 776.648 430.657 Q 776.000 435.344 775.874 437.320 Q 775.748 439.297 775.113 443.413 Q 774.478 447.529 774.406 454.302 Q 774.406 452.206 774.406 452.984 Q 774.406 453.440 774.406 452.219 Q 774.463 452.219 774.689 452.347 Q 774.996 453.858 774.916 453.388 Q 775.157 454.607 775.101 454.292 Q 775.398 456.139 775.313 455.514 Q 775.180 455.407 775.512 456.471 Q 775.554 456.471 775.852 456.322 Q 776.675 455.438 776.542 446.771 Q 776.410 438.104 776.380 427.399 Q 776.350 416.694 776.921 411.383 Q 777.492 406.072 777.971 401.326 Q 778.451 396.579 778.280 385.463 Q 778.110 374.347 778.392 365.817 Q 778.675 357.286 779.063 352.814 Q 779.451 348.342 779.571 339.399 Q 779.691 330.455 779.129 322.603 Q 778.568 314.750 777.834 310.875 Q 777.100 306.999 777.711 299.553 Q 778.321 292.108 778.266 283.063 Q 778.210 274.018 777.828 267.956 Q 777.446 261.893 777.253 259.098 Q 777.059 256.303 776.941 255.018 Q 776.822 253.732 776.845 251.898 Q 776.717 252.036 776.589 252.175 "></path>
    <path id="STROKE_6d0f748f-8c22-45ed-bbd6-76932984a72c" opacity="1.000" fill="none" stroke="#71c047" stroke-width="1.200" stroke-opacity="1.000" stroke-linecap="round" stroke-linejoin="round" d="M 740.829 253.344 Q 740.817 253.336 740.833 253.220 Q 740.850 253.103 740.826 252.673 Q 740.802 252.243 740.825 252.070 Q 740.848 251.898 740.848 251.950 Q 740.849 252.003 740.870 251.865 Q 740.892 251.728 740.859 251.915 Q 740.826 252.103 740.835 252.063 Q 740.844 252.022 740.883 251.872 Q 740.922 251.721 741.169 250.453 Q 741.506 250.603 732.986 250.868 Q 724.466 251.133 724.154 251.175 "></path>
    <path id="STROKE_1dad85c9-5a60-444e-a0cd-3f4d886f632a" opacity="1.000" fill="none" stroke="#71c047" stroke-width="1.200" stroke-opacity="1.000" stroke-linecap="round" stroke-linejoin="round" d="M 728.422 252.019 Q 728.466 251.996 728.644 251.627 Q 728.823 251.258 728.749 251.251 Q 728.675 251.245 728.799 251.252 Q 728.922 251.259 728.689 250.557 Q 728.455 249.855 728.199 249.797 Q 727.942 249.738 728.004 249.730 Q 728.066 249.723 727.834 249.559 Q 727.602 249.396 727.473 249.366 Q 727.344 249.336 727.362 249.311 Q 727.381 249.285 726.591 249.055 Q 725.801 248.826 725.178 249.169 Q 724.555 249.512 724.497 249.684 Q 724.439 249.856 724.488 249.833 Q 724.538 249.809 724.457 249.754 Q 724.376 249.698 724.066 251.256 Q 723.756 252.813 723.804 253.562 Q 723.852 254.311 724.270 255.014 Q 724.688 255.717 725.450 255.742 Q 726.211 255.766 726.622 255.590 Q 727.033 255.414 727.286 254.935 Q 727.539 254.456 727.724 253.407 Q 727.908 252.357 727.877 251.541 Q 727.847 250.726 727.368 250.030 Q 726.889 249.335 727.074 249.496 Q 727.258 249.658 726.761 249.269 Q 726.264 248.881 725.437 248.866 Q 724.610 248.852 724.255 249.470 Q 723.900 250.088 723.845 250.362 Q 723.790 250.637 723.713 251.099 Q 723.636 251.562 723.642 252.721 Q 723.649 253.880 723.585 253.834 Q 723.521 253.788 723.930 254.321 Q 724.339 254.854 724.879 254.918 Q 725.420 254.982 725.868 254.837 Q 726.317 254.691 726.742 254.139 Q 727.167 253.587 727.068 253.768 Q 726.969 253.949 727.391 252.630 Q 727.813 251.312 727.610 250.084 Q 727.406 248.857 727.010 248.656 Q 726.614 248.455 726.148 248.326 Q 725.682 248.196 725.411 248.119 Q 725.139 248.042 724.613 248.916 Q 724.088 249.791 724.087 251.077 Q 724.085 252.363 724.071 253.116 Q 724.056 253.869 724.374 254.300 Q 724.691 254.730 724.672 254.774 Q 724.652 254.818 725.796 255.090 Q 726.939 255.361 727.534 254.721 Q 728.129 254.081 728.436 253.120 Q 728.743 252.160 728.827 251.482 Q 728.911 250.805 728.856 250.041 Q 728.802 249.277 728.434 248.929 Q 728.066 248.581 728.283 248.701 Q 728.501 248.822 727.525 248.286 Q 726.549 247.750 725.944 248.403 Q 725.338 249.057 724.987 250.012 Q 724.637 250.967 724.638 252.029 Q 724.640 253.091 724.649 253.897 Q 724.658 254.702 725.482 255.122 Q 726.306 255.542 727.067 255.251 Q 727.828 254.960 727.961 254.736 Q 728.095 254.512 728.644 252.740 Q 729.193 250.967 728.978 250.183 Q 728.763 249.399 728.316 249.159 Q 727.870 248.920 727.510 248.851 Q 727.150 248.781 727.306 248.778 Q 727.461 248.775 726.892 248.723 Q 726.323 248.671 726.118 248.762 Q 725.914 248.852 725.248 249.991 Q 724.581 251.129 724.530 252.379 Q 724.479 253.629 724.506 254.063 Q 724.532 254.497 724.723 254.807 Q 724.913 255.117 725.727 255.350 Q 726.541 255.583 727.603 255.162 Q 728.666 254.742 729.269 253.891 Q 729.871 253.040 730.116 251.632 Q 730.361 250.224 730.386 249.769 Q 730.411 249.314 730.283 249.061 Q 730.155 248.808 729.714 248.452 Q 729.273 248.097 728.227 247.917 Q 727.181 247.737 726.628 248.169 Q 726.075 248.602 725.626 248.992 Q 725.177 249.383 724.588 251.040 Q 723.999 252.697 724.189 253.678 Q 724.379 254.659 724.584 255.143 Q 724.789 255.627 725.352 255.808 Q 725.916 255.989 726.366 256.000 Q 726.816 256.011 727.251 255.936 Q 727.687 255.860 728.292 255.562 Q 728.897 255.264 729.755 253.619 Q 730.613 251.973 730.722 250.998 Q 730.831 250.024 730.830 248.797 Q 730.830 247.571 730.160 247.147 Q 729.491 246.723 729.177 246.646 Q 728.862 246.568 728.027 246.739 Q 727.191 246.910 726.642 247.470 Q 726.092 248.031 725.668 249.595 Q 725.244 251.160 725.283 252.578 Q 725.322 253.997 726.271 254.398 Q 727.220 254.800 728.075 254.578 Q 728.930 254.357 729.119 254.112 Q 729.308 253.866 729.460 253.534 Q 729.612 253.203 729.593 253.167 Q 729.574 253.131 729.626 253.146 Q 729.677 253.161 729.977 251.734 Q 730.276 250.306 730.315 249.425 Q 730.355 248.543 729.821 247.970 Q 729.288 247.397 728.465 247.240 Q 727.641 247.083 727.067 247.371 Q 726.492 247.659 725.875 248.303 Q 725.257 248.948 725.149 250.239 Q 725.041 251.531 725.030 252.307 Q 725.020 253.084 725.376 253.532 Q 725.733 253.981 726.593 254.153 Q 727.453 254.325 728.385 253.920 Q 729.317 253.515 729.714 251.837 Q 730.112 250.158 729.743 249.298 Q 729.375 248.438 728.685 248.156 Q 727.994 247.874 726.962 247.769 Q 725.931 247.664 725.547 248.941 Q 725.164 250.218 725.160 251.275 Q 725.155 252.331 725.377 252.805 Q 725.598 253.280 726.273 253.484 Q 726.948 253.687 727.456 253.853 Q 727.965 254.018 728.894 253.444 Q 729.824 252.870 730.056 251.741 Q 730.289 250.612 730.232 249.316 Q 730.174 248.021 729.235 247.652 Q 728.295 247.284 726.695 247.185 Q 725.095 247.087 724.496 248.995 Q 723.898 250.903 723.979 252.608 Q 724.061 254.314 725.285 254.774 Q 726.509 255.234 727.609 255.289 Q 728.710 255.343 729.280 253.601 Q 729.850 251.859 729.798 250.790 Q 729.745 249.721 729.398 249.128 Q 729.051 248.535 728.313 248.052 Q 727.575 247.568 726.807 247.542 Q 726.038 247.516 725.437 247.760 Q 724.835 248.005 724.828 248.150 Q 724.821 248.295 724.589 248.484 Q 724.357 248.672 724.115 249.934 Q 723.873 251.196 723.978 252.399 Q 724.083 253.601 724.958 254.228 Q 725.834 254.855 726.991 254.882 Q 728.149 254.908 728.817 254.409 Q 729.486 253.911 729.920 253.237 Q 730.354 252.563 730.312 252.039 Q 730.269 251.516 730.226 251.071 Q 730.183 250.626 730.061 250.510 Q 729.938 250.394 728.418 249.995 Q 726.898 249.596 725.981 249.727 Q 725.064 249.859 724.752 250.215 Q 724.439 250.570 724.424 250.881 Q 724.410 251.191 724.444 251.131 Q 724.479 251.070 724.323 251.004 Q 724.167 250.937 724.669 251.895 Q 725.172 252.854 725.884 252.928 Q 726.595 253.003 727.111 253.033 Q 727.626 253.063 727.969 253.044 Q 728.311 253.025 728.249 253.016 Q 728.188 253.008 728.299 253.009 Q 728.411 253.011 728.626 252.599 Q 728.842 252.187 728.630 251.009 Q 727.493 250.860 727.798 250.921 Q 726.953 251.268 726.911 251.284 Q 726.869 251.301 726.939 251.416 Q 726.749 251.788 726.715 252.077 Q 726.680 252.366 726.700 252.348 Q 726.721 252.330 726.692 252.233 Q 726.663 252.135 726.794 252.711 Q 726.652 252.774 727.701 252.641 Q 728.751 252.508 728.989 251.766 Q 729.227 251.025 729.273 250.663 Q 729.318 250.301 729.053 250.023 Q 728.788 249.746 728.965 249.736 Q 729.142 249.727 728.298 249.792 Q 727.454 249.857 727.282 250.053 "></path>
    <path id="STROKE_3dd836e2-3a48-4179-8f0d-735d4a968c43" opacity="1.000" fill="none" stroke="#71c047" stroke-width="1.200" stroke-opacity="1.000" stroke-linecap="round" stroke-linejoin="round" d="M 675.630 286.388 Q 676.139 286.845 676.001 286.672 Q 676.549 285.922 676.459 284.343 Q 676.368 282.765 676.229 282.023 Q 676.090 281.282 675.750 280.990 Q 675.410 280.698 675.182 280.549 Q 674.954 280.400 673.919 280.214 Q 672.884 280.028 672.073 281.521 Q 671.263 283.013 671.203 284.066 Q 671.144 285.118 671.235 286.250 Q 671.326 287.382 672.328 288.143 Q 673.329 288.905 673.916 288.912 Q 674.503 288.920 675.077 289.069 Q 675.651 289.219 676.578 288.835 Q 677.505 288.451 677.954 287.011 Q 678.404 285.570 678.367 284.747 Q 678.329 283.923 678.165 282.971 Q 678.001 282.019 677.274 281.487 Q 676.546 280.954 675.521 280.714 Q 674.496 280.474 674.299 280.564 Q 674.101 280.653 673.688 281.146 Q 673.274 281.639 673.141 282.150 Q 673.008 282.660 672.833 283.524 Q 672.658 284.388 672.785 285.256 Q 672.912 286.123 673.173 286.511 Q 673.435 286.899 673.684 286.978 Q 673.933 287.058 674.540 287.199 Q 675.146 287.340 675.953 286.461 Q 676.760 285.583 676.940 284.368 Q 677.120 283.152 677.217 281.978 Q 677.314 280.803 676.755 280.482 Q 676.196 280.161 675.466 279.944 Q 674.736 279.727 674.250 279.784 Q 673.765 279.842 673.437 280.513 Q 673.110 281.184 673.037 282.164 Q 672.964 283.145 672.979 283.774 Q 672.995 284.404 673.668 284.891 Q 674.341 285.379 674.984 285.474 Q 675.627 285.569 675.873 285.549 Q 676.120 285.529 676.417 285.232 Q 676.715 284.936 676.818 284.748 Q 676.920 284.560 676.926 284.598 Q 676.933 284.636 677.119 283.463 Q 677.306 282.290 676.828 281.605 Q 676.349 280.921 676.266 280.899 Q 676.183 280.878 676.136 280.850 Q 676.089 280.822 675.783 280.758 Q 675.478 280.694 675.211 280.667 Q 674.944 280.641 674.967 280.786 Q 674.991 280.931 675.020 280.598 Q 675.048 280.265 674.692 281.447 Q 674.336 282.629 674.493 283.338 Q 674.650 284.046 674.680 284.672 Q 674.709 285.297 675.456 285.515 Q 676.202 285.733 676.725 285.615 Q 677.248 285.497 677.317 285.162 Q 677.387 284.827 677.701 283.828 Q 678.015 282.830 677.428 282.133 Q 676.841 281.437 676.522 281.436 Q 676.203 281.435 675.773 281.317 Q 675.343 281.199 674.538 281.426 Q 673.732 281.653 673.694 282.003 Q 673.655 282.353 673.469 282.824 Q 673.284 283.294 673.436 283.956 Q 673.588 284.617 674.048 284.993 Q 674.508 285.369 674.828 285.446 Q 675.147 285.524 675.297 285.543 Q 675.447 285.562 676.354 285.706 Q 677.262 285.849 678.012 285.644 Q 678.763 285.438 678.706 284.771 Q 678.650 284.103 678.739 283.906 Q 678.829 283.708 678.735 283.743 Q 678.641 283.778 678.652 283.286 Q 678.664 282.793 677.508 282.312 Q 676.352 281.832 675.479 281.785 Q 674.607 281.738 674.371 282.218 Q 674.136 282.697 673.933 284.073 Q 673.730 285.450 674.324 286.133 Q 674.919 286.816 675.636 286.918 Q 676.353 287.020 677.041 286.902 Q 677.729 286.784 678.133 285.522 Q 678.536 284.259 678.510 283.066 Q 678.483 281.874 677.375 281.346 Q 676.266 280.819 675.898 280.862 Q 675.530 280.905 674.900 281.077 Q 674.269 281.250 674.031 282.566 Q 673.792 283.882 673.829 284.852 Q 673.865 285.822 673.949 286.146 Q 674.033 286.469 674.663 287.287 Q 675.294 288.105 675.996 288.271 Q 676.699 288.438 677.338 288.233 Q 677.976 288.028 678.105 286.622 Q 678.233 285.217 678.169 284.049 Q 678.106 282.882 677.237 282.255 Q 676.367 281.629 675.487 281.445 Q 674.607 281.261 674.040 281.528 Q 673.473 281.795 673.446 281.985 Q 673.419 282.175 673.266 282.436 Q 673.112 282.698 673.020 283.916 Q 672.929 285.133 673.287 285.650 Q 673.645 286.166 673.813 286.218 Q 673.980 286.269 674.200 286.512 Q 674.419 286.755 675.375 286.838 Q 676.330 286.921 677.092 286.953 Q 677.855 286.985 677.938 286.440 Q 678.020 285.894 678.096 285.026 Q 678.172 284.159 677.714 283.918 Q 677.255 283.677 676.884 283.561 Q 676.513 283.445 676.491 283.476 Q 676.469 283.508 676.317 283.447 Q 676.165 283.387 675.612 283.328 Q 675.059 283.270 674.496 283.580 Q 673.934 283.889 673.946 284.335 Q 673.959 284.781 673.965 285.010 Q 673.971 285.239 673.970 285.218 Q 673.969 285.196 673.972 285.163 Q 673.975 285.130 674.300 285.389 Q 674.626 285.647 675.145 285.745 Q 675.665 285.844 675.906 285.826 Q 676.148 285.809 675.972 285.816 Q 675.796 285.823 676.498 285.818 Q 676.520 285.575 676.333 285.449 Q 676.145 285.323 675.919 285.181 "></path>
    <path id="STROKE_f845307f-6db3-459e-b3a5-71802519ceb0" opacity="1.000" fill="none" stroke="#71c047" stroke-width="1.200" stroke-opacity="1.000" stroke-linecap="round" stroke-linejoin="round" d="M 629.728 307.863 Q 629.712 307.806 629.737 307.893 Q 629.761 307.981 629.747 307.855 Q 629.734 307.729 629.587 307.106 Q 629.440 306.484 629.465 306.597 Q 629.491 306.711 629.235 306.439 Q 628.979 306.168 628.379 305.949 Q 627.779 305.731 627.389 305.875 Q 626.999 306.019 626.741 306.294 Q 626.484 306.569 626.493 306.580 Q 626.501 306.592 626.051 307.336 Q 625.601 308.081 625.421 309.274 Q 625.241 310.467 625.395 311.453 Q 625.549 312.439 625.933 312.439 Q 626.317 312.439 626.867 312.569 Q 627.416 312.699 627.786 312.272 Q 628.156 311.845 628.409 310.936 Q 628.661 310.027 628.670 308.778 Q 628.678 307.529 628.703 307.334 Q 628.727 307.140 628.215 306.611 Q 627.704 306.083 626.937 306.045 Q 626.170 306.007 625.857 306.634 Q 625.543 307.261 625.508 307.700 Q 625.474 308.138 625.500 308.468 Q 625.528 308.798 625.536 309.127 Q 625.544 309.456 625.472 309.844 Q 625.400 310.231 625.632 310.687 Q 625.865 311.143 626.995 311.467 Q 628.124 311.791 628.373 311.409 Q 628.622 311.026 628.754 310.107 Q 628.885 309.188 628.971 308.659 Q 629.057 308.131 628.791 307.356 Q 628.526 306.582 627.925 306.228 Q 627.324 305.874 627.007 305.834 Q 626.689 305.794 626.384 305.807 Q 626.080 305.820 625.778 305.859 Q 625.475 305.898 625.594 305.877 Q 625.713 305.855 625.252 306.372 Q 624.791 306.889 624.779 308.063 Q 624.767 309.236 625.044 310.002 Q 625.321 310.768 626.061 311.004 Q 626.800 311.240 627.794 311.194 Q 628.787 311.148 629.142 309.977 Q 629.497 308.807 629.620 307.553 Q 629.742 306.299 629.392 305.632 Q 629.041 304.964 628.605 304.699 Q 628.168 304.433 627.499 304.187 Q 626.830 303.941 626.588 304.028 Q 626.345 304.114 625.975 304.429 Q 625.605 304.745 625.366 305.604 Q 625.127 306.463 625.173 306.639 Q 625.220 306.814 625.015 308.462 Q 624.810 310.111 625.239 311.102 Q 625.668 312.093 626.355 312.635 Q 627.042 313.176 627.719 313.262 Q 628.396 313.348 628.627 313.251 Q 628.857 313.154 628.952 313.219 Q 629.046 313.284 629.696 311.516 Q 630.346 309.749 629.808 308.001 Q 629.270 306.254 628.750 305.624 Q 628.229 304.995 627.401 304.686 Q 626.573 304.378 625.643 304.657 Q 624.714 304.935 624.678 305.074 Q 624.641 305.214 624.257 306.453 Q 623.873 307.693 624.052 309.137 Q 624.231 310.582 625.014 311.557 Q 625.797 312.532 626.738 312.674 Q 627.679 312.816 628.675 312.611 Q 629.671 312.406 629.913 311.693 Q 630.155 310.981 630.328 309.962 Q 630.502 308.943 630.088 307.569 Q 629.674 306.194 628.282 305.605 Q 626.890 305.017 625.738 305.079 Q 624.585 305.142 624.190 305.658 Q 623.794 306.174 623.482 308.018 Q 623.170 309.862 623.713 310.824 Q 624.257 311.786 625.195 312.214 Q 626.133 312.642 627.762 312.612 Q 629.392 312.582 629.895 310.669 Q 630.398 308.756 630.439 307.515 Q 630.480 306.274 629.589 305.362 Q 628.698 304.450 627.628 304.319 Q 626.559 304.188 625.425 304.281 Q 624.292 304.373 623.719 305.809 Q 623.146 307.244 623.171 308.678 Q 623.195 310.112 623.615 310.858 Q 624.035 311.603 624.495 312.052 Q 624.956 312.502 625.673 312.911 Q 626.391 313.320 627.142 313.248 Q 627.893 313.177 628.224 313.281 Q 628.555 313.385 629.046 311.615 Q 629.537 309.845 629.352 308.777 Q 629.168 307.708 628.680 306.896 Q 628.192 306.084 627.025 305.779 Q 625.858 305.475 625.332 306.080 Q 624.806 306.686 624.644 308.229 Q 624.482 309.772 625.434 311.038 Q 626.386 312.303 627.670 312.585 Q 628.953 312.868 629.596 312.637 Q 630.240 312.406 630.461 310.834 Q 630.683 309.262 630.025 308.178 Q 629.367 307.095 626.021 306.623 Q 625.813 306.967 625.595 308.253 Q 625.377 309.538 626.424 310.712 Q 627.472 311.885 629.439 311.544 Q 629.328 311.629 629.508 311.308 Q 629.688 310.987 629.469 309.881 Q 629.249 308.775 626.419 308.521 Q 626.604 308.152 626.366 309.089 Q 626.127 310.027 626.749 310.439 Q 627.372 310.851 627.852 310.782 Q 628.331 310.712 628.830 310.656 Q 629.329 310.600 629.005 309.043 Q 628.613 308.999 628.381 308.914 Q 628.149 308.829 628.286 308.791 Q 628.422 308.753 627.707 309.117 Q 626.992 309.482 627.196 309.531 Q 627.189 310.631 627.224 310.398 Q 626.877 310.293 627.412 310.485 Q 627.947 310.676 628.173 310.792 "></path>
    <path id="STROKE_2714698d-8b43-4186-90af-73320d770e06" opacity="1.000" fill="none" stroke="#71c047" stroke-width="1.200" stroke-opacity="1.000" stroke-linecap="round" stroke-linejoin="round" d="M 576.231 330.138 Q 576.299 329.620 576.054 329.430 Q 575.808 329.239 575.437 328.970 Q 575.066 328.701 574.605 328.491 Q 574.144 328.281 574.263 328.359 Q 574.381 328.438 574.287 328.399 Q 574.193 328.360 573.728 328.293 Q 573.263 328.226 572.844 328.313 Q 572.425 328.400 572.208 328.899 Q 571.991 329.398 571.939 329.570 Q 571.886 329.742 571.829 330.024 Q 571.772 330.307 571.771 330.431 Q 571.769 330.555 571.643 330.602 Q 571.517 330.648 571.599 331.830 Q 571.681 333.012 571.742 333.807 Q 571.803 334.601 572.501 334.804 Q 573.199 335.008 573.895 334.910 Q 574.592 334.813 574.449 334.869 Q 574.306 334.925 574.967 334.088 Q 575.629 333.251 575.870 331.482 Q 576.112 329.713 575.958 328.824 Q 575.804 327.935 575.208 327.350 Q 574.612 326.764 574.078 326.641 Q 573.544 326.518 573.097 326.430 Q 572.649 326.343 572.328 326.728 Q 572.007 327.113 571.825 328.095 Q 571.643 329.077 571.527 330.391 Q 571.412 331.705 572.349 333.074 Q 573.287 334.442 574.103 334.601 Q 574.919 334.760 575.747 334.666 Q 576.576 334.572 576.797 333.037 Q 577.019 331.502 576.917 330.491 Q 576.816 329.480 576.255 328.427 Q 575.695 327.374 574.779 327.146 Q 573.862 326.919 573.292 327.032 Q 572.723 327.145 572.423 328.944 Q 572.124 330.743 572.181 332.109 Q 572.239 333.474 573.298 334.277 Q 574.357 335.080 575.395 335.223 Q 576.433 335.366 577.133 334.901 Q 577.833 334.436 577.970 334.018 Q 578.106 333.601 578.394 332.499 Q 578.683 331.397 578.340 330.072 Q 577.998 328.746 577.303 328.371 Q 576.608 327.995 575.854 327.687 Q 575.101 327.380 574.108 327.414 Q 573.116 327.448 572.466 329.033 Q 571.816 330.618 571.753 332.193 Q 571.689 333.769 572.282 334.822 Q 572.874 335.875 573.957 336.382 Q 575.041 336.889 576.461 336.714 Q 577.881 336.539 578.540 334.762 Q 579.199 332.984 579.251 331.964 Q 579.302 330.943 578.790 329.713 Q 578.277 328.482 576.700 328.315 Q 575.122 328.148 574.148 328.120 Q 573.175 328.091 572.402 328.780 Q 571.630 329.470 571.543 330.440 Q 571.456 331.410 571.723 332.630 Q 571.990 333.850 572.913 334.450 Q 573.835 335.051 574.794 335.333 Q 575.753 335.615 576.620 335.486 Q 577.487 335.358 577.744 335.045 Q 578.001 334.733 578.143 334.103 Q 578.284 333.473 578.278 332.917 Q 578.271 332.361 578.294 332.473 Q 578.316 332.584 578.243 331.636 Q 578.170 330.688 576.897 329.884 Q 575.623 329.079 574.589 329.075 Q 573.556 329.071 573.046 329.269 Q 572.535 329.468 572.340 330.190 Q 572.145 330.912 572.452 332.239 Q 572.758 333.567 573.733 333.918 Q 574.709 334.270 575.461 334.315 Q 576.214 334.360 576.635 334.309 Q 577.057 334.258 577.109 334.157 Q 577.160 334.056 577.083 334.113 Q 577.007 334.169 577.279 333.754 Q 577.552 333.339 577.569 332.894 Q 577.587 332.448 577.667 331.774 Q 577.747 331.100 577.200 330.690 Q 576.652 330.281 575.707 329.878 Q 574.763 329.476 573.848 329.681 Q 572.933 329.885 572.668 330.976 Q 572.404 332.067 572.503 333.151 Q 572.602 334.234 573.679 334.602 Q 574.756 334.970 575.573 335.043 Q 576.389 335.115 577.014 334.705 Q 577.640 334.294 577.820 333.448 Q 578.001 332.603 578.018 331.988 Q 578.034 331.374 577.994 331.148 Q 577.953 330.922 577.963 330.957 Q 577.974 330.992 577.434 330.163 Q 576.893 329.335 575.953 329.158 Q 575.013 328.982 574.780 328.965 Q 574.547 328.949 574.044 329.008 Q 573.540 329.067 573.554 330.092 Q 573.569 331.117 573.452 331.523 Q 573.336 331.929 573.764 332.551 Q 574.192 333.174 574.807 333.460 Q 575.421 333.745 576.011 333.741 Q 576.601 333.736 577.068 333.416 Q 577.535 333.096 577.534 332.341 Q 577.534 331.586 577.638 331.216 Q 577.743 330.847 577.161 330.323 Q 576.580 329.798 575.717 329.754 Q 574.854 329.710 574.381 329.789 Q 573.907 329.869 573.803 330.103 Q 573.698 330.338 573.484 330.611 Q 573.270 330.883 573.661 331.690 Q 574.052 332.497 574.278 332.728 "></path>
    <path id="STROKE_41dfd1e4-3f49-4625-a20a-0197d07d045d" opacity="1.000" fill="none" stroke="#71c047" stroke-width="1.200" stroke-opacity="1.000" stroke-linecap="round" stroke-linejoin="round" d="M 523.783 351.559 Q 523.750 351.094 523.750 351.086 Q 523.749 351.079 523.798 351.047 Q 523.846 351.016 523.598 350.489 Q 523.350 349.962 523.376 350.079 Q 523.402 350.196 523.281 350.029 Q 523.160 349.863 522.209 349.546 Q 521.258 349.229 520.626 349.546 Q 519.995 349.862 519.805 350.319 Q 519.616 350.776 519.551 351.262 Q 519.487 351.747 519.554 351.443 Q 519.620 351.139 519.472 352.463 Q 519.323 353.787 519.738 355.318 Q 520.153 356.849 521.297 357.292 Q 522.441 357.735 523.470 357.873 Q 524.499 358.011 525.045 357.262 Q 525.591 356.513 525.680 355.914 Q 525.769 355.314 525.874 355.100 Q 525.980 354.885 525.764 353.216 Q 525.548 351.547 524.622 350.705 Q 523.696 349.864 522.897 349.504 Q 522.098 349.145 521.128 349.188 Q 520.159 349.231 519.797 350.781 Q 519.436 352.330 519.482 353.238 Q 519.528 354.146 519.665 354.708 Q 519.802 355.269 520.836 355.419 Q 521.869 355.568 522.544 355.718 Q 523.219 355.869 524.062 355.048 Q 524.905 354.227 525.160 353.180 Q 525.415 352.133 525.479 351.336 Q 525.543 350.539 525.033 349.329 Q 524.524 348.119 523.110 347.871 Q 521.696 347.624 520.622 347.709 Q 519.549 347.795 519.119 349.412 Q 518.688 351.029 518.789 351.942 Q 518.890 352.856 519.309 353.734 Q 519.728 354.613 520.485 354.860 Q 521.241 355.108 522.051 355.208 Q 522.860 355.309 523.602 354.896 Q 524.344 354.483 524.564 353.237 Q 524.785 351.992 524.537 350.596 Q 524.289 349.201 523.654 348.755 Q 523.018 348.310 522.020 347.913 Q 521.023 347.517 520.226 347.928 Q 519.430 348.339 519.414 349.657 Q 519.397 350.975 519.297 352.394 Q 519.196 353.812 519.665 355.034 Q 520.134 356.255 521.291 356.739 Q 522.449 357.223 522.830 357.354 Q 523.211 357.484 524.089 357.073 Q 524.966 356.662 525.260 356.077 Q 525.554 355.492 525.655 355.189 Q 525.756 354.886 525.842 354.154 Q 525.928 353.423 526.068 352.355 Q 526.209 351.287 525.492 349.776 Q 524.775 348.264 523.407 347.935 Q 522.038 347.607 521.172 347.907 Q 520.306 348.206 519.986 348.418 Q 519.666 348.631 519.404 349.962 Q 519.142 351.294 519.087 352.423 Q 519.033 353.551 519.636 354.500 Q 520.239 355.449 521.898 356.008 Q 523.557 356.568 524.473 356.367 Q 525.390 356.166 525.950 354.806 Q 526.510 353.445 526.422 352.207 Q 526.334 350.970 525.915 350.569 Q 525.495 350.168 524.831 349.788 Q 524.167 349.407 523.560 349.297 Q 522.953 349.187 522.167 349.210 Q 521.381 349.232 520.769 349.687 Q 520.157 350.142 519.941 351.221 Q 519.724 352.300 519.973 353.499 Q 520.221 354.698 521.692 355.166 Q 523.163 355.633 524.644 355.304 Q 526.126 354.975 526.540 353.618 Q 526.955 352.261 526.884 351.490 Q 526.814 350.720 526.607 350.223 Q 526.401 349.725 524.783 349.238 Q 523.165 348.751 522.132 349.218 Q 521.098 349.686 520.614 350.687 Q 520.129 351.689 520.195 352.340 Q 520.260 352.991 520.528 353.261 Q 520.795 353.532 521.561 353.859 Q 522.327 354.186 522.937 354.269 Q 523.548 354.352 523.783 354.433 "></path>
    <path id="STROKE_c1f04c7a-42ef-4e79-b969-0d388e708920" opacity="1.000" fill="none" stroke="#71c047" stroke-width="1.200" stroke-opacity="1.000" stroke-linecap="round" stroke-linejoin="round" d="M 526.352 306.616 Q 525.540 306.616 525.846 306.616 Q 525.819 306.616 525.792 306.616 Q 525.448 306.329 526.276 306.222 Q 527.103 306.115 527.964 306.173 Q 528.826 306.231 529.119 308.297 Q 529.413 310.362 527.275 315.415 L 527.221 315.415 Q 525.752 316.098 534.003 304.474 Q 534.187 304.145 532.963 305.822 Q 531.739 307.498 531.050 309.981 Q 530.362 312.464 530.928 314.872 Q 530.277 315.564 532.696 314.771 Q 535.115 313.978 535.377 313.747 "></path>
    <path id="STROKE_9035d44e-f5a9-41cf-ad8d-feef769ec453" opacity="1.000" fill="none" stroke="#71c047" stroke-width="1.200" stroke-opacity="1.000" stroke-linecap="round" stroke-linejoin="round" d="M 540.260 314.493 Q 540.366 314.452 540.495 313.517 Q 539.807 313.593 539.890 313.754 Q 539.716 313.650 539.092 315.436 Q 538.468 317.222 538.601 318.127 Q 538.734 319.032 538.783 319.566 Q 538.832 320.099 539.072 320.265 Q 539.313 320.430 539.399 320.458 Q 539.484 320.486 539.905 320.686 Q 540.327 320.886 540.996 320.822 Q 541.666 320.757 541.895 320.731 Q 542.123 320.705 542.615 319.533 Q 543.107 318.361 542.950 317.233 Q 542.793 316.106 542.386 315.629 Q 541.980 315.153 541.131 314.719 Q 540.282 314.286 539.136 314.681 Q 537.991 315.076 537.783 315.252 "></path>
    <path id="STROKE_d5f887f1-53f6-4e04-b928-1ad51437233e" opacity="1.000" fill="none" stroke="#71c047" stroke-width="1.200" stroke-opacity="1.000" stroke-linecap="round" stroke-linejoin="round" d="M 703.881 224.172 Q 703.881 224.172 703.881 224.185 Q 703.881 224.199 703.881 224.226 Q 704.652 224.226 704.605 224.226 Q 704.682 224.218 705.973 224.099 Q 707.263 223.979 708.103 226.003 Q 708.943 228.028 704.749 233.554 Q 704.660 233.086 714.280 221.976 Q 713.981 222.344 712.876 223.841 Q 711.772 225.337 711.211 226.749 Q 710.651 228.162 710.462 228.976 Q 710.272 229.791 710.302 230.015 Q 710.331 230.239 710.289 231.322 Q 710.247 232.406 710.482 232.746 Q 710.716 233.086 711.727 233.227 Q 712.739 233.368 713.572 233.402 Q 714.405 233.436 714.874 233.155 Q 715.343 232.874 715.748 232.492 Q 716.152 232.110 716.469 231.818 "></path>
    <path id="STROKE_50fce2dc-7dd7-4357-ac16-8951a2e86c25" opacity="1.000" fill="none" stroke="#71c047" stroke-width="1.200" stroke-opacity="1.000" stroke-linecap="round" stroke-linejoin="round" d="M 719.977 232.279 Q 720.013 232.271 720.692 232.313 Q 721.025 232.027 720.213 237.011 Q 720.567 235.619 725.466 230.842 Q 725.675 229.325 725.059 236.374 Q 724.950 236.469 725.170 236.511 Q 725.391 236.553 725.885 236.494 Q 726.380 236.435 726.579 236.320 "></path>
    <path id="STROKE_4ed8fdd9-0c6e-411a-9014-9f12c266ee5d" opacity="1.000" fill="none" stroke="#71c047" stroke-width="1.200" stroke-opacity="1.000" stroke-linecap="round" stroke-linejoin="round" d="M 730.612 233.784 Q 729.412 233.795 729.825 233.811 Q 729.771 233.838 729.744 233.838 Q 728.748 234.051 731.846 233.630 Q 734.943 233.208 735.205 233.093 "></path>
    <path id="STROKE_d8ae771d-323f-4e20-9025-bec00513a80a" opacity="1.000" fill="none" stroke="#71c047" stroke-width="1.200" stroke-opacity="1.000" stroke-linecap="round" stroke-linejoin="round" d="M 740.089 229.812 Q 740.105 230.601 740.094 230.029 Q 740.083 229.458 739.964 231.652 Q 739.844 233.846 739.777 235.296 Q 739.709 236.747 739.618 236.943 "></path>
    <path id="STROKE_e4f778b1-40d4-429c-a704-93c08c44dc5a" opacity="1.000" fill="none" stroke="#71c047" stroke-width="1.200" stroke-opacity="1.000" stroke-linecap="round" stroke-linejoin="round" d="M 540.047 193.911 Q 540.372 193.675 540.322 193.673 Q 540.383 193.618 540.548 193.444 Q 541.243 193.724 538.317 204.029 Q 538.125 203.832 538.089 203.589 Q 538.054 203.347 537.956 203.058 "></path>
    <path id="STROKE_e6552f23-9008-4df4-a170-f283c2acb774" opacity="1.000" fill="none" stroke="#71c047" stroke-width="1.200" stroke-opacity="1.000" stroke-linecap="round" stroke-linejoin="round" d="M 535.119 195.194 Q 535.101 195.194 534.960 195.194 Q 535.100 195.488 538.180 194.860 Q 541.259 194.232 543.061 193.487 Q 544.864 192.743 545.133 192.546 "></path>
    <path id="STROKE_3ee21dbd-c593-4ab8-8037-696193132ac0" opacity="1.000" fill="none" stroke="#71c047" stroke-width="1.200" stroke-opacity="1.000" stroke-linecap="round" stroke-linejoin="round" d="M 549.803 194.223 Q 549.882 194.390 548.633 194.159 Q 547.384 193.928 546.892 194.261 Q 546.401 194.594 545.907 196.009 Q 545.413 197.424 545.326 198.637 Q 545.239 199.851 545.159 200.729 Q 545.079 201.608 545.854 202.276 Q 546.630 202.944 547.739 202.033 Q 548.849 201.121 549.268 199.845 Q 549.687 198.570 549.773 197.244 Q 549.859 195.918 549.586 195.159 Q 549.314 194.399 549.042 194.027 Q 548.770 193.655 548.715 193.554 "></path>
    <path id="STROKE_71623341-3455-4ac8-93f6-12e5199d0f09" opacity="1.000" fill="none" stroke="#71c047" stroke-width="1.200" stroke-opacity="1.000" stroke-linecap="round" stroke-linejoin="round" d="M 553.569 193.710 Q 553.587 193.691 553.911 193.481 Q 553.918 193.453 553.105 195.739 Q 552.292 198.024 552.829 201.908 Q 554.362 203.186 558.129 194.333 L 558.172 194.333 Q 558.266 194.833 558.150 196.842 Q 558.034 198.851 558.004 200.157 Q 557.974 201.463 558.268 202.236 Q 558.562 203.009 559.501 202.692 Q 560.440 202.375 560.672 202.160 "></path>
    <path id="STROKE_91d00916-34d0-48b8-bf5c-23b761920a2e" opacity="1.000" fill="none" stroke="#71c047" stroke-width="1.200" stroke-opacity="1.000" stroke-linecap="round" stroke-linejoin="round" d="M 566.381 194.644 Q 566.209 194.650 565.354 194.729 Q 564.499 194.808 563.652 195.760 Q 562.806 196.713 562.395 198.201 Q 561.985 199.688 562.011 200.642 Q 562.037 201.595 562.151 202.215 Q 562.266 202.835 563.170 203.119 Q 564.074 203.402 565.074 202.666 Q 566.073 201.930 566.460 200.975 Q 566.846 200.020 567.078 199.594 "></path>
    <path id="STROKE_7790cc8b-3347-498a-a868-96ff1092af23" opacity="1.000" fill="none" stroke="#71c047" stroke-width="1.200" stroke-opacity="1.000" stroke-linecap="round" stroke-linejoin="round" d="M 570.771 194.021 Q 570.894 194.063 570.245 194.471 Q 569.597 194.879 569.432 202.591 Q 569.469 202.591 569.487 202.591 Q 569.487 202.531 569.478 202.414 Q 569.469 202.297 569.450 202.123 "></path>
    <path id="STROKE_4fd2ff2e-f42e-439e-84a6-50b55f602f16" opacity="1.000" fill="none" stroke="#71c047" stroke-width="1.200" stroke-opacity="1.000" stroke-linecap="round" stroke-linejoin="round" d="M 569.487 198.851 Q 569.540 198.774 569.546 199.249 Q 569.552 199.724 570.528 199.958 Q 571.505 200.191 572.826 199.635 Q 574.148 199.079 574.819 198.390 Q 575.490 197.701 575.661 197.449 "></path>
    <path id="STROKE_16695a4d-4095-402d-90d6-2a1fdd196f21" opacity="1.000" fill="none" stroke="#71c047" stroke-width="1.200" stroke-opacity="1.000" stroke-linecap="round" stroke-linejoin="round" d="M 576.089 194.452 Q 575.965 194.931 575.875 194.901 Q 575.513 195.787 575.559 195.453 Q 575.605 195.120 575.137 197.375 Q 574.668 199.629 574.848 203.250 Q 575.508 203.147 575.557 202.759 Q 575.606 202.371 575.747 202.077 "></path>
    <path id="STROKE_cc01f46f-55c7-43a6-a275-11723c874be9" opacity="1.000" fill="none" stroke="#71c047" stroke-width="1.200" stroke-opacity="1.000" stroke-linecap="round" stroke-linejoin="round" d="M 581.835 195.002 Q 581.722 194.794 580.917 196.742 Q 580.112 198.690 579.977 203.755 Q 579.995 203.755 580.014 203.755 Q 579.991 203.833 580.021 203.503 Q 580.050 203.173 580.087 202.939 "></path>
    <path id="STROKE_5457ca76-ef1c-45a6-bcaf-3aaa4fd998a5" opacity="1.000" fill="none" stroke="#71c047" stroke-width="1.200" stroke-opacity="1.000" stroke-linecap="round" stroke-linejoin="round" d="M 585.099 194.956 Q 584.924 195.609 584.152 203.874 Q 584.067 203.948 583.963 202.566 Q 583.859 201.184 583.779 200.794 "></path>
    <path id="STROKE_a8bb7cef-583d-4552-8745-0c71681e7424" opacity="1.000" fill="none" stroke="#71c047" stroke-width="1.200" stroke-opacity="1.000" stroke-linecap="round" stroke-linejoin="round" d="M 585.099 195.973 Q 585.156 195.423 586.215 196.739 Q 587.274 198.055 587.962 199.072 Q 588.650 200.088 589.302 200.853 Q 589.953 201.618 590.406 202.019 Q 590.859 202.421 591.494 202.693 Q 592.130 202.965 592.678 199.993 Q 593.226 197.022 593.769 195.368 Q 594.312 193.714 594.428 193.636 "></path>
    <path id="STROKE_cf8f920d-c2d5-4cb2-9c0b-3867c09ca3d2" opacity="1.000" fill="none" stroke="#71c047" stroke-width="1.200" stroke-opacity="1.000" stroke-linecap="round" stroke-linejoin="round" d="M 601.226 193.288 Q 601.406 193.151 601.008 192.965 Q 600.610 192.778 600.349 192.764 Q 600.087 192.750 600.103 192.808 Q 600.118 192.866 599.868 192.895 Q 599.618 192.923 598.714 194.283 Q 597.811 195.642 597.432 196.777 Q 597.053 197.913 596.921 198.556 Q 596.789 199.200 596.766 200.097 Q 596.743 200.994 596.804 201.749 Q 596.866 202.503 597.790 202.814 Q 598.715 203.125 599.399 202.814 Q 600.084 202.503 600.517 202.046 Q 600.951 201.589 601.250 200.834 Q 601.550 200.079 601.690 199.749 "></path>
    <path id="STROKE_92bf2563-1de6-40d7-8eda-59e2fdc278a9" opacity="1.000" fill="none" stroke="#71c047" stroke-width="1.200" stroke-opacity="1.000" stroke-linecap="round" stroke-linejoin="round" d="M 599.661 197.843 Q 599.642 197.888 599.086 198.659 Q 599.339 198.744 604.136 198.113 Q 604.564 197.885 603.659 201.470 Q 602.754 205.056 602.730 205.074 "></path>
    <path id="STROKE_4c83f4a0-1ba6-40a3-ab59-45b8785874be" opacity="1.000" fill="none" stroke="#71c047" stroke-width="1.200" stroke-opacity="1.000" stroke-linecap="round" stroke-linejoin="round" d="M 622.854 192.042 Q 623.020 192.079 622.273 191.886 Q 621.965 192.965 622.035 192.857 Q 621.778 193.963 620.910 202.783 Q 620.910 202.765 620.861 202.520 Q 620.812 202.274 620.714 202.041 "></path>
    <path id="STROKE_1c438952-10cc-4c5f-b47d-1889acb8178c" opacity="1.000" fill="none" stroke="#71c047" stroke-width="1.200" stroke-opacity="1.000" stroke-linecap="round" stroke-linejoin="round" d="M 617.609 193.444 Q 618.639 194.236 622.736 193.508 Q 626.833 192.779 627.084 192.665 "></path>
    <path id="STROKE_b040c3c6-2bfa-45cd-8482-50200ee560d2" opacity="1.000" fill="none" stroke="#71c047" stroke-width="1.200" stroke-opacity="1.000" stroke-linecap="round" stroke-linejoin="round" d="M 629.382 191.959 Q 629.146 192.793 628.607 195.740 Q 628.067 198.686 627.903 201.766 Q 627.866 201.766 627.701 201.660 Q 627.536 201.555 627.402 201.381 "></path>
    <path id="STROKE_3ec58d44-8626-4a9c-a9bb-e7e40f9c42d5" opacity="1.000" fill="none" stroke="#71c047" stroke-width="1.200" stroke-opacity="1.000" stroke-linecap="round" stroke-linejoin="round" d="M 628.294 196.789 Q 628.375 197.021 629.119 197.368 Q 629.862 197.715 630.890 197.795 Q 631.917 197.875 633.336 196.487 Q 634.756 195.098 634.970 194.846 "></path>
    <path id="STROKE_70cd09ad-dd95-42de-a3ae-afd647d670cd" opacity="1.000" fill="none" stroke="#71c047" stroke-width="1.200" stroke-opacity="1.000" stroke-linecap="round" stroke-linejoin="round" d="M 635.288 192.857 Q 634.520 192.694 633.980 195.414 Q 633.441 198.133 633.472 200.739 Q 633.966 200.851 634.208 200.337 Q 634.450 199.823 634.627 199.548 "></path>
    <path id="STROKE_0e3f9936-0eea-4911-afba-25c6fc9c19b3" opacity="1.000" fill="none" stroke="#71c047" stroke-width="1.200" stroke-opacity="1.000" stroke-linecap="round" stroke-linejoin="round" d="M 640.643 191.803 Q 640.877 191.807 639.979 193.504 Q 639.081 195.201 638.762 196.913 Q 638.442 198.625 638.445 199.479 Q 638.447 200.333 638.359 200.921 Q 638.270 201.510 638.899 201.846 Q 639.528 202.182 640.223 202.311 Q 640.918 202.440 641.567 202.370 Q 642.216 202.299 642.785 202.111 Q 643.355 201.923 643.667 201.175 Q 643.980 200.428 644.017 200.217 "></path>
    <path id="STROKE_6b84c69a-aa1b-4451-bc6d-7337eeb80773" opacity="1.000" fill="none" stroke="#71c047" stroke-width="1.200" stroke-opacity="1.000" stroke-linecap="round" stroke-linejoin="round" d="M 639.285 197.486 Q 639.396 197.687 639.881 197.880 Q 640.366 198.073 641.074 197.628 Q 641.782 197.182 642.452 196.455 Q 643.121 195.728 643.550 195.140 Q 643.980 194.553 644.213 194.223 "></path>
    <path id="STROKE_d5300ad0-0cf1-47f5-8096-0a037f1a09ec" opacity="1.000" fill="none" stroke="#71c047" stroke-width="1.200" stroke-opacity="1.000" stroke-linecap="round" stroke-linejoin="round" d="M 639.432 192.078 Q 640.181 192.078 640.140 192.078 Q 640.098 192.077 640.156 192.047 Q 640.213 192.017 640.444 192.178 Q 640.674 192.338 644.445 190.953 Q 648.217 189.567 648.761 189.274 "></path>
    <path id="STROKE_cbbaa75b-63e2-4b1e-aeff-a87c95f2c6de" opacity="1.000" fill="none" stroke="#71c047" stroke-width="1.200" stroke-opacity="1.000" stroke-linecap="round" stroke-linejoin="round" d="M 541.966 213.002 Q 541.943 212.999 542.039 212.573 Q 542.134 212.146 541.946 211.934 Q 541.757 211.723 541.548 211.717 Q 541.338 211.712 540.944 211.875 Q 540.551 212.038 539.974 212.737 Q 539.398 213.437 539.142 213.845 Q 538.886 214.253 538.501 215.182 Q 538.115 216.111 538.023 216.779 Q 537.930 217.448 538.079 218.112 Q 538.228 218.777 539.049 219.138 Q 539.870 219.499 540.481 219.544 Q 541.091 219.588 541.474 219.390 Q 541.856 219.193 541.992 218.926 Q 542.127 218.660 542.213 218.519 "></path>
    <path id="STROKE_2c25adc6-11e5-4f21-aa86-5264f06b2851" opacity="1.000" fill="none" stroke="#71c047" stroke-width="1.200" stroke-opacity="1.000" stroke-linecap="round" stroke-linejoin="round" d="M 540.220 216.484 Q 540.241 216.501 539.808 217.163 Q 539.734 217.504 544.204 216.550 Q 544.375 216.465 543.871 217.601 Q 543.367 218.737 542.969 221.007 Q 543.008 221.192 543.234 220.979 Q 543.461 220.766 543.561 220.634 "></path>
    <path id="STROKE_939fbdac-e155-4087-88ff-9ab48e4278af" opacity="1.000" fill="none" stroke="#71c047" stroke-width="1.200" stroke-opacity="1.000" stroke-linecap="round" stroke-linejoin="round" d="M 546.846 213.180 Q 546.916 213.248 546.357 214.902 Q 545.799 216.556 545.555 217.548 Q 545.312 218.541 545.460 219.500 Q 545.413 219.483 545.367 219.466 "></path>
    <path id="STROKE_87df7874-9369-4b92-9477-1d65a4a68e54" opacity="1.000" fill="none" stroke="#71c047" stroke-width="1.200" stroke-opacity="1.000" stroke-linecap="round" stroke-linejoin="round" d="M 547.002 213.322 Q 547.118 213.116 547.642 212.866 Q 548.166 212.616 548.576 212.625 Q 548.987 212.633 549.238 212.649 Q 549.488 212.665 549.669 212.904 Q 549.849 213.143 549.871 213.500 Q 549.893 213.857 549.366 214.523 Q 548.839 215.188 548.505 215.467 Q 548.172 215.746 547.409 216.268 Q 546.647 216.789 545.584 217.748 Q 545.372 217.872 550.901 218.886 Q 551.025 218.740 551.109 218.645 "></path>
    <path id="STROKE_0a837653-3392-4555-b55d-dbab840bfc60" opacity="1.000" fill="none" stroke="#71c047" stroke-width="1.200" stroke-opacity="1.000" stroke-linecap="round" stroke-linejoin="round" d="M 551.945 219.732 Q 551.945 219.732 551.929 219.572 Q 551.914 219.411 551.937 219.416 Q 551.781 219.106 552.811 217.288 Q 553.840 215.469 554.413 214.498 Q 554.985 213.528 555.253 213.089 Q 555.521 212.650 555.631 212.610 Q 555.740 212.569 555.782 212.549 Q 555.823 212.529 555.984 212.732 Q 556.144 212.934 556.142 213.151 Q 556.140 213.368 556.251 214.030 Q 556.362 214.692 556.534 216.274 Q 556.706 217.855 556.775 218.954 Q 556.844 220.053 556.831 220.130 "></path>
    <path id="STROKE_c463d85f-01b4-43f7-9ee5-a8a650a6e76c" opacity="1.000" fill="none" stroke="#71c047" stroke-width="1.200" stroke-opacity="1.000" stroke-linecap="round" stroke-linejoin="round" d="M 553.151 217.142 Q 553.126 216.947 554.369 216.914 Q 555.613 216.882 556.575 216.660 Q 557.537 216.438 558.239 215.913 Q 558.940 215.387 559.138 215.203 "></path>
    <path id="STROKE_7a944921-d494-40a5-ad66-d313991e8966" opacity="1.000" fill="none" stroke="#71c047" stroke-width="1.200" stroke-opacity="1.000" stroke-linecap="round" stroke-linejoin="round" d="M 561.882 212.915 Q 561.884 212.903 561.892 212.856 Q 561.718 212.969 560.952 215.613 Q 560.187 218.258 559.124 220.961 Q 558.875 220.973 558.815 220.921 Q 558.756 220.868 558.643 220.789 "></path>
    <path id="STROKE_9ac92b27-b147-449d-8fe1-00ec076b5751" opacity="1.000" fill="none" stroke="#71c047" stroke-width="1.200" stroke-opacity="1.000" stroke-linecap="round" stroke-linejoin="round" d="M 561.778 213.055 Q 561.831 212.938 562.171 212.696 Q 562.511 212.453 562.900 212.465 Q 563.289 212.476 563.567 212.563 Q 563.845 212.651 564.090 213.128 Q 564.336 213.604 564.380 214.364 Q 564.425 215.123 563.727 215.819 Q 563.029 216.515 562.154 216.988 Q 561.280 217.461 560.717 217.608 Q 560.155 217.755 559.893 217.658 Q 559.632 217.561 559.563 217.440 "></path>
    <path id="STROKE_ab6f7e37-13b2-4dd7-8ba1-068d8a2a8cdc" opacity="1.000" fill="none" stroke="#71c047" stroke-width="1.200" stroke-opacity="1.000" stroke-linecap="round" stroke-linejoin="round" d="M 565.927 213.164 Q 566.042 212.736 563.521 220.760 Q 563.440 220.758 563.380 220.748 "></path>
    <path id="STROKE_b707acb3-6bef-43a6-8ce2-7680cbc77aa1" opacity="1.000" fill="none" stroke="#71c047" stroke-width="1.200" stroke-opacity="1.000" stroke-linecap="round" stroke-linejoin="round" d="M 565.587 215.865 Q 565.692 215.950 565.914 216.224 Q 566.135 216.498 566.906 216.746 Q 567.678 216.993 568.417 216.934 Q 569.157 216.874 569.816 216.522 Q 570.475 216.170 570.809 215.852 Q 571.144 215.534 571.240 215.423 "></path>
    <path id="STROKE_bc36da24-b171-4709-9e8b-9b6c3b8a3cd1" opacity="1.000" fill="none" stroke="#71c047" stroke-width="1.200" stroke-opacity="1.000" stroke-linecap="round" stroke-linejoin="round" d="M 572.020 212.681 Q 571.924 212.582 571.205 215.127 Q 570.486 217.673 570.082 219.251 Q 569.677 220.830 569.632 220.862 "></path>
    <path id="STROKE_76a43689-d6d0-46e7-9c0e-cd8bb585d7a8" opacity="1.000" fill="none" stroke="#71c047" stroke-width="1.200" stroke-opacity="1.000" stroke-linecap="round" stroke-linejoin="round" d="M 585.586 213.900 Q 585.567 213.903 585.258 213.801 Q 584.949 213.698 584.462 213.657 Q 583.976 213.615 583.286 214.326 Q 582.597 215.036 582.339 215.509 Q 582.080 215.983 581.871 216.764 Q 581.661 217.545 581.565 218.173 Q 581.468 218.800 581.585 219.352 Q 581.701 219.905 582.096 220.211 Q 582.490 220.516 583.179 220.192 Q 583.868 219.868 584.479 218.950 Q 585.090 218.031 585.483 216.844 Q 585.876 215.656 586.023 214.323 Q 586.169 212.990 585.990 212.287 Q 585.811 211.583 585.778 211.490 "></path>
    <path id="STROKE_5b0fb785-ffe9-487e-9d75-07a28da17631" opacity="1.000" fill="none" stroke="#71c047" stroke-width="1.200" stroke-opacity="1.000" stroke-linecap="round" stroke-linejoin="round" d="M 589.735 213.064 Q 589.843 213.098 589.209 214.504 Q 588.576 215.910 588.105 216.881 Q 587.634 217.851 587.360 218.883 Q 587.351 218.882 587.325 218.838 Q 587.298 218.794 587.263 218.709 "></path>
    <path id="STROKE_529ddbd6-4d79-4bfb-8d56-fd579c2a9a77" opacity="1.000" fill="none" stroke="#71c047" stroke-width="1.200" stroke-opacity="1.000" stroke-linecap="round" stroke-linejoin="round" d="M 588.990 213.629 Q 588.821 213.514 589.309 215.465 Q 589.797 217.415 590.114 218.445 Q 590.430 219.475 590.717 220.000 Q 591.004 220.525 591.051 220.578 Q 591.099 220.632 591.331 220.849 Q 591.562 221.067 591.975 220.637 Q 592.388 220.207 593.212 216.780 Q 594.036 213.353 594.122 213.122 "></path>
    <path id="STROKE_7cae581d-ff97-4990-9c32-64db7360c40c" opacity="1.000" fill="none" stroke="#71c047" stroke-width="1.200" stroke-opacity="1.000" stroke-linecap="round" stroke-linejoin="round" d="M 609.206 212.350 Q 608.973 212.532 606.448 220.051 L 606.457 220.052 Q 606.492 220.010 606.518 219.965 "></path>
    <path id="STROKE_6df7879d-9001-47bd-9d50-2dbbb3b6b76b" opacity="1.000" fill="none" stroke="#71c047" stroke-width="1.200" stroke-opacity="1.000" stroke-linecap="round" stroke-linejoin="round" d="M 604.907 213.707 Q 604.907 213.707 604.928 213.847 Q 604.949 213.986 606.141 214.055 Q 607.333 214.124 608.079 213.948 Q 608.824 213.773 609.613 213.583 Q 610.402 213.393 611.241 212.850 Q 612.080 212.306 612.263 212.159 "></path>
    <path id="STROKE_2c296637-7f1c-48d9-ae1a-3b685d75a8ef" opacity="1.000" fill="none" stroke="#71c047" stroke-width="1.200" stroke-opacity="1.000" stroke-linecap="round" stroke-linejoin="round" d="M 613.448 212.026 Q 613.457 212.167 613.439 212.003 Q 613.420 211.839 612.916 213.673 Q 612.411 215.506 612.168 216.463 Q 611.925 217.420 611.844 217.956 Q 611.763 218.492 611.690 218.895 Q 611.589 218.908 611.487 218.921 "></path>
    <path id="STROKE_a4e4a829-347e-4418-8b02-71afd34e8e62" opacity="1.000" fill="none" stroke="#71c047" stroke-width="1.200" stroke-opacity="1.000" stroke-linecap="round" stroke-linejoin="round" d="M 612.218 217.056 Q 612.307 217.181 612.773 217.361 Q 613.238 217.541 613.812 217.447 Q 614.386 217.353 615.486 216.319 Q 616.587 215.286 616.732 215.123 "></path>
    <path id="STROKE_cb6e5a12-d93a-465d-9cf7-834a86a20a3e" opacity="1.000" fill="none" stroke="#71c047" stroke-width="1.200" stroke-opacity="1.000" stroke-linecap="round" stroke-linejoin="round" d="M 619.008 211.550 Q 618.911 211.880 618.872 211.874 Q 618.557 212.096 617.573 214.905 Q 616.589 217.714 616.059 221.012 L 616.068 221.014 Q 616.102 220.922 616.136 220.831 "></path>
    <path id="STROKE_1f34d848-0469-447e-ba52-6a8f17c19356" opacity="1.000" fill="none" stroke="#71c047" stroke-width="1.200" stroke-opacity="1.000" stroke-linecap="round" stroke-linejoin="round" d="M 622.231 212.926 Q 622.341 212.885 621.779 213.580 Q 621.216 214.275 620.964 215.253 Q 620.711 216.231 620.588 217.051 Q 620.466 217.870 620.722 218.541 Q 620.979 219.212 621.654 219.521 Q 622.328 219.829 623.158 219.594 Q 623.988 219.359 624.381 218.868 Q 624.774 218.377 624.887 218.239 "></path>
    <path id="STROKE_e69e3e96-cbe1-42fa-a4fc-b3e841b420cd" opacity="1.000" fill="none" stroke="#71c047" stroke-width="1.200" stroke-opacity="1.000" stroke-linecap="round" stroke-linejoin="round" d="M 621.164 217.251 Q 621.163 217.260 621.151 217.328 Q 621.229 217.541 622.412 217.257 Q 623.595 216.973 624.520 216.132 Q 625.445 215.290 625.660 215.060 "></path>
    <path id="STROKE_f9080a05-2b33-48b8-90c9-27192b3bcd69" opacity="1.000" fill="none" stroke="#71c047" stroke-width="1.200" stroke-opacity="1.000" stroke-linecap="round" stroke-linejoin="round" d="M 621.496 213.432 Q 621.140 213.419 621.212 213.430 Q 621.162 213.431 621.144 213.428 Q 621.172 213.519 622.865 213.218 Q 624.558 212.918 625.755 212.441 Q 626.952 211.964 627.278 211.792 "></path>
    <path id="STROKE_e70ddfc4-744c-4f50-8b09-9385565c2db8" opacity="1.000" fill="none" stroke="#71c047" stroke-width="1.200" stroke-opacity="1.000" stroke-linecap="round" stroke-linejoin="round" d="M 641.430 213.129 Q 641.454 213.092 641.494 213.000 Q 641.535 212.907 641.671 212.618 Q 641.726 212.862 640.771 214.688 Q 639.816 216.514 639.305 219.628 Q 639.602 219.987 640.880 219.663 Q 642.157 219.340 642.961 218.994 Q 643.765 218.648 644.092 218.281 Q 644.419 217.915 644.530 217.785 "></path>
    <path id="STROKE_04ce6052-6c1d-4e25-aa21-cf9153fe45fc" opacity="1.000" fill="none" stroke="#71c047" stroke-width="1.200" stroke-opacity="1.000" stroke-linecap="round" stroke-linejoin="round" d="M 647.133 212.756 Q 646.939 212.976 646.962 212.943 Q 646.690 212.973 646.236 214.533 Q 645.782 216.092 645.635 216.956 Q 645.488 217.819 645.401 218.198 Q 645.313 218.578 645.555 219.150 Q 645.798 219.722 646.903 219.633 Q 648.008 219.544 648.663 219.359 Q 649.317 219.174 649.675 218.979 Q 650.032 218.783 650.170 218.563 Q 650.308 218.343 650.386 218.226 "></path>
    <path id="STROKE_df2a24ea-65d5-41dd-bf43-7155d635f2eb" opacity="1.000" fill="none" stroke="#71c047" stroke-width="1.200" stroke-opacity="1.000" stroke-linecap="round" stroke-linejoin="round" d="M 646.671 216.396 Q 646.507 216.426 646.317 216.623 Q 646.461 216.770 647.587 216.607 Q 648.712 216.444 649.611 215.673 Q 650.510 214.902 650.669 214.732 "></path>
    <path id="STROKE_3c24ae05-6d36-4c3b-8b8c-cf599f240b94" opacity="1.000" fill="none" stroke="#71c047" stroke-width="1.200" stroke-opacity="1.000" stroke-linecap="round" stroke-linejoin="round" d="M 646.971 213.457 Q 646.953 213.453 646.857 213.437 Q 646.831 213.434 649.117 212.979 Q 651.402 212.525 651.706 212.409 "></path>
    <path id="STROKE_94283b06-4c64-44eb-a68c-16aadfcb65c0" opacity="1.000" fill="none" stroke="#71c047" stroke-width="1.200" stroke-opacity="1.000" stroke-linecap="round" stroke-linejoin="round" d="M 655.191 212.606 Q 655.255 212.723 654.492 215.345 Q 653.728 217.966 653.432 220.852 L 653.441 220.853 Q 653.458 220.756 653.474 220.660 "></path>
    <path id="STROKE_6e16ce12-50e6-41ff-9a09-3cb9d8c9de8c" opacity="1.000" fill="none" stroke="#71c047" stroke-width="1.200" stroke-opacity="1.000" stroke-linecap="round" stroke-linejoin="round" d="M 655.415 212.783 Q 655.360 212.524 657.315 212.359 Q 659.269 212.194 659.393 212.155 "></path>
    <path id="STROKE_2f0b0344-23f5-4981-9457-e67296223655" opacity="1.000" fill="none" stroke="#71c047" stroke-width="1.200" stroke-opacity="1.000" stroke-linecap="round" stroke-linejoin="round" d="M 653.457 217.291 Q 653.457 217.291 653.469 217.349 Q 653.481 217.408 654.984 217.189 Q 656.487 216.971 657.675 216.597 Q 658.863 216.224 659.401 215.856 Q 659.938 215.487 660.086 215.364 "></path>
    <path id="STROKE_fd2a3a08-cc82-4938-82ad-c285ed987287" opacity="1.000" fill="none" stroke="#71c047" stroke-width="1.200" stroke-opacity="1.000" stroke-linecap="round" stroke-linejoin="round" d="M 662.513 212.646 Q 662.392 212.730 663.289 212.986 Q 664.185 213.242 665.579 213.255 Q 666.973 213.269 667.836 213.045 Q 668.698 212.822 669.190 212.739 Q 669.681 212.656 669.693 212.202 Q 669.706 211.747 669.597 211.640 "></path>
    <path id="STROKE_d7f78d23-ed44-4023-a52b-ecc0b6512a6a" opacity="1.000" fill="none" stroke="#71c047" stroke-width="1.200" stroke-opacity="1.000" stroke-linecap="round" stroke-linejoin="round" d="M 666.107 213.807 Q 665.920 213.943 665.409 215.817 Q 664.898 217.691 664.648 218.810 Q 664.399 219.928 664.505 220.758 Q 664.577 220.682 664.639 220.605 "></path>
    <path id="STROKE_3b35b131-81d9-4d08-8ed6-d577847e4832" opacity="1.000" fill="none" stroke="#71c047" stroke-width="1.200" stroke-opacity="1.000" stroke-linecap="round" stroke-linejoin="round" d="M 586.601 241.612 Q 586.472 241.697 584.923 241.904 Q 583.373 242.112 582.523 243.980 Q 581.672 245.848 580.990 251.563 Q 580.307 257.278 579.942 260.383 Q 579.578 263.488 578.894 269.500 Q 578.210 275.513 577.855 278.752 Q 577.501 281.992 577.185 284.627 Q 576.870 287.262 576.291 291.282 Q 575.712 295.302 575.577 300.763 Q 575.441 306.224 575.865 311.803 Q 574.769 310.972 575.282 311.328 Q 575.794 311.684 569.929 303.755 Q 569.786 303.643 570.050 303.972 Q 570.315 304.302 570.497 304.522 Q 570.679 304.742 570.836 304.949 Q 570.993 305.157 571.243 305.500 Q 571.494 305.844 571.591 305.930 Q 571.688 306.016 572.657 307.619 Q 573.626 309.221 574.371 310.373 Q 575.116 311.526 575.456 311.924 Q 575.796 312.322 576.349 312.537 Q 576.901 312.752 578.013 309.924 Q 579.125 307.096 580.399 304.147 Q 581.673 301.198 582.643 298.305 Q 582.643 298.326 582.643 298.484 Q 582.684 297.699 582.685 297.816 Q 582.727 297.458 582.770 297.232 "></path>
    <path id="STROKE_2f257772-6959-4283-b3ee-6408a0d10042" opacity="1.000" fill="none" stroke="#71c047" stroke-width="1.200" stroke-opacity="1.000" stroke-linecap="round" stroke-linejoin="round" d="M 601.322 243.853 Q 601.322 243.853 601.322 243.840 Q 601.322 243.826 601.322 243.758 Q 601.765 244.265 604.243 248.666 Q 606.722 253.068 608.452 256.152 Q 610.183 259.237 612.646 265.337 Q 615.110 271.436 616.438 274.865 Q 617.766 278.294 618.594 281.031 Q 619.423 283.767 619.657 284.946 Q 619.892 286.125 619.914 286.738 Q 619.935 287.350 619.840 287.539 Q 619.746 287.728 619.204 287.893 Q 618.663 288.059 618.238 288.067 Q 617.814 288.075 617.419 288.087 Q 617.025 288.098 616.694 288.063 Q 616.363 288.028 615.530 287.497 Q 614.698 286.966 614.074 286.475 Q 613.451 285.985 611.525 283.608 Q 611.505 283.066 613.730 284.825 Q 615.956 286.584 617.795 287.665 Q 619.634 288.745 620.738 289.069 Q 621.841 289.393 622.592 289.408 Q 623.343 289.422 623.756 289.245 Q 624.170 289.068 624.563 286.155 Q 624.957 283.241 624.216 279.627 Q 623.474 276.013 623.608 275.834 "></path>
    <path id="STROKE_73cb34f4-a4b9-452b-9774-e6a20c57c9ce" opacity="1.000" fill="none" stroke="#71c047" stroke-width="1.200" stroke-opacity="1.000" stroke-linecap="round" stroke-linejoin="round" d="M 637.291 231.344 Q 637.290 231.389 637.311 231.270 Q 637.333 231.152 636.757 232.212 Q 636.888 232.718 641.414 236.216 Q 645.940 239.713 648.446 241.732 Q 650.953 243.750 652.375 245.061 Q 653.797 246.372 654.675 247.280 Q 655.553 248.189 656.979 249.595 Q 658.406 251.000 660.087 252.434 Q 661.768 253.868 663.724 256.683 Q 665.680 259.499 666.579 262.631 Q 665.385 262.954 662.038 262.245 Q 658.691 261.536 654.328 257.876 Q 655.001 257.589 659.137 259.857 Q 663.272 262.125 668.944 263.105 Q 669.723 263.057 669.017 259.296 Q 668.311 255.535 667.668 252.719 Q 667.025 249.903 667.274 247.829 Q 667.316 247.829 667.337 247.829 Q 667.337 247.850 667.337 247.871 "></path>
  </g>
</svg>