<?xml version="1.0" encoding="UTF-8" standalone="yes"?>
<svg xmlns="http://www.w3.org/2000/svg" xmlns:xlink="http://www.w3.org/1999/xlink" width="138.211mm" height="89.943mm" version="1.1" viewBox="307.947 -26.825 718.263 467.419">
  <!--
	Exported with Concepts: Smarter Sketching
	Version: 916 on iOS 14.4
	https://concepts.app/
	-->
  <title>Integral spilt</title>
  <desc>Drawing exported from Concepts: Smarter Sketching</desc>
  <defs></defs>
  <rect x="307.947" y="-26.825" width="718.263" height="467.419" stroke="none" fill="white"></rect>
  <g id="Wire" opacity="1.000">
    <path id="STROKE_a1f42861-4a31-48d7-b9e1-374d3cd593f7" opacity="1.000" fill="none" stroke="#000000" stroke-width="1.200" stroke-opacity="1.000" stroke-linecap="round" stroke-linejoin="round" d="M 391.193 -9.221 Q 392.380 -11.399 392.213 -11.030 Q 392.046 -10.661 392.581 -13.300 Q 391.502 -13.048 389.148 -7.807 Q 386.795 -2.567 384.500 2.328 Q 382.205 7.223 377.387 20.540 Q 376.253 19.008 392.526 -18.748 Q 393.100 -17.749 394.462 -9.953 Q 395.823 -2.157 398.370 4.609 Q 400.916 11.376 405.364 15.886 Q 405.359 14.808 405.213 14.437 Q 405.066 14.065 404.887 14.014 Q 404.707 13.963 404.547 13.124 Q 404.387 12.286 401.924 6.508 Q 399.460 0.731 397.302 -3.875 Q 395.144 -8.481 386.901 -12.013 Q 386.311 -8.807 386.555 -9.741 Q 384.937 -8.724 388.223 4.958 Q 391.509 18.641 394.358 35.141 Q 397.207 51.642 397.994 60.288 Q 398.781 68.934 399.500 73.283 Q 400.219 77.631 401.575 96.664 Q 402.931 115.698 402.567 133.555 Q 402.203 151.412 400.495 175.117 Q 398.787 198.822 398.024 210.375 Q 397.261 221.928 397.253 229.146 Q 397.246 236.364 397.200 250.639 Q 397.153 264.914 397.432 274.684 Q 397.710 284.454 397.872 289.405 Q 398.033 294.356 398.406 308.540 Q 398.779 322.724 399.540 344.852 Q 400.302 366.980 401.705 385.293 Q 403.107 403.606 404.508 413.465 Q 405.909 423.324 406.039 432.452 Q 403.974 432.450 404.524 432.398 Q 404.289 432.071 403.610 430.837 Q 402.930 429.603 402.138 426.086 Q 401.346 422.569 400.944 421.638 "></path>
    <path id="STROKE_4a57950f-cb9e-4161-9638-40b6619fce13" opacity="1.000" fill="none" stroke="#000000" stroke-width="1.200" stroke-opacity="1.000" stroke-linecap="round" stroke-linejoin="round" d="M 316.139 355.135 Q 316.066 355.135 315.993 355.135 Q 317.485 356.610 346.723 356.937 Q 375.961 357.265 393.018 357.097 Q 410.075 356.930 417.920 356.740 Q 425.766 356.551 438.960 355.819 Q 452.155 355.087 469.491 353.733 Q 486.827 352.380 499.416 351.270 Q 512.006 350.161 528.714 349.103 Q 545.423 348.044 555.496 347.678 Q 565.570 347.311 574.548 347.163 Q 583.526 347.015 607.337 346.833 Q 631.149 346.652 646.744 346.214 Q 662.339 345.777 672.747 345.245 Q 683.155 344.713 695.009 343.833 Q 706.863 342.953 733.173 341.029 Q 759.484 339.106 794.298 337.590 Q 829.112 336.073 845.843 335.855 Q 862.575 335.637 875.281 334.553 Q 887.987 333.470 900.257 331.997 Q 912.526 330.524 921.328 329.425 Q 930.129 328.325 936.505 327.803 Q 942.880 327.280 947.305 326.932 Q 951.730 326.584 959.882 326.588 Q 968.033 326.592 975.826 326.431 Q 983.618 326.269 989.128 326.570 Q 994.638 326.871 999.118 328.213 Q 1003.597 329.555 1006.126 331.425 Q 1007.006 331.753 1004.947 327.908 Q 1002.888 324.062 999.838 321.728 Q 996.787 319.393 991.019 315.740 Q 985.252 312.088 974.443 311.137 Q 971.841 314.638 984.034 319.021 Q 996.226 323.404 1002.660 325.315 Q 1009.093 327.226 1011.937 328.328 Q 1014.781 329.429 1016.803 330.385 Q 1018.825 331.341 1017.864 333.009 Q 1016.903 334.677 1014.504 335.844 Q 1012.106 337.011 1004.721 342.105 Q 997.337 347.199 994.007 349.507 Q 990.677 351.816 986.852 354.672 Q 983.028 357.528 981.291 362.938 Q 981.346 362.938 982.314 362.938 Q 982.471 362.634 982.602 361.185 Q 982.734 359.735 982.898 359.324 "></path>
    <path id="STROKE_415b3362-c5d3-4cfa-8594-de807bb3e968" opacity="1.000" fill="none" stroke="#009ef1" stroke-width="1.200" stroke-opacity="1.000" stroke-linecap="round" stroke-linejoin="round" d="M 358.943 272.835 Q 359.935 270.578 363.478 265.116 Q 367.021 259.654 369.513 256.512 Q 372.005 253.369 373.506 251.406 Q 375.006 249.443 379.425 243.865 Q 383.844 238.287 387.512 233.746 Q 391.180 229.204 397.644 221.871 Q 404.107 214.537 411.424 205.954 Q 418.741 197.370 431.778 184.903 Q 444.816 172.436 452.091 166.268 Q 459.366 160.100 464.062 155.914 Q 468.759 151.727 473.592 148.036 Q 478.424 144.344 481.775 141.820 Q 485.126 139.296 494.103 132.358 Q 503.080 125.420 513.721 119.165 Q 524.361 112.910 531.529 109.226 Q 538.696 105.542 549.826 102.336 Q 560.956 99.129 567.668 97.923 Q 574.380 96.717 586.342 96.045 Q 598.305 95.374 605.479 95.619 Q 612.653 95.864 617.049 96.441 Q 621.446 97.018 628.085 98.936 Q 634.725 100.854 641.272 104.226 Q 647.820 107.598 653.389 111.124 Q 658.959 114.651 666.106 119.539 Q 673.253 124.427 677.076 127.400 Q 680.899 130.374 688.527 135.725 Q 696.155 141.077 713.167 151.955 Q 730.179 162.833 739.182 168.474 Q 748.184 174.114 754.908 178.185 Q 761.631 182.255 767.762 184.948 Q 773.892 187.641 783.553 188.543 Q 793.215 189.445 801.942 189.127 Q 810.670 188.809 818.485 186.883 Q 826.300 184.956 835.553 179.496 Q 844.806 174.036 853.030 167.139 Q 861.254 160.242 866.104 155.461 Q 870.953 150.681 875.037 144.419 Q 879.122 138.157 880.353 135.685 Q 881.584 133.213 885.780 124.736 Q 889.976 116.259 895.481 102.431 Q 900.986 88.604 910.091 65.996 "></path>
    <path id="STROKE_33820228-d391-4123-a4b4-055473db69e0" opacity="1.000" fill="none" stroke="#000000" stroke-width="1.200" stroke-opacity="1.000" stroke-linecap="round" stroke-linejoin="round" d="M 511.608 110.753 Q 511.853 112.806 511.755 112.437 Q 511.755 115.517 511.755 114.545 Q 511.701 112.611 511.782 121.887 Q 511.864 131.164 511.974 131.698 "></path>
    <path id="STROKE_70ec5a6c-b444-4c11-9d4f-7e52e7c0ea24" opacity="1.000" fill="none" stroke="#000000" stroke-width="1.200" stroke-opacity="1.000" stroke-linecap="round" stroke-linejoin="round" d="M 515.005 147.495 L 515.007 147.511 "></path>
    <path id="STROKE_6184d312-cd67-4620-9d42-12fc81e10079" opacity="1.000" fill="none" stroke="#000000" stroke-width="1.200" stroke-opacity="1.000" stroke-linecap="round" stroke-linejoin="round" d="M 513.581 150.507 Q 513.849 149.763 512.725 153.999 Q 511.601 158.234 512.655 161.530 Q 513.709 164.826 513.946 165.401 "></path>
    <path id="STROKE_7ec79468-3301-4c94-a1c7-d3bad18ed27a" opacity="1.000" fill="none" stroke="#000000" stroke-width="1.200" stroke-opacity="1.000" stroke-linecap="round" stroke-linejoin="round" d="M 514.421 202.143 Q 514.414 202.365 514.416 203.224 Q 514.418 204.082 514.360 206.321 Q 514.303 208.560 514.282 209.870 Q 514.261 211.180 514.328 211.847 Q 514.396 212.513 514.107 212.175 Q 513.818 211.837 514.667 214.020 Q 515.516 216.202 515.699 216.435 "></path>
    <path id="STROKE_2cfdd00f-f7e3-4be4-8483-b1cf0df8447d" opacity="1.000" fill="none" stroke="#000000" stroke-width="1.200" stroke-opacity="1.000" stroke-linecap="round" stroke-linejoin="round" d="M 521.031 237.708 Q 521.075 238.231 520.709 243.551 Q 520.343 248.872 520.861 251.722 Q 521.378 254.573 521.616 254.929 "></path>
    <path id="STROKE_cd8ea38a-164e-481b-963f-60846efa891d" opacity="1.000" fill="none" stroke="#000000" stroke-width="1.200" stroke-opacity="1.000" stroke-linecap="round" stroke-linejoin="round" d="M 523.917 275.627 Q 523.809 277.577 523.752 277.475 Q 523.468 277.726 523.269 282.259 Q 523.069 286.792 524.388 289.108 Q 525.706 291.425 525.998 291.781 "></path>
    <path id="STROKE_9fe5f96f-425b-4639-b1cd-0fa772f967ea" opacity="1.000" fill="none" stroke="#000000" stroke-width="1.200" stroke-opacity="1.000" stroke-linecap="round" stroke-linejoin="round" d="M 527.532 311.302 Q 526.544 311.961 526.974 321.693 Q 527.405 331.425 527.642 331.781 "></path>
    <path id="STROKE_ec1c8a43-cbe4-48de-8ccd-22bf1373c5bf" opacity="1.000" fill="none" stroke="#000000" stroke-width="1.200" stroke-opacity="1.000" stroke-linecap="round" stroke-linejoin="round" d="M 535.640 366.306 Q 534.778 365.091 534.709 365.251 Q 533.603 364.171 531.633 364.011 Q 529.662 363.851 527.490 366.999 Q 525.318 370.147 524.426 373.063 Q 523.534 375.979 523.511 377.349 Q 523.487 378.720 523.436 379.560 Q 523.385 380.401 524.498 380.810 Q 525.610 381.220 527.220 380.547 Q 528.830 379.874 530.225 377.224 Q 531.621 374.574 532.459 372.937 Q 533.298 371.300 535.275 364.663 Q 534.770 367.239 534.837 366.593 Q 534.296 369.151 534.417 368.742 Q 534.493 369.168 534.145 372.151 Q 533.798 375.134 534.997 376.944 Q 536.196 378.754 537.313 379.263 Q 538.429 379.772 539.597 380.046 Q 540.764 380.320 541.284 380.285 Q 541.804 380.251 542.569 380.233 Q 543.335 380.215 543.460 380.257 Q 543.585 380.298 544.917 378.709 Q 546.250 377.120 546.889 376.299 "></path>
    <path id="STROKE_fc31bbf4-31c2-44c1-80f5-08c3302047c1" opacity="1.000" fill="none" stroke="#000000" stroke-width="1.200" stroke-opacity="1.000" stroke-linecap="round" stroke-linejoin="round" d="M 811.981 171.996 Q 811.922 172.991 811.876 173.000 Q 811.876 174.748 811.876 174.500 Q 811.876 177.047 811.876 176.430 Q 811.654 176.809 811.957 181.882 Q 812.259 186.954 812.433 187.620 "></path>
    <path id="STROKE_cfb97331-6e03-4489-b1d8-3bb896e4a231" opacity="1.000" fill="none" stroke="#000000" stroke-width="1.200" stroke-opacity="1.000" stroke-linecap="round" stroke-linejoin="round" d="M 815.530 205.564 Q 816.086 204.355 815.669 213.736 Q 815.251 223.118 815.219 223.176 "></path>
    <path id="STROKE_b1052a40-a279-48de-889d-034ba20b6604" opacity="1.000" fill="none" stroke="#000000" stroke-width="1.200" stroke-opacity="1.000" stroke-linecap="round" stroke-linejoin="round" d="M 816.191 247.427 Q 816.243 247.427 816.295 247.427 Q 816.464 245.455 816.571 252.369 Q 816.678 259.282 816.504 259.843 "></path>
    <path id="STROKE_b9bf5ceb-5ef0-4ced-b3f4-f6f7974d573f" opacity="1.000" fill="none" stroke="#000000" stroke-width="1.200" stroke-opacity="1.000" stroke-linecap="round" stroke-linejoin="round" d="M 815.391 287.516 Q 816.684 286.649 816.429 294.066 Q 816.173 301.484 815.947 301.810 "></path>
    <path id="STROKE_b2caed1c-eb7e-4704-b4e7-e646b9ee5adc" opacity="1.000" fill="none" stroke="#000000" stroke-width="1.200" stroke-opacity="1.000" stroke-linecap="round" stroke-linejoin="round" d="M 817.617 323.406 Q 817.730 323.406 818.679 323.406 Q 819.054 324.870 818.992 324.802 Q 819.207 326.004 818.856 329.582 Q 818.505 333.161 818.174 333.709 "></path>
    <path id="STROKE_ba35074d-035f-48af-be8b-c5bfa87ceff2" opacity="1.000" fill="none" stroke="#000000" stroke-width="1.200" stroke-opacity="1.000" stroke-linecap="round" stroke-linejoin="round" d="M 816.191 358.748 Q 816.191 358.748 816.454 358.988 Q 816.718 359.228 817.461 377.580 Q 817.565 377.580 817.774 377.580 Q 817.266 377.071 818.855 374.481 Q 820.444 371.891 821.638 370.310 Q 822.833 368.729 824.333 367.607 Q 825.833 366.485 826.923 366.315 Q 828.014 366.145 828.890 366.961 Q 829.766 367.778 829.777 368.158 Q 829.789 368.538 829.904 369.348 Q 830.020 370.157 829.962 370.040 Q 829.905 369.923 829.953 370.298 Q 830.000 370.672 830.376 373.302 Q 830.752 375.932 829.243 377.727 Q 827.734 379.521 826.916 380.288 Q 826.098 381.055 823.352 381.648 Q 820.606 382.241 818.146 379.461 Q 815.687 376.680 815.182 376.015 "></path>
    <path id="STROKE_16dd2aff-695e-4f08-ad39-fe71f0e58f38" opacity="1.000" fill="none" stroke="#71c047" stroke-width="1.200" stroke-opacity="1.000" stroke-linecap="round" stroke-linejoin="round" d="M 560.420 101.442 Q 560.253 101.697 561.951 99.668 Q 562.336 100.085 558.219 108.679 Q 554.103 117.273 546.057 131.860 Q 538.011 146.448 533.537 154.005 Q 529.063 161.562 526.505 166.920 Q 523.946 172.278 522.043 182.846 Q 522.239 183.480 523.054 182.505 Q 523.869 181.529 524.478 180.760 "></path>
    <path id="STROKE_7b889f94-aa6c-4271-a833-4e3b186ff344" opacity="1.000" fill="none" stroke="#71c047" stroke-width="1.200" stroke-opacity="1.000" stroke-linecap="round" stroke-linejoin="round" d="M 614.142 102.225 Q 613.214 102.168 615.952 102.394 Q 616.737 103.452 612.194 110.237 Q 607.651 117.022 601.518 127.301 Q 595.385 137.580 590.672 145.539 Q 585.959 153.498 580.974 161.671 Q 575.990 169.844 572.287 175.497 Q 568.583 181.151 562.604 191.529 Q 556.624 201.907 553.645 208.588 Q 550.666 215.270 549.017 219.668 Q 547.368 224.066 546.426 226.841 Q 545.484 229.616 543.195 236.609 Q 540.906 243.602 542.832 253.791 Q 543.623 253.838 543.748 253.906 Q 543.873 253.974 544.539 253.762 Q 545.205 253.550 545.832 252.913 Q 546.460 252.275 546.994 251.018 Q 547.529 249.762 548.034 248.653 "></path>
    <path id="STROKE_c1388c9b-3fb5-40f7-9f5d-b3b17815793e" opacity="1.000" fill="none" stroke="#71c047" stroke-width="1.200" stroke-opacity="1.000" stroke-linecap="round" stroke-linejoin="round" d="M 644.761 126.821 Q 644.912 126.948 645.653 127.652 Q 646.393 128.356 646.203 128.170 Q 646.012 127.984 646.375 128.356 Q 646.738 128.729 647.335 131.639 Q 647.931 134.550 640.057 148.933 Q 632.183 163.316 627.573 171.612 Q 622.963 179.909 618.410 187.445 Q 613.858 194.981 608.852 202.760 Q 603.846 210.540 601.381 214.531 Q 598.915 218.523 596.522 222.214 Q 594.128 225.906 584.336 242.088 Q 574.544 258.270 568.263 269.734 Q 561.982 281.197 558.286 289.409 Q 554.591 297.621 551.860 305.467 Q 549.129 313.313 547.492 319.045 Q 545.854 324.776 546.259 330.344 Q 549.110 331.453 551.773 324.639 Q 554.436 317.824 555.097 316.103 "></path>
    <path id="STROKE_e57f7bc9-da41-4084-b76d-9c38a712e741" opacity="1.000" fill="none" stroke="#71c047" stroke-width="1.200" stroke-opacity="1.000" stroke-linecap="round" stroke-linejoin="round" d="M 705.859 144.192 Q 706.031 144.116 707.321 141.218 Q 707.487 142.803 699.564 159.412 Q 691.641 176.022 681.659 194.631 Q 671.676 213.240 662.922 229.635 Q 654.168 246.029 643.317 266.340 Q 632.467 286.651 627.202 296.868 Q 621.936 307.086 615.756 319.746 Q 609.575 332.407 605.409 347.220 Q 606.696 348.514 608.340 342.416 Q 609.984 336.317 610.385 334.491 "></path>
    <path id="STROKE_6be9d8da-a9eb-422c-8a2f-58f4c6bb0846" opacity="1.000" fill="none" stroke="#71c047" stroke-width="1.200" stroke-opacity="1.000" stroke-linecap="round" stroke-linejoin="round" d="M 752.066 179.534 Q 750.992 178.072 744.002 193.590 Q 737.012 209.109 733.003 217.668 Q 728.995 226.228 726.833 230.313 Q 724.672 234.398 723.387 236.896 Q 722.103 239.394 718.551 245.447 Q 714.999 251.499 711.970 256.025 Q 708.941 260.551 701.834 272.580 Q 694.726 284.610 689.338 295.361 Q 683.950 306.112 679.567 315.134 Q 675.184 324.156 673.022 330.461 Q 670.860 336.766 670.561 342.186 Q 671.680 343.659 673.277 338.632 Q 674.875 333.605 675.380 331.727 "></path>
    <path id="STROKE_df9f5b9c-9c08-4ae3-9567-6e46977881d0" opacity="1.000" fill="none" stroke="#71c047" stroke-width="1.200" stroke-opacity="1.000" stroke-linecap="round" stroke-linejoin="round" d="M 793.088 191.506 Q 792.185 191.887 788.178 195.596 Q 784.170 199.305 780.695 208.130 Q 777.219 216.955 774.345 223.813 Q 771.471 230.672 765.327 244.573 Q 759.183 258.474 752.850 271.242 Q 746.516 284.009 742.861 290.431 Q 739.206 296.853 732.484 310.484 Q 725.761 324.116 721.029 339.864 Q 721.092 340.886 723.287 336.991 Q 725.483 333.096 726.318 331.596 "></path>
    <path id="STROKE_3273046c-5d9e-401d-b070-ea16af839178" opacity="1.000" fill="none" stroke="#71c047" stroke-width="1.200" stroke-opacity="1.000" stroke-linecap="round" stroke-linejoin="round" d="M 808.780 264.929 Q 808.641 264.206 806.834 266.312 Q 805.027 268.418 803.056 273.816 Q 801.086 279.214 799.797 282.138 Q 798.508 285.063 795.701 290.508 Q 792.894 295.953 790.280 300.217 Q 787.666 304.480 780.935 314.592 Q 774.204 324.704 769.428 339.812 Q 769.489 340.499 771.442 337.743 Q 773.394 334.987 774.055 333.813 "></path>
    <path id="STROKE_42ef515f-46ab-42b3-a5e7-e1adf78f4dee" opacity="1.000" fill="none" stroke="#71c047" stroke-width="1.200" stroke-opacity="1.000" stroke-linecap="round" stroke-linejoin="round" d="M 820.366 298.263 Q 820.367 299.756 820.262 299.762 Q 819.881 299.478 815.383 311.092 Q 810.884 322.707 807.309 328.214 Q 803.735 333.722 803.352 333.944 "></path>
    <path id="STROKE_8816dd42-00dc-48a7-91ed-81c94fb0d1ef" opacity="1.000" fill="none" stroke="#009ef1" stroke-width="1.200" stroke-opacity="1.000" stroke-linecap="round" stroke-linejoin="round" d="M 360.600 271.306 Q 359.531 271.994 359.851 271.827 Q 360.171 271.660 359.600 271.838 Q 359.171 272.509 358.682 256.713 Q 358.684 256.871 358.691 256.710 Q 358.698 256.549 358.670 257.660 Q 358.642 258.770 358.761 261.727 Q 358.880 264.683 358.822 266.656 Q 358.763 268.628 360.131 273.963 Q 360.797 274.469 362.168 273.189 Q 363.539 271.910 365.043 270.988 Q 366.547 270.066 368.119 269.147 Q 369.690 268.229 376.358 267.494 Q 376.358 267.556 376.326 267.666 Q 375.811 267.676 375.339 267.499 Q 374.867 267.322 374.440 267.056 "></path>
    <path id="STROKE_11c05b73-52fc-4b73-9d00-2cac8be36983" opacity="1.000" fill="none" stroke="#009ef1" stroke-width="1.200" stroke-opacity="1.000" stroke-linecap="round" stroke-linejoin="round" d="M 949.648 85.755 Q 949.498 85.688 948.416 84.267 Q 947.334 82.846 946.953 82.244 Q 946.572 81.643 945.915 81.055 Q 945.258 80.466 944.465 80.643 Q 943.671 80.819 943.473 81.180 Q 943.276 81.541 942.865 82.253 Q 942.454 82.965 942.381 82.911 Q 942.309 82.857 941.087 87.377 Q 939.865 91.897 938.265 96.528 Q 936.665 101.160 935.527 103.813 Q 934.388 106.466 933.275 108.397 Q 932.162 110.327 930.469 111.533 Q 928.776 112.738 928.238 110.629 Q 927.699 108.520 927.533 107.927 "></path>
    <path id="STROKE_22223320-98ae-42aa-a63a-ab50f5a303fa" opacity="1.000" fill="none" stroke="#009ef1" stroke-width="1.200" stroke-opacity="1.000" stroke-linecap="round" stroke-linejoin="round" d="M 931.430 94.724 Q 931.186 95.458 931.180 95.317 Q 931.118 95.450 931.118 95.708 Q 930.166 95.920 939.824 95.787 Q 949.481 95.653 950.169 95.520 "></path>
    <path id="STROKE_4c0a14e7-9d32-470b-a8c7-8d4fcb5bcb63" opacity="1.000" fill="none" stroke="#009ef1" stroke-width="1.200" stroke-opacity="1.000" stroke-linecap="round" stroke-linejoin="round" d="M 962.154 85.489 Q 962.620 84.793 960.549 84.231 Q 960.102 84.504 957.814 89.274 Q 955.526 94.044 954.246 98.556 Q 952.966 103.068 952.551 105.964 Q 952.135 108.861 953.254 112.036 Q 954.581 112.151 954.793 111.629 Q 955.004 111.106 955.338 110.645 "></path>
    <path id="STROKE_35d9e97f-d2c7-45b4-9db0-85ad05fe9047" opacity="1.000" fill="none" stroke="#009ef1" stroke-width="1.200" stroke-opacity="1.000" stroke-linecap="round" stroke-linejoin="round" d="M 959.903 95.974 Q 959.871 95.974 959.444 95.974 Q 960.430 95.726 961.415 97.403 Q 962.399 99.080 959.319 105.724 Q 958.760 106.117 969.449 91.989 Q 969.997 91.167 968.513 93.850 Q 967.029 96.533 966.683 98.682 Q 966.338 100.832 966.293 101.788 Q 966.249 102.745 966.439 103.229 Q 966.629 103.713 966.763 103.928 Q 966.897 104.142 967.674 104.428 Q 968.450 104.714 969.218 104.783 Q 969.985 104.852 970.888 104.897 Q 971.792 104.942 973.153 103.958 Q 974.514 102.974 975.014 102.474 "></path>
    <path id="STROKE_68f9228e-8ca5-4950-9990-7aa9de75a578" opacity="1.000" fill="none" stroke="#009ef1" stroke-width="1.200" stroke-opacity="1.000" stroke-linecap="round" stroke-linejoin="round" d="M 979.766 84.161 Q 979.484 84.112 981.121 87.220 Q 982.759 90.328 983.409 93.755 Q 984.059 97.182 984.287 99.411 Q 984.515 101.640 982.971 104.992 Q 981.427 108.344 979.081 110.737 Q 976.734 113.130 976.140 113.692 "></path>
    <path id="STROKE_f54a58b7-8a6d-48d9-8dfd-6b00f4dcf2f5" opacity="1.000" fill="none" stroke="#009ef1" stroke-width="1.200" stroke-opacity="1.000" stroke-linecap="round" stroke-linejoin="round" d="M 908.655 67.707 Q 908.655 67.707 908.754 67.687 Q 908.853 67.667 908.777 67.722 Q 908.702 67.777 909.045 67.422 Q 909.388 67.067 909.450 66.986 Q 909.511 66.905 909.493 66.925 Q 909.476 66.945 909.658 66.694 Q 909.840 66.443 909.787 66.518 Q 909.734 66.593 909.749 66.581 Q 909.765 66.568 909.846 66.462 Q 909.927 66.356 910.031 66.077 Q 909.660 65.596 900.377 73.078 Q 900.531 73.002 900.820 72.727 Q 901.109 72.452 901.135 72.460 Q 901.162 72.468 901.291 72.303 Q 901.419 72.137 903.624 70.060 Q 905.829 67.982 911.026 65.497 Q 911.026 66.227 911.026 66.032 Q 910.898 66.938 910.928 66.661 Q 910.773 67.333 910.797 67.201 Q 910.802 67.133 910.763 67.540 Q 910.724 67.948 910.735 67.891 Q 910.746 67.834 910.741 67.869 Q 910.737 67.904 910.693 68.883 Q 910.650 69.863 911.233 71.063 Q 911.817 72.263 913.240 79.794 Q 913.251 80.100 913.222 79.498 Q 913.194 78.895 913.148 78.665 "></path>
    <path id="STROKE_19d43d13-0a67-4dbb-b779-dc64b773b664" opacity="1.000" fill="none" stroke="#6d7881" stroke-width="1.200" stroke-opacity="1.000" stroke-linecap="round" stroke-linejoin="round" d="M 675.939 117.541 Q 675.983 117.626 675.871 116.838 Q 676.002 117.225 675.911 122.255 Q 675.820 127.284 675.824 130.521 Q 675.829 133.757 676.451 135.226 Q 677.073 136.695 677.286 136.964 "></path>
    <path id="STROKE_e65f9318-cbdf-406a-86b1-dce01249c85f" opacity="1.000" fill="none" stroke="#6d7881" stroke-width="1.200" stroke-opacity="1.000" stroke-linecap="round" stroke-linejoin="round" d="M 675.856 148.889 Q 676.669 150.067 676.415 149.769 Q 676.522 150.212 676.437 151.074 Q 676.352 151.937 675.907 158.765 Q 675.462 165.594 675.287 165.883 "></path>
    <path id="STROKE_92921630-6f01-41d3-97ca-43d33e6835b0" opacity="1.000" fill="none" stroke="#6d7881" stroke-width="1.200" stroke-opacity="1.000" stroke-linecap="round" stroke-linejoin="round" d="M 676.736 177.913 Q 676.612 177.882 677.241 178.420 Q 677.869 178.958 677.784 183.133 Q 677.700 187.307 677.667 190.829 Q 677.635 194.350 677.543 194.673 "></path>
    <path id="STROKE_51cbf188-5b3b-4dbd-968c-7bf87bec297e" opacity="1.000" fill="none" stroke="#6d7881" stroke-width="1.200" stroke-opacity="1.000" stroke-linecap="round" stroke-linejoin="round" d="M 677.268 205.177 Q 678.470 207.513 678.374 216.155 Q 678.277 224.797 678.130 225.086 "></path>
    <path id="STROKE_1c8b5d07-9c7f-4303-85e5-8cecf39d08dd" opacity="1.000" fill="none" stroke="#6d7881" stroke-width="1.200" stroke-opacity="1.000" stroke-linecap="round" stroke-linejoin="round" d="M 678.827 236.703 Q 678.803 235.340 678.997 238.972 Q 679.191 242.605 679.425 245.715 Q 679.659 248.826 679.697 250.282 Q 679.735 251.738 679.763 252.061 "></path>
    <path id="STROKE_ef86cb3b-75ea-47f9-9d0c-396adcf4b942" opacity="1.000" fill="none" stroke="#6d7881" stroke-width="1.200" stroke-opacity="1.000" stroke-linecap="round" stroke-linejoin="round" d="M 680.808 266.126 Q 681.156 266.849 680.987 277.277 Q 680.817 287.705 680.643 288.083 "></path>
    <path id="STROKE_a11af07a-acdd-4890-9c87-1d73ff310221" opacity="1.000" fill="none" stroke="#6d7881" stroke-width="1.200" stroke-opacity="1.000" stroke-linecap="round" stroke-linejoin="round" d="M 681.744 300.114 Q 681.896 299.439 680.993 303.277 Q 680.089 307.115 681.223 310.516 Q 682.358 313.918 682.569 314.234 "></path>
    <path id="STROKE_e229b0bb-fc5c-4e5a-ae6a-f6b56fee6da3" opacity="1.000" fill="none" stroke="#6d7881" stroke-width="1.200" stroke-opacity="1.000" stroke-linecap="round" stroke-linejoin="round" d="M 683.559 328.010 Q 683.834 327.584 682.716 330.086 Q 681.598 332.588 682.574 335.163 Q 683.550 337.738 683.779 338.061 "></path>
    <path id="STROKE_29c72600-1b8b-4deb-b29c-dfb7c1dc0d37" opacity="1.000" fill="none" stroke="#6d7881" stroke-width="1.200" stroke-opacity="1.000" stroke-linecap="round" stroke-linejoin="round" d="M 690.144 368.240 Q 690.037 368.378 690.226 367.677 Q 690.414 366.976 689.775 366.636 Q 689.136 366.297 688.625 366.271 Q 688.114 366.245 686.392 366.555 Q 684.670 366.865 683.081 368.836 Q 681.492 370.808 680.868 372.629 Q 680.244 374.451 680.290 376.198 Q 680.336 377.945 680.680 379.385 Q 681.024 380.825 683.457 381.953 Q 685.890 383.081 689.328 380.827 Q 692.766 378.572 693.115 378.222 "></path>
    <path id="STROKE_82706f41-c560-49ef-9627-b532a7408333" opacity="1.000" fill="none" stroke="#6d7881" stroke-width="1.200" stroke-opacity="1.000" stroke-linecap="round" stroke-linejoin="round" d="M 516.899 92.019 Q 516.731 91.933 516.339 91.619 Q 515.946 91.306 516.047 91.381 Q 516.147 91.456 516.140 91.401 Q 516.133 91.347 515.843 91.047 Q 515.554 90.748 516.362 86.191 Q 517.170 81.633 517.768 79.013 Q 518.366 76.392 518.849 75.490 Q 519.332 74.588 519.357 74.588 Q 519.381 74.588 519.709 74.424 Q 520.036 74.261 520.507 74.163 Q 520.977 74.065 521.227 74.027 Q 521.477 73.990 521.997 73.852 Q 522.516 73.714 522.490 73.770 Q 522.463 73.827 523.224 73.489 Q 523.984 73.152 529.004 71.654 Q 534.024 70.156 541.611 69.428 Q 549.198 68.701 553.352 68.665 Q 557.506 68.629 559.845 68.285 Q 562.183 67.940 572.166 67.238 Q 582.149 66.537 593.169 66.379 Q 604.189 66.222 611.793 66.101 Q 619.397 65.979 625.934 65.795 Q 632.470 65.611 637.208 65.919 Q 641.945 66.227 646.024 67.096 Q 650.102 67.965 655.078 67.985 Q 660.054 68.006 662.783 67.995 Q 665.513 67.985 668.284 68.420 Q 671.054 68.856 672.786 68.870 Q 674.517 68.885 675.429 69.227 Q 676.340 69.570 676.571 69.929 Q 676.801 70.288 676.833 70.362 Q 676.866 70.436 676.852 70.397 Q 676.838 70.358 676.828 70.535 Q 676.818 70.711 676.841 70.522 Q 676.865 70.334 676.872 71.482 Q 676.880 72.631 676.662 73.906 Q 676.445 75.182 676.343 76.014 Q 676.242 76.847 676.212 77.241 Q 676.182 77.635 676.098 78.295 Q 676.015 78.956 675.954 80.127 Q 675.893 81.299 675.866 82.644 Q 675.839 83.990 675.846 83.659 Q 675.854 83.329 675.849 85.798 Q 675.823 85.798 675.727 85.745 Q 675.727 85.712 675.727 85.627 Q 675.701 85.627 675.544 85.654 Q 675.390 86.798 675.430 86.459 Q 675.370 87.921 675.395 87.435 Q 675.307 88.381 675.343 88.351 Q 675.343 89.372 675.343 89.019 Q 675.343 90.265 675.343 89.805 Q 674.894 89.669 674.717 89.357 Q 674.539 89.046 674.294 88.797 "></path>
    <path id="STROKE_ce0507e3-5c99-469c-a645-28978d965a1c" opacity="1.000" fill="none" stroke="#6d7881" stroke-width="1.200" stroke-opacity="1.000" stroke-linecap="round" stroke-linejoin="round" d="M 542.086 8.042 Q 542.276 7.959 541.365 6.578 Q 540.454 5.197 539.634 4.341 Q 538.814 3.484 538.555 3.352 Q 538.296 3.220 537.505 3.187 Q 536.714 3.154 536.740 3.431 Q 536.765 3.708 536.556 3.808 Q 536.346 3.907 535.727 6.654 Q 535.109 9.401 535.143 17.943 Q 535.177 26.486 534.574 35.048 Q 533.827 35.907 532.143 34.476 Q 530.460 33.044 530.101 32.742 "></path>
    <path id="STROKE_c26a0a40-3269-4fd4-9cf5-ee2fecf8d882" opacity="1.000" fill="none" stroke="#6d7881" stroke-width="1.200" stroke-opacity="1.000" stroke-linecap="round" stroke-linejoin="round" d="M 526.887 44.359 Q 526.951 43.974 526.630 43.296 Q 526.309 42.618 525.957 42.376 Q 525.605 42.134 525.608 42.126 Q 525.610 42.118 525.342 42.003 Q 525.074 41.888 524.473 41.966 Q 523.873 42.044 523.514 42.723 Q 523.155 43.403 522.354 44.907 Q 521.554 46.411 521.471 51.622 Q 522.251 51.764 522.257 51.707 Q 523.602 50.728 523.305 50.731 Q 523.961 49.930 526.799 43.194 Q 527.015 43.138 526.952 44.911 Q 526.889 46.685 526.898 47.721 Q 526.907 48.756 527.459 49.307 Q 528.012 49.857 528.978 49.459 Q 529.944 49.061 530.276 48.812 "></path>
    <path id="STROKE_8a5c28ce-e5b4-42bb-9adc-57894bc3c5aa" opacity="1.000" fill="none" stroke="#6d7881" stroke-width="1.200" stroke-opacity="1.000" stroke-linecap="round" stroke-linejoin="round" d="M 551.241 -6.024 Q 550.956 -6.574 550.987 -6.516 Q 551.017 -6.458 550.929 -6.582 Q 550.842 -6.705 550.592 -7.015 Q 550.343 -7.325 549.977 -7.649 Q 549.612 -7.974 549.707 -7.862 Q 549.803 -7.750 549.737 -7.778 Q 549.671 -7.805 549.390 -7.881 Q 549.110 -7.958 548.610 -7.952 Q 548.110 -7.946 547.033 -5.830 Q 545.957 -3.714 545.733 -2.441 Q 545.510 -1.168 545.480 -0.475 Q 545.449 0.217 545.684 0.944 Q 545.918 1.671 548.310 1.573 Q 550.703 1.475 552.169 0.823 Q 553.635 0.171 554.019 -0.078 "></path>
    <path id="STROKE_7bb82dad-7766-4dc8-901c-f29cee4c1b6d" opacity="1.000" fill="none" stroke="#6d7881" stroke-width="1.200" stroke-opacity="1.000" stroke-linecap="round" stroke-linejoin="round" d="M 564.344 13.661 Q 564.248 13.659 564.356 13.712 Q 564.464 13.764 564.026 12.528 Q 563.588 11.291 562.605 10.593 Q 561.621 9.895 561.078 10.081 Q 560.534 10.267 560.554 10.185 Q 560.574 10.104 560.107 11.855 Q 559.639 13.607 559.633 18.437 Q 559.626 23.267 559.557 26.076 Q 559.489 28.885 558.824 30.739 Q 558.273 30.535 557.369 29.272 Q 556.465 28.008 556.133 27.622 "></path>
    <path id="STROKE_e60f2d23-7701-47fd-bfbc-bb0f9ddcecfd" opacity="1.000" fill="none" stroke="#6d7881" stroke-width="1.200" stroke-opacity="1.000" stroke-linecap="round" stroke-linejoin="round" d="M 552.918 23.562 Q 552.918 23.588 552.918 23.614 Q 552.778 24.277 558.133 22.194 Q 563.488 20.111 564.012 19.777 "></path>
    <path id="STROKE_6c736889-b224-43fb-974c-a1071dd422eb" opacity="1.000" fill="none" stroke="#6d7881" stroke-width="1.200" stroke-opacity="1.000" stroke-linecap="round" stroke-linejoin="round" d="M 569.313 13.463 Q 568.818 13.547 567.978 15.691 Q 567.139 17.835 567.057 20.453 Q 566.976 23.070 567.005 24.269 Q 567.034 25.468 567.125 26.330 Q 567.216 27.191 567.843 28.149 Q 568.469 29.106 568.648 29.200 "></path>
    <path id="STROKE_459b9c4d-6f79-4b9b-8e23-0a3f338afb0d" opacity="1.000" fill="none" stroke="#6d7881" stroke-width="1.200" stroke-opacity="1.000" stroke-linecap="round" stroke-linejoin="round" d="M 571.787 19.895 Q 572.723 19.786 572.591 19.724 Q 573.521 19.276 573.255 19.423 Q 574.246 19.270 574.058 19.331 Q 574.877 19.393 574.722 19.561 Q 575.169 20.521 575.028 20.418 Q 575.940 20.911 573.394 27.229 Q 572.606 28.244 578.443 17.000 Q 578.552 17.045 577.879 18.889 Q 577.207 20.733 577.079 21.971 Q 576.950 23.209 577.110 23.953 Q 577.269 24.697 577.457 24.758 Q 577.645 24.820 578.077 25.085 Q 578.510 25.351 579.838 25.094 Q 581.166 24.837 581.897 24.186 Q 582.628 23.535 582.933 23.234 "></path>
    <path id="STROKE_e1628e1a-ee68-4a16-bbcc-7b1f17d8a538" opacity="1.000" fill="none" stroke="#6d7881" stroke-width="1.200" stroke-opacity="1.000" stroke-linecap="round" stroke-linejoin="round" d="M 580.767 13.438 Q 580.767 13.438 580.578 13.354 Q 580.390 13.270 582.599 14.924 Q 584.808 16.578 585.887 17.938 Q 586.966 19.299 587.493 20.581 Q 588.020 21.863 588.219 23.292 Q 588.418 24.721 588.036 26.099 Q 587.654 27.478 587.038 28.359 Q 586.423 29.240 585.224 30.212 Q 584.025 31.184 583.772 31.354 "></path>
    <path id="STROKE_d07e4696-e9e3-4241-b20d-7f6519104da9" opacity="1.000" fill="none" stroke="#6d7881" stroke-width="1.200" stroke-opacity="1.000" stroke-linecap="round" stroke-linejoin="round" d="M 609.576 18.886 Q 609.190 18.307 609.166 18.388 Q 608.231 17.980 608.336 18.055 Q 608.318 17.657 607.011 17.689 Q 605.703 17.721 604.720 17.701 Q 603.737 17.682 602.898 19.053 Q 602.059 20.425 602.140 21.875 Q 602.221 23.324 602.244 23.903 Q 602.268 24.482 602.787 24.781 Q 603.307 25.081 603.586 25.088 Q 603.865 25.094 604.344 24.694 Q 604.823 24.293 605.256 23.585 Q 605.690 22.877 606.884 19.783 Q 608.079 16.690 608.476 7.322 L 608.441 7.322 Q 608.254 7.630 607.989 12.573 Q 607.725 17.516 607.569 20.494 Q 607.414 23.473 608.493 25.893 Q 608.800 25.924 608.887 25.839 Q 608.974 25.755 609.140 25.618 "></path>
    <path id="STROKE_be7e30ab-1ce9-47d4-b168-a9d8f0732625" opacity="1.000" fill="none" stroke="#6d7881" stroke-width="1.200" stroke-opacity="1.000" stroke-linecap="round" stroke-linejoin="round" d="M 611.743 19.227 Q 611.747 18.362 611.795 18.447 Q 612.195 17.770 613.507 17.164 Q 614.818 16.559 615.679 16.628 Q 616.539 16.696 617.118 16.972 Q 617.696 17.248 617.936 19.276 Q 618.175 21.305 615.796 26.508 Q 615.701 27.674 622.173 14.053 Q 622.138 14.085 621.048 16.308 Q 619.958 18.531 619.885 19.744 Q 619.812 20.957 620.083 22.472 Q 620.354 23.988 622.862 23.176 Q 625.370 22.363 625.737 22.056 "></path>
    <path id="STROKE_d5233ded-2b1f-4aa8-9f2d-047de3aa2d03" opacity="1.000" fill="none" stroke="#6d7881" stroke-width="1.200" stroke-opacity="1.000" stroke-linecap="round" stroke-linejoin="round" d="M 681.120 71.889 Q 680.862 71.433 680.945 89.072 Q 681.246 87.720 681.214 87.762 Q 681.181 87.803 681.194 87.767 Q 681.207 87.732 681.219 87.344 Q 681.232 86.957 681.227 86.843 Q 681.222 86.730 681.204 86.818 Q 681.187 86.906 681.286 83.131 Q 681.385 79.355 680.788 69.833 Q 681.646 69.848 681.329 69.816 Q 681.013 69.785 682.250 69.873 Q 683.486 69.961 687.789 70.056 Q 692.093 70.152 694.638 70.212 Q 697.182 70.273 702.242 69.455 Q 707.302 68.638 712.169 68.150 Q 717.037 67.663 719.369 67.621 Q 721.702 67.578 724.502 67.944 Q 727.302 68.311 732.787 68.344 Q 738.272 68.377 743.865 67.673 Q 749.457 66.969 757.153 67.270 Q 764.849 67.571 769.932 67.532 Q 775.016 67.493 777.441 66.948 Q 779.867 66.402 785.822 66.629 Q 791.777 66.855 795.951 67.325 Q 800.126 67.794 803.248 67.649 "></path>
    <path id="STROKE_eeea0142-b7f1-4600-84d1-b3e483a292aa" opacity="1.000" fill="none" stroke="#6d7881" stroke-width="1.200" stroke-opacity="1.000" stroke-linecap="round" stroke-linejoin="round" d="M 802.508 67.659 Q 803.380 67.027 816.537 67.279 Q 816.537 67.305 816.537 67.383 Q 816.511 67.383 816.257 67.383 Q 815.991 68.393 816.100 68.051 Q 816.101 68.034 816.028 68.522 Q 815.954 69.010 815.981 68.863 Q 816.008 68.716 815.999 68.882 Q 815.991 69.047 815.994 69.479 Q 815.997 69.910 815.993 70.179 Q 815.989 70.448 816.005 70.912 Q 816.022 71.375 815.954 73.942 Q 815.886 76.509 815.873 85.968 Q 815.899 85.968 815.925 85.968 Q 815.966 85.234 815.893 82.458 Q 815.820 79.681 815.716 79.459 "></path>
    <path id="STROKE_25447fc5-2e56-4da0-b22c-d15467c5409f" opacity="1.000" fill="none" stroke="#6d7881" stroke-width="1.200" stroke-opacity="1.000" stroke-linecap="round" stroke-linejoin="round" d="M 667.807 19.331 Q 667.086 19.404 667.045 19.411 Q 667.003 19.418 667.047 19.397 Q 667.021 19.423 667.021 19.449 Q 667.061 19.333 667.105 19.570 Q 667.149 19.807 682.832 16.948 Q 682.753 16.863 682.675 16.778 "></path>
    <path id="STROKE_9e199061-c303-48f6-bae6-34a92f8156d8" opacity="1.000" fill="none" stroke="#6d7881" stroke-width="1.200" stroke-opacity="1.000" stroke-linecap="round" stroke-linejoin="round" d="M 675.896 12.993 Q 675.208 13.523 675.241 13.549 Q 674.688 14.502 674.874 14.328 Q 674.746 14.571 674.951 18.200 Q 675.157 21.829 676.391 24.434 Q 677.626 27.039 677.730 27.229 "></path>
    <path id="STROKE_74a77363-edc7-4fa0-b871-9404a2705b29" opacity="1.000" fill="none" stroke="#6d7881" stroke-width="1.200" stroke-opacity="1.000" stroke-linecap="round" stroke-linejoin="round" d="M 732.799 2.934 Q 732.340 2.185 732.353 2.312 Q 731.909 1.717 730.489 0.766 Q 729.070 -0.185 727.971 -0.321 Q 726.872 -0.457 726.271 -0.254 Q 725.670 -0.051 725.387 0.884 Q 725.104 1.819 724.853 3.020 Q 724.602 4.221 724.650 8.389 Q 724.699 12.557 725.341 17.149 Q 725.983 21.741 726.021 24.326 Q 726.058 26.912 726.084 28.135 Q 726.110 29.359 725.118 29.760 Q 724.126 30.162 723.422 30.111 Q 722.717 30.060 721.359 28.772 Q 720.001 27.484 719.591 27.124 "></path>
    <path id="STROKE_e0144d52-23ef-4982-898d-3f17d719b03d" opacity="1.000" fill="none" stroke="#6d7881" stroke-width="1.200" stroke-opacity="1.000" stroke-linecap="round" stroke-linejoin="round" d="M 717.809 39.186 Q 718.142 38.349 718.036 38.525 Q 718.036 37.612 718.036 37.772 Q 718.001 37.184 717.887 37.215 Q 717.268 36.687 717.311 36.770 Q 717.096 36.673 715.858 36.591 Q 714.620 36.510 713.838 38.003 Q 713.057 39.495 712.879 40.802 Q 712.700 42.108 712.748 43.274 Q 712.796 44.440 713.357 45.223 Q 713.918 46.006 714.467 46.215 Q 715.016 46.424 715.570 46.504 Q 716.123 46.584 717.135 46.451 Q 718.147 46.317 718.803 45.777 Q 719.459 45.236 719.743 44.729 Q 720.028 44.222 720.307 43.809 "></path>
    <path id="STROKE_08f602e5-9929-479e-a586-a36ef85ee1a3" opacity="1.000" fill="none" stroke="#6d7881" stroke-width="1.200" stroke-opacity="1.000" stroke-linecap="round" stroke-linejoin="round" d="M 736.835 -8.866 Q 737.340 -8.516 737.341 -8.316 Q 737.342 -8.116 737.351 -8.063 Q 737.359 -8.010 737.381 -7.800 Q 737.404 -7.590 737.394 3.759 Q 737.354 4.018 738.165 2.284 Q 738.976 0.549 739.702 -0.929 Q 740.427 -2.406 742.364 -3.025 Q 742.810 -2.141 742.696 -2.134 Q 742.771 -1.704 742.855 -0.174 Q 742.939 1.357 742.442 2.335 Q 741.944 3.314 741.001 3.836 Q 740.057 4.359 738.573 4.046 Q 737.088 3.733 736.730 3.537 "></path>
    <path id="STROKE_6b4d9eb0-66f7-4202-973b-5332c408d970" opacity="1.000" fill="none" stroke="#6d7881" stroke-width="1.200" stroke-opacity="1.000" stroke-linecap="round" stroke-linejoin="round" d="M 759.120 7.569 Q 759.057 7.509 757.800 7.180 Q 756.542 6.851 755.723 8.031 Q 754.903 9.211 754.886 10.542 Q 754.869 11.874 754.802 14.283 Q 754.735 16.692 754.816 20.214 Q 754.898 23.735 754.984 26.085 Q 755.071 28.435 754.744 28.998 Q 754.417 29.562 753.722 29.780 Q 753.028 29.999 752.522 29.561 Q 752.016 29.123 751.672 28.552 Q 751.327 27.982 751.056 27.569 "></path>
    <path id="STROKE_84728dcf-b78e-46cc-910d-83898e7fa215" opacity="1.000" fill="none" stroke="#6d7881" stroke-width="1.200" stroke-opacity="1.000" stroke-linecap="round" stroke-linejoin="round" d="M 748.715 18.729 Q 748.689 18.729 748.557 18.781 Q 748.557 18.808 748.557 18.860 Q 749.302 19.856 757.135 17.333 "></path>
    <path id="STROKE_3c8b9ab3-48c8-4689-893f-013712169c14" opacity="1.000" fill="none" stroke="#6d7881" stroke-width="1.200" stroke-opacity="1.000" stroke-linecap="round" stroke-linejoin="round" d="M 766.151 10.714 Q 766.175 10.767 766.289 10.706 Q 766.402 10.646 765.622 10.767 Q 764.842 10.889 763.787 11.366 Q 762.732 11.843 762.147 14.419 Q 761.562 16.996 761.558 19.169 Q 761.554 21.342 761.629 22.311 Q 761.703 23.279 762.440 24.507 Q 763.177 25.736 764.097 26.135 Q 765.016 26.534 765.514 26.440 Q 766.011 26.345 766.255 26.286 "></path>
    <path id="STROKE_b2770203-f42b-4098-bd93-85eaea03c8d1" opacity="1.000" fill="none" stroke="#6d7881" stroke-width="1.200" stroke-opacity="1.000" stroke-linecap="round" stroke-linejoin="round" d="M 766.098 17.328 Q 765.732 16.662 765.871 16.856 L 765.871 16.804 Q 765.536 16.920 766.562 16.603 Q 767.588 16.286 766.535 23.391 Q 766.501 23.518 771.252 15.389 Q 770.662 15.177 770.702 21.951 Q 770.827 22.177 771.720 22.061 Q 772.613 21.944 773.042 21.070 Q 773.471 20.196 773.698 19.829 "></path>
    <path id="STROKE_867a94c9-825f-4dbb-bd9a-8a2bd6190fa8" opacity="1.000" fill="none" stroke="#6d7881" stroke-width="1.200" stroke-opacity="1.000" stroke-linecap="round" stroke-linejoin="round" d="M 773.803 10.609 Q 774.945 11.183 774.554 11.074 Q 775.080 11.892 775.307 12.463 Q 775.534 13.034 775.965 13.800 Q 776.395 14.566 776.751 16.838 Q 777.107 19.110 776.943 21.038 Q 776.778 22.967 776.423 24.168 Q 776.067 25.370 774.860 26.731 Q 774.554 26.646 774.362 26.561 "></path>
    <path id="STROKE_b1d1d420-cf92-4714-964b-cd701a2b718f" opacity="1.000" fill="none" stroke="#6d7881" stroke-width="1.200" stroke-opacity="1.000" stroke-linecap="round" stroke-linejoin="round" d="M 791.344 17.616 Q 791.228 16.909 791.185 16.948 Q 791.142 16.988 791.079 16.894 Q 791.016 16.801 790.676 16.548 Q 790.337 16.294 790.420 16.310 Q 790.503 16.326 790.102 16.162 Q 789.700 15.999 788.629 15.924 Q 787.558 15.848 787.264 15.962 Q 786.970 16.076 785.774 17.661 Q 784.579 19.245 784.539 23.038 Q 785.806 23.032 785.683 22.789 Q 786.496 21.816 787.978 19.327 Q 789.459 16.839 790.370 13.023 Q 791.280 9.206 790.400 5.488 Q 789.789 6.023 789.676 10.777 Q 789.562 15.532 789.620 18.920 Q 789.677 22.308 790.607 23.701 Q 791.536 25.094 791.728 25.290 "></path>
    <path id="STROKE_82cdd45e-b0a7-4f3e-969c-760eb3fd5196" opacity="1.000" fill="none" stroke="#6d7881" stroke-width="1.200" stroke-opacity="1.000" stroke-linecap="round" stroke-linejoin="round" d="M 795.222 15.782 Q 795.222 15.808 795.257 16.306 Q 796.973 16.312 798.113 16.610 Q 799.253 16.907 799.423 17.196 Q 799.593 17.485 799.997 18.775 Q 800.401 20.065 797.721 23.680 Q 796.849 23.137 804.779 12.154 Q 804.549 12.856 803.639 14.525 Q 802.729 16.193 802.268 17.797 Q 801.807 19.401 801.568 20.815 Q 801.330 22.230 801.372 22.639 Q 801.413 23.048 801.636 23.902 Q 801.858 24.757 803.377 24.908 Q 804.896 25.059 806.707 23.603 Q 808.518 22.147 808.937 21.676 "></path>
    <path id="STROKE_b7b06851-7bb1-45a1-afc2-7220daa487a6" opacity="1.000" fill="none" stroke="#6d7881" stroke-width="1.200" stroke-opacity="1.000" stroke-linecap="round" stroke-linejoin="round" d="M 841.625 10.491 Q 842.292 10.491 842.271 10.491 Q 843.791 10.491 843.512 10.491 Q 843.935 10.289 848.843 9.667 Q 853.750 9.044 853.942 9.155 "></path>
    <path id="STROKE_aec6f325-31fe-420f-9fd3-595b1eb79760" opacity="1.000" fill="none" stroke="#6d7881" stroke-width="1.200" stroke-opacity="1.000" stroke-linecap="round" stroke-linejoin="round" d="M 842.516 17.943 Q 843.388 19.101 848.167 18.384 Q 852.946 17.668 853.278 17.498 "></path>
    <path id="STROKE_80c94d44-09f8-47ae-a977-cdbe2ad898d8" opacity="1.000" fill="none" stroke="#71c047" stroke-width="1.200" stroke-opacity="1.000" stroke-linecap="round" stroke-linejoin="round" d="M 895.248 3.288 Q 895.313 2.871 895.045 2.149 Q 894.777 1.427 894.539 0.770 Q 894.300 0.113 893.780 -0.803 Q 893.260 -1.719 892.278 -2.058 Q 891.296 -2.397 890.787 -2.247 Q 890.279 -2.097 890.031 -1.693 Q 889.783 -1.288 889.165 -0.286 Q 888.547 0.717 888.833 7.420 Q 889.119 14.123 889.557 17.790 Q 889.995 21.458 889.967 23.078 Q 889.939 24.698 889.831 25.382 Q 889.723 26.067 889.329 26.557 Q 888.935 27.048 887.582 27.073 Q 886.230 27.097 884.978 25.899 Q 883.726 24.701 883.473 24.478 "></path>
    <path id="STROKE_61936007-bb46-49f5-8480-52a55127cab7" opacity="1.000" fill="none" stroke="#71c047" stroke-width="1.200" stroke-opacity="1.000" stroke-linecap="round" stroke-linejoin="round" d="M 880.083 33.332 Q 879.960 33.231 879.711 32.940 Q 879.463 32.648 879.440 32.630 Q 879.417 32.612 879.432 32.661 Q 879.447 32.709 879.237 32.312 Q 879.026 31.915 878.662 31.478 Q 878.299 31.040 877.449 30.778 Q 876.599 30.515 875.862 31.448 Q 875.124 32.382 874.917 33.014 Q 874.709 33.646 874.400 35.300 Q 874.091 36.955 874.569 38.422 Q 875.048 39.890 876.034 39.237 Q 877.019 38.584 877.780 36.864 Q 878.541 35.144 880.284 31.040 L 880.310 31.040 Q 880.430 30.742 880.335 32.916 Q 880.240 35.091 880.380 36.214 Q 880.519 37.337 880.821 37.854 Q 881.124 38.370 881.604 38.435 Q 882.084 38.499 882.250 38.440 "></path>
    <path id="STROKE_1787e851-5a39-4dc7-8fe4-f79c214acc72" opacity="1.000" fill="none" stroke="#71c047" stroke-width="1.200" stroke-opacity="1.000" stroke-linecap="round" stroke-linejoin="round" d="M 899.791 -9.547 Q 899.798 -9.533 899.127 -11.276 Q 899.244 -10.374 899.354 1.847 Q 899.320 2.621 900.188 1.313 Q 901.056 0.004 901.738 -0.962 Q 902.420 -1.928 902.843 -2.375 Q 903.266 -2.822 903.696 -3.181 Q 904.127 -3.540 903.954 -3.453 Q 903.781 -3.366 904.322 -3.515 Q 904.863 -3.665 904.709 -3.601 Q 904.817 -3.374 904.824 -3.121 Q 904.831 -2.869 904.826 -2.466 Q 904.821 -2.063 904.395 -1.308 Q 903.968 -0.554 903.521 -0.055 Q 903.074 0.444 903.057 0.557 Q 903.041 0.670 902.010 1.412 Q 900.979 2.155 900.122 2.292 Q 899.266 2.430 899.022 2.568 "></path>
    <path id="STROKE_c2334355-665d-466e-875b-b0b9aac4976b" opacity="1.000" fill="none" stroke="#71c047" stroke-width="1.200" stroke-opacity="1.000" stroke-linecap="round" stroke-linejoin="round" d="M 918.607 10.308 Q 918.559 10.443 918.673 9.198 Q 918.787 7.953 918.238 7.283 Q 917.689 6.614 917.492 6.361 Q 917.296 6.108 917.142 6.144 Q 916.988 6.181 916.514 6.401 Q 916.039 6.622 916.057 6.785 Q 916.074 6.948 916.016 6.905 Q 915.957 6.862 915.643 8.381 Q 915.329 9.900 914.797 13.581 Q 914.265 17.263 913.511 19.806 Q 912.756 22.349 912.315 24.005 Q 911.875 25.660 911.045 26.344 Q 910.215 27.027 909.374 27.065 Q 908.532 27.103 908.039 26.452 Q 907.546 25.801 907.097 24.947 Q 906.648 24.092 906.447 23.706 "></path>
    <path id="STROKE_cc4592f4-ca4f-4b15-9739-d6493cf61d09" opacity="1.000" fill="none" stroke="#71c047" stroke-width="1.200" stroke-opacity="1.000" stroke-linecap="round" stroke-linejoin="round" d="M 908.561 16.804 Q 908.310 17.191 911.541 17.191 Q 914.773 17.190 916.729 16.889 Q 918.685 16.588 918.991 16.424 "></path>
    <path id="STROKE_c0a02382-5f39-43dc-b83e-a878b3b236e8" opacity="1.000" fill="none" stroke="#71c047" stroke-width="1.200" stroke-opacity="1.000" stroke-linecap="round" stroke-linejoin="round" d="M 926.434 9.469 Q 926.606 9.435 926.287 9.229 Q 925.968 9.022 925.638 9.103 Q 925.309 9.184 925.053 9.511 Q 924.798 9.837 924.610 10.214 Q 924.423 10.590 924.211 11.118 Q 923.999 11.646 923.711 12.615 Q 923.424 13.583 923.223 14.587 Q 923.023 15.591 922.831 16.913 Q 922.639 18.235 922.600 20.395 Q 922.561 22.555 922.500 23.816 Q 922.439 25.078 923.551 25.736 Q 923.656 25.513 923.782 25.235 Q 923.909 24.956 924.110 24.596 "></path>
    <path id="STROKE_69bfbe6e-2608-44b2-bb28-402f0bfb0e8e" opacity="1.000" fill="none" stroke="#71c047" stroke-width="1.200" stroke-opacity="1.000" stroke-linecap="round" stroke-linejoin="round" d="M 926.434 15.023 Q 926.766 14.508 927.260 14.473 Q 927.755 14.439 927.822 14.481 Q 927.889 14.523 928.454 14.324 Q 929.018 14.126 929.223 15.314 Q 929.428 16.503 929.329 17.307 Q 929.230 18.111 929.003 18.690 Q 928.775 19.269 928.425 20.314 Q 928.748 20.416 933.090 12.587 Q 933.253 12.318 932.784 13.896 Q 932.314 15.473 933.230 19.534 Q 933.980 19.676 933.997 19.659 Q 934.015 19.643 933.961 19.628 Q 933.908 19.612 934.166 19.744 Q 934.424 19.876 935.286 19.037 Q 936.147 18.198 936.427 17.865 "></path>
    <path id="STROKE_e8af858d-6161-4b6e-83b3-667d9a94765b" opacity="1.000" fill="none" stroke="#71c047" stroke-width="1.200" stroke-opacity="1.000" stroke-linecap="round" stroke-linejoin="round" d="M 936.986 7.466 Q 936.656 7.239 937.652 9.500 Q 938.647 11.761 938.865 14.572 Q 939.083 17.382 938.436 19.619 Q 937.788 21.855 936.885 22.682 Q 935.982 23.509 935.868 23.536 "></path>
    <path id="STROKE_e974af8a-e6ca-4a71-9ff4-5d256822180c" opacity="1.000" fill="none" stroke="#71c047" stroke-width="1.200" stroke-opacity="1.000" stroke-linecap="round" stroke-linejoin="round" d="M 958.633 15.088 Q 958.678 15.110 957.391 14.837 Q 956.104 14.563 954.791 14.876 Q 953.478 15.188 952.585 16.391 Q 951.693 17.594 951.390 19.118 Q 951.086 20.642 951.278 21.740 Q 951.470 22.839 952.047 23.257 Q 952.624 23.675 953.409 23.686 Q 954.193 23.697 954.675 23.162 Q 955.157 22.626 955.529 22.111 Q 955.900 21.595 956.836 19.025 Q 957.773 16.455 958.326 12.638 Q 958.878 8.822 957.209 5.017 Q 957.008 5.142 956.823 9.677 Q 956.638 14.212 958.458 23.038 Q 958.432 22.979 958.405 22.920 "></path>
    <path id="STROKE_6f66bbbf-6ae3-499a-b395-04134c67c6b4" opacity="1.000" fill="none" stroke="#71c047" stroke-width="1.200" stroke-opacity="1.000" stroke-linecap="round" stroke-linejoin="round" d="M 962.843 13.975 Q 962.847 13.595 962.895 13.641 Q 962.453 13.433 963.941 13.053 Q 965.430 12.673 966.342 12.575 Q 967.255 12.476 967.983 12.429 Q 968.711 12.382 968.990 13.573 Q 969.269 14.764 969.137 15.806 Q 969.004 16.848 968.550 17.863 Q 968.095 18.878 966.442 21.977 Q 966.534 22.146 973.448 10.635 Q 973.262 11.052 972.262 13.531 Q 971.263 16.010 971.069 17.713 Q 970.874 19.417 970.870 20.545 Q 970.867 21.673 972.615 21.766 Q 974.363 21.858 975.669 21.342 Q 976.975 20.827 977.845 20.262 Q 978.715 19.698 979.318 19.253 "></path>
  </g>
</svg>